GentiumPlusMaster-ExtraBold.ufo
<glyph name="ExclamationMrk" format="2">
  <advance width="658"/>
  <unicode hex="0021"/>
  <outline>
    <contour>
      <point x="394" y="419" type="curve"/>
      <point x="483" y="1445" type="line"/>
      <point x="430" y="1480" type="line"/>
      <point x="375" y="1461"/>
      <point x="225" y="1391"/>
      <point x="164" y="1358" type="curve"/>
      <point x="251" y="401" type="line"/>
      <point x="280" y="380" type="line"/>
      <point x="313" y="390"/>
      <point x="369" y="401"/>
    </contour>
    <contour>
      <point x="504" y="21"/>
      <point x="504" y="133" type="curve" smooth="yes"/>
      <point x="504" y="235"/>
      <point x="421" y="276"/>
      <point x="345" y="276" type="curve" smooth="yes"/>
      <point x="240" y="276"/>
      <point x="146" y="212"/>
      <point x="146" y="102" type="curve" smooth="yes"/>
      <point x="146" y="0"/>
      <point x="225" y="-40"/>
      <point x="306" y="-40" type="curve" smooth="yes"/>
      <point x="414" y="-40"/>
    </contour>
  </outline>
</glyph>
<glyph name="DollarSgn" format="2">
  <advance width="1061"/>
  <unicode hex="0024"/>
  <outline>
    <contour>
      <point x="568" y="-144"/>
      <point x="592" y="-123" type="curve"/>
      <point x="592" y="1352" type="line"/>
      <point x="556" y="1384" type="line"/>
      <point x="517" y="1374"/>
      <point x="499" y="1358"/>
      <point x="462" y="1336" type="curve"/>
      <point x="462" y="-142" type="line"/>
      <point x="499" y="-174" type="line"/>
      <point x="532" y="-166"/>
    </contour>
    <contour>
      <point x="374" y="-10"/>
      <point x="482" y="-10" type="curve" smooth="yes"/>
      <point x="849" y="-10"/>
      <point x="982" y="189"/>
      <point x="982" y="367" type="curve" smooth="yes"/>
      <point x="982" y="786"/>
      <point x="305" y="699"/>
      <point x="305" y="948" type="curve" smooth="yes"/>
      <point x="305" y="1024"/>
      <point x="386" y="1086"/>
      <point x="501" y="1086" type="curve" smooth="yes"/>
      <point x="643" y="1086"/>
      <point x="725" y="1006"/>
      <point x="778" y="871" type="curve"/>
      <point x="857" y="863" type="line"/>
      <point x="892" y="894"/>
      <point x="957" y="1086"/>
      <point x="941" y="1104" type="curve" smooth="yes"/>
      <point x="889" y="1159"/>
      <point x="701" y="1214"/>
      <point x="542" y="1214" type="curve" smooth="yes"/>
      <point x="184" y="1214"/>
      <point x="78" y="1026"/>
      <point x="78" y="901" type="curve" smooth="yes"/>
      <point x="78" y="511"/>
      <point x="747" y="628"/>
      <point x="747" y="314" type="curve" smooth="yes"/>
      <point x="747" y="187"/>
      <point x="641" y="141"/>
      <point x="539" y="141" type="curve" smooth="yes"/>
      <point x="353" y="141"/>
      <point x="249" y="268"/>
      <point x="175" y="426" type="curve"/>
      <point x="92" y="430" type="line"/>
      <point x="72" y="356"/>
      <point x="64" y="129"/>
      <point x="82" y="116" type="curve"/>
      <point x="203" y="40"/>
    </contour>
  </outline>
</glyph>
<glyph name="PercentSgn" format="2">
  <advance width="1517"/>
  <unicode hex="0025"/>
  <outline>
    <contour>
      <point x="1471" y="124"/>
      <point x="1471" y="310" type="curve" smooth="yes"/>
      <point x="1471" y="498"/>
      <point x="1355" y="652"/>
      <point x="1145" y="652" type="curve" smooth="yes"/>
      <point x="930" y="652"/>
      <point x="806" y="496"/>
      <point x="806" y="310" type="curve" smooth="yes"/>
      <point x="806" y="124"/>
      <point x="929" y="-31"/>
      <point x="1132" y="-31" type="curve" smooth="yes"/>
      <point x="1335" y="-31"/>
    </contour>
    <contour>
      <point x="379" y="3" type="curve"/>
      <point x="1307" y="1207" type="line"/>
      <point x="1282" y="1235" type="line"/>
      <point x="1253" y="1229"/>
      <point x="1159" y="1214"/>
      <point x="1133" y="1203" type="curve"/>
      <point x="201" y="0" type="line"/>
      <point x="226" y="-30" type="line"/>
      <point x="262" y="-21"/>
      <point x="348" y="-12"/>
    </contour>
    <contour>
      <point x="711" y="711"/>
      <point x="711" y="897" type="curve" smooth="yes"/>
      <point x="711" y="1085"/>
      <point x="595" y="1239"/>
      <point x="385" y="1239" type="curve" smooth="yes"/>
      <point x="170" y="1239"/>
      <point x="46" y="1083"/>
      <point x="46" y="897" type="curve" smooth="yes"/>
      <point x="46" y="711"/>
      <point x="169" y="556"/>
      <point x="372" y="556" type="curve" smooth="yes"/>
      <point x="575" y="556"/>
    </contour>
    <contour>
      <point x="1246" y="487"/>
      <point x="1246" y="290" type="curve" smooth="yes"/>
      <point x="1246" y="108"/>
      <point x="1216" y="42"/>
      <point x="1145" y="42" type="curve" smooth="yes"/>
      <point x="1068" y="42"/>
      <point x="1031" y="136"/>
      <point x="1031" y="333" type="curve" smooth="yes"/>
      <point x="1031" y="514"/>
      <point x="1063" y="579"/>
      <point x="1132" y="579" type="curve" smooth="yes"/>
      <point x="1200" y="579"/>
    </contour>
    <contour>
      <point x="486" y="1074"/>
      <point x="486" y="877" type="curve" smooth="yes"/>
      <point x="486" y="695"/>
      <point x="456" y="629"/>
      <point x="385" y="629" type="curve" smooth="yes"/>
      <point x="308" y="629"/>
      <point x="271" y="723"/>
      <point x="271" y="920" type="curve" smooth="yes"/>
      <point x="271" y="1101"/>
      <point x="303" y="1166"/>
      <point x="372" y="1166" type="curve" smooth="yes"/>
      <point x="440" y="1166"/>
    </contour>
  </outline>
</glyph>
<glyph name="Apos" format="2">
  <advance width="572"/>
  <unicode hex="0027"/>
  <outline>
    <contour>
      <point x="359" y="834" type="curve"/>
      <point x="442" y="1449" type="line"/>
      <point x="389" y="1480" type="line"/>
      <point x="361" y="1474"/>
      <point x="160" y="1403"/>
      <point x="130" y="1386" type="curve"/>
      <point x="223" y="813" type="line"/>
      <point x="254" y="813"/>
      <point x="339" y="823"/>
    </contour>
  </outline>
</glyph>
<glyph name="PlusSgn" format="2">
  <advance width="870"/>
  <unicode hex="002B"/>
  <outline>
    <contour>
      <point x="812" y="577"/>
      <point x="820" y="606" type="curve"/>
      <point x="785" y="640" type="line"/>
      <point x="101" y="640" type="line"/>
      <point x="89" y="614"/>
      <point x="57" y="548"/>
      <point x="50" y="519" type="curve"/>
      <point x="85" y="485" type="line"/>
      <point x="769" y="485" type="line"/>
      <point x="779" y="507"/>
    </contour>
    <contour>
      <point x="489" y="208"/>
      <point x="515" y="221" type="curve"/>
      <point x="515" y="912" type="line"/>
      <point x="481" y="945" type="line"/>
      <point x="452" y="938"/>
      <point x="385" y="914"/>
      <point x="360" y="906" type="curve"/>
      <point x="360" y="212" type="line"/>
      <point x="395" y="180" type="line"/>
      <point x="424" y="186"/>
    </contour>
  </outline>
</glyph>
<glyph name="HyphenMinus" format="2">
  <advance width="740"/>
  <unicode hex="002D"/>
  <anchor x="345" y="1050" name="U"/>
  <outline>
    <contour>
      <point x="682" y="527"/>
      <point x="690" y="556" type="curve"/>
      <point x="655" y="590" type="line"/>
      <point x="101" y="590" type="line"/>
      <point x="89" y="564"/>
      <point x="57" y="498"/>
      <point x="50" y="469" type="curve"/>
      <point x="85" y="435" type="line"/>
      <point x="639" y="435" type="line"/>
      <point x="649" y="457"/>
    </contour>
  </outline>
</glyph>
<glyph name="Solidus" format="2">
  <advance width="980"/>
  <unicode hex="002F"/>
  <outline>
    <contour>
      <point x="252" y="-274" type="curve"/>
      <point x="950" y="1568" type="line"/>
      <point x="903" y="1600" type="line"/>
      <point x="865" y="1590"/>
      <point x="767" y="1564"/>
      <point x="731" y="1541" type="curve"/>
      <point x="30" y="-300" type="line"/>
      <point x="77" y="-335" type="line"/>
      <point x="110" y="-325"/>
      <point x="225" y="-292"/>
    </contour>
  </outline>
</glyph>
<glyph name="DigitZero" format="2">
  <advance width="1061"/>
  <unicode hex="0030"/>
  <anchor x="530" y="-100" name="L"/>
  <anchor x="530" y="1370" name="U"/>
  <outline>
    <contour>
      <point x="1005" y="258"/>
      <point x="1005" y="602" type="curve" smooth="yes"/>
      <point x="1005" y="950"/>
      <point x="834" y="1235"/>
      <point x="540" y="1235" type="curve" smooth="yes"/>
      <point x="238" y="1235"/>
      <point x="56" y="946"/>
      <point x="56" y="602" type="curve" smooth="yes"/>
      <point x="56" y="258"/>
      <point x="237" y="-30"/>
      <point x="521" y="-30" type="curve" smooth="yes"/>
      <point x="805" y="-30"/>
    </contour>
    <contour>
      <point x="711" y="930"/>
      <point x="711" y="565" type="curve" smooth="yes"/>
      <point x="711" y="227"/>
      <point x="659" y="105"/>
      <point x="540" y="105" type="curve" smooth="yes"/>
      <point x="412" y="105"/>
      <point x="350" y="279"/>
      <point x="350" y="645" type="curve" smooth="yes"/>
      <point x="350" y="979"/>
      <point x="404" y="1100"/>
      <point x="521" y="1100" type="curve" smooth="yes"/>
      <point x="636" y="1100"/>
    </contour>
  </outline>
</glyph>
<glyph name="DigitOne" format="2">
  <advance width="1061"/>
  <unicode hex="0031"/>
  <anchor x="530" y="-100" name="L"/>
  <anchor x="530" y="1370" name="U"/>
  <outline>
    <contour>
      <point x="150" y="0" type="line"/>
      <point x="940" y="0" type="line"/>
      <point x="940" y="93" type="line"/>
      <point x="739" y="118"/>
      <point x="690" y="157"/>
      <point x="690" y="183" type="curve" smooth="yes"/>
      <point x="690" y="1200" type="line"/>
      <point x="643" y="1245" type="line"/>
      <point x="544" y="1204"/>
      <point x="234" y="1097"/>
      <point x="119" y="1075" type="curve"/>
      <point x="150" y="984" type="line"/>
      <point x="326" y="1021"/>
      <point x="386" y="1015"/>
      <point x="402" y="998" type="curve" smooth="yes"/>
      <point x="418" y="980"/>
      <point x="420" y="953"/>
      <point x="420" y="900" type="curve" smooth="yes"/>
      <point x="420" y="183" type="line" smooth="yes"/>
      <point x="420" y="155"/>
      <point x="359" y="118"/>
      <point x="150" y="93" type="curve"/>
    </contour>
  </outline>
</glyph>
<glyph name="DigitThree" format="2">
  <advance width="1061"/>
  <unicode hex="0033"/>
  <anchor x="530" y="-100" name="L"/>
  <anchor x="530" y="1370" name="U"/>
  <outline>
    <contour>
      <point x="945" y="156"/>
      <point x="945" y="381" type="curve" smooth="yes"/>
      <point x="945" y="543"/>
      <point x="842" y="681"/>
      <point x="675" y="698" type="curve"/>
      <point x="800" y="736"/>
      <point x="888" y="858"/>
      <point x="888" y="958" type="curve" smooth="yes"/>
      <point x="888" y="1094"/>
      <point x="792" y="1235"/>
      <point x="533" y="1235" type="curve" smooth="yes"/>
      <point x="274" y="1235"/>
      <point x="105" y="1057"/>
      <point x="105" y="945" type="curve"/>
      <point x="141" y="874" type="line"/>
      <point x="221" y="881"/>
      <point x="332" y="919"/>
      <point x="390" y="953" type="curve"/>
      <point x="362" y="1045"/>
      <point x="418" y="1115"/>
      <point x="476" y="1115" type="curve" smooth="yes"/>
      <point x="569" y="1115"/>
      <point x="598" y="1032"/>
      <point x="598" y="940" type="curve" smooth="yes"/>
      <point x="598" y="858"/>
      <point x="566" y="745"/>
      <point x="343" y="686" type="curve"/>
      <point x="362" y="586" type="line"/>
      <point x="403" y="593"/>
      <point x="413" y="593"/>
      <point x="450" y="593" type="curve" smooth="yes"/>
      <point x="528" y="593"/>
      <point x="655" y="538"/>
      <point x="655" y="358" type="curve" smooth="yes"/>
      <point x="655" y="188"/>
      <point x="557" y="120"/>
      <point x="443" y="120" type="curve" smooth="yes"/>
      <point x="343" y="120"/>
      <point x="243" y="156"/>
      <point x="122" y="246" type="curve"/>
      <point x="78" y="139" type="line"/>
      <point x="198" y="24"/>
      <point x="371" y="-30"/>
      <point x="476" y="-30" type="curve" smooth="yes"/>
      <point x="750" y="-30"/>
    </contour>
  </outline>
</glyph>
<glyph name="DigitSix" format="2">
  <advance width="1061"/>
  <unicode hex="0036"/>
  <anchor x="530" y="-100" name="L"/>
  <anchor x="530" y="1370" name="U"/>
  <outline>
    <contour>
      <point x="1001" y="225"/>
      <point x="1001" y="412" type="curve" smooth="yes"/>
      <point x="1001" y="631"/>
      <point x="862" y="790"/>
      <point x="631" y="790" type="curve" smooth="yes"/>
      <point x="525" y="790"/>
      <point x="380" y="709"/>
      <point x="275" y="568" type="curve"/>
      <point x="298" y="432" type="line"/>
      <point x="377" y="554"/>
      <point x="482" y="640"/>
      <point x="560" y="640" type="curve" smooth="yes"/>
      <point x="642" y="640"/>
      <point x="721" y="598"/>
      <point x="721" y="348" type="curve" smooth="yes"/>
      <point x="721" y="225"/>
      <point x="692" y="105"/>
      <point x="585" y="105" type="curve" smooth="yes"/>
      <point x="472" y="105"/>
      <point x="380" y="221"/>
      <point x="380" y="537" type="curve" smooth="yes"/>
      <point x="380" y="811"/>
      <point x="496" y="1066"/>
      <point x="897" y="1150" type="curve"/>
      <point x="868" y="1249" type="line"/>
      <point x="360" y="1179"/>
      <point x="90" y="850"/>
      <point x="90" y="473" type="curve" smooth="yes"/>
      <point x="90" y="172"/>
      <point x="301" y="-30"/>
      <point x="566" y="-30" type="curve" smooth="yes"/>
      <point x="853" y="-30"/>
    </contour>
  </outline>
</glyph>
<glyph name="DigitSeven" format="2">
  <advance width="1061"/>
  <unicode hex="0037"/>
  <anchor x="530" y="-100" name="L"/>
  <anchor x="530" y="1370" name="U"/>
  <outline>
    <contour>
      <point x="800" y="737"/>
      <point x="985" y="1167" type="curve"/>
      <point x="952" y="1205" type="line"/>
      <point x="147" y="1205" type="line"/>
      <point x="131" y="1146"/>
      <point x="103" y="930"/>
      <point x="94" y="868" type="curve"/>
      <point x="170" y="840" type="line"/>
      <point x="227" y="995"/>
      <point x="280" y="1005"/>
      <point x="319" y="1005" type="curve" smooth="yes"/>
      <point x="763" y="1005" type="line"/>
      <point x="616" y="665"/>
      <point x="501" y="421"/>
      <point x="269" y="13" type="curve"/>
      <point x="320" y="-30" type="line"/>
      <point x="386" y="-13"/>
      <point x="515" y="21"/>
      <point x="562" y="54" type="curve"/>
      <point x="632" y="267"/>
    </contour>
  </outline>
</glyph>
<glyph name="DigitEight" format="2">
  <advance width="1061"/>
  <unicode hex="0038"/>
  <anchor x="530" y="-100" name="L"/>
  <anchor x="530" y="1370" name="U"/>
  <outline>
    <contour>
      <point x="987" y="145"/>
      <point x="987" y="352" type="curve" smooth="yes"/>
      <point x="987" y="780"/>
      <point x="385" y="704"/>
      <point x="385" y="950" type="curve" smooth="yes"/>
      <point x="385" y="1040"/>
      <point x="432" y="1111"/>
      <point x="511" y="1111" type="curve" smooth="yes"/>
      <point x="582" y="1111"/>
      <point x="656" y="1077"/>
      <point x="657" y="938" type="curve" smooth="yes"/>
      <point x="658" y="862"/>
      <point x="615" y="784"/>
      <point x="530" y="709" type="curve"/>
      <point x="650" y="666" type="line"/>
      <point x="807" y="754"/>
      <point x="937" y="848"/>
      <point x="937" y="969" type="curve" smooth="yes"/>
      <point x="937" y="1124"/>
      <point x="812" y="1235"/>
      <point x="542" y="1235" type="curve" smooth="yes"/>
      <point x="311" y="1235"/>
      <point x="125" y="1100"/>
      <point x="125" y="915" type="curve" smooth="yes"/>
      <point x="125" y="539"/>
      <point x="697" y="660"/>
      <point x="697" y="309" type="curve" smooth="yes"/>
      <point x="697" y="193"/>
      <point x="637" y="100"/>
      <point x="540" y="100" type="curve" smooth="yes"/>
      <point x="458" y="100"/>
      <point x="364" y="176"/>
      <point x="364" y="315" type="curve" smooth="yes"/>
      <point x="364" y="438"/>
      <point x="419" y="520"/>
      <point x="520" y="614" type="curve"/>
      <point x="399" y="651" type="line"/>
      <point x="213" y="571"/>
      <point x="74" y="434"/>
      <point x="74" y="285" type="curve" smooth="yes"/>
      <point x="74" y="121"/>
      <point x="223" y="-30"/>
      <point x="511" y="-30" type="curve" smooth="yes"/>
      <point x="781" y="-30"/>
    </contour>
  </outline>
</glyph>
<glyph name="LTSgn" format="2">
  <advance width="940"/>
  <unicode hex="003C"/>
  <outline>
    <contour>
      <point x="883" y="864"/>
      <point x="890" y="892" type="curve"/>
      <point x="855" y="927" type="line"/>
      <point x="91" y="654" type="line"/>
      <point x="79" y="627"/>
      <point x="57" y="552"/>
      <point x="50" y="525" type="curve"/>
      <point x="85" y="480" type="line"/>
      <point x="851" y="754" type="line"/>
      <point x="859" y="779"/>
    </contour>
    <contour>
      <point x="861" y="309"/>
      <point x="890" y="336" type="curve"/>
      <point x="863" y="382" type="line"/>
      <point x="91" y="654" type="line"/>
      <point x="79" y="627"/>
      <point x="57" y="552"/>
      <point x="50" y="525" type="curve"/>
      <point x="85" y="480" type="line"/>
      <point x="776" y="236" type="line"/>
      <point x="817" y="261"/>
    </contour>
  </outline>
</glyph>
<glyph name="QstnMrk" format="2">
  <advance width="947"/>
  <unicode hex="003F"/>
  <outline>
    <contour>
      <point x="886" y="864"/>
      <point x="886" y="1165" type="curve" smooth="yes"/>
      <point x="886" y="1352"/>
      <point x="760" y="1480"/>
      <point x="532" y="1480" type="curve" smooth="yes"/>
      <point x="281" y="1480"/>
      <point x="60" y="1331"/>
      <point x="60" y="1143" type="curve" smooth="yes"/>
      <point x="60" y="1133"/>
      <point x="60" y="1100"/>
      <point x="62" y="1090" type="curve"/>
      <point x="99" y="1050" type="line"/>
      <point x="158" y="1056"/>
      <point x="323" y="1096"/>
      <point x="366" y="1118" type="curve"/>
      <point x="360" y="1137"/>
      <point x="354" y="1167"/>
      <point x="354" y="1186" type="curve" smooth="yes"/>
      <point x="354" y="1290"/>
      <point x="407" y="1354"/>
      <point x="464" y="1354" type="curve" smooth="yes"/>
      <point x="541" y="1354"/>
      <point x="592" y="1284"/>
      <point x="592" y="1120" type="curve" smooth="yes"/>
      <point x="592" y="930"/>
      <point x="352" y="745"/>
      <point x="364" y="515" type="curve"/>
      <point x="372" y="409" type="line"/>
      <point x="407" y="378" type="line"/>
      <point x="444" y="388"/>
      <point x="488" y="401"/>
      <point x="513" y="419" type="curve"/>
      <point x="519" y="515" type="line" smooth="yes"/>
      <point x="533" y="735"/>
    </contour>
    <contour>
      <point x="631" y="21"/>
      <point x="631" y="133" type="curve" smooth="yes"/>
      <point x="631" y="235"/>
      <point x="548" y="276"/>
      <point x="472" y="276" type="curve" smooth="yes"/>
      <point x="367" y="276"/>
      <point x="273" y="212"/>
      <point x="273" y="102" type="curve" smooth="yes"/>
      <point x="273" y="0"/>
      <point x="352" y="-40"/>
      <point x="433" y="-40" type="curve" smooth="yes"/>
      <point x="541" y="-40"/>
    </contour>
  </outline>
</glyph>
<glyph name="AtSgn" format="2">
  <advance width="1843"/>
  <unicode hex="0040"/>
  <outline>
    <contour>
      <point x="1753" y="243"/>
      <point x="1753" y="579" type="curve" smooth="yes"/>
      <point x="1753" y="1121"/>
      <point x="1441" y="1373"/>
      <point x="994" y="1373" type="curve" smooth="yes"/>
      <point x="485" y="1373"/>
      <point x="90" y="958"/>
      <point x="90" y="465" type="curve" smooth="yes"/>
      <point x="90" y="-97"/>
      <point x="445" y="-425"/>
      <point x="954" y="-425" type="curve" smooth="yes"/>
      <point x="1291" y="-425"/>
      <point x="1500" y="-270"/>
      <point x="1596" y="-159" type="curve"/>
      <point x="1543" y="-62" type="line"/>
      <point x="1463" y="-130"/>
      <point x="1268" y="-235"/>
      <point x="1003" y="-235" type="curve" smooth="yes"/>
      <point x="631" y="-235"/>
      <point x="340" y="11"/>
      <point x="340" y="524" type="curve" smooth="yes"/>
      <point x="340" y="885"/>
      <point x="547" y="1183"/>
      <point x="955" y="1183" type="curve" smooth="yes"/>
      <point x="1303" y="1183"/>
      <point x="1533" y="971"/>
      <point x="1533" y="512" type="curve" smooth="yes"/>
      <point x="1533" y="287"/>
      <point x="1449" y="179"/>
      <point x="1382" y="179" type="curve" smooth="yes"/>
      <point x="1328" y="179"/>
      <point x="1324" y="216"/>
      <point x="1324" y="285" type="curve" smooth="yes"/>
      <point x="1324" y="693" type="line" smooth="yes"/>
      <point x="1324" y="804"/>
      <point x="1354" y="930"/>
      <point x="1354" y="930" type="curve"/>
      <point x="1323" y="960" type="line"/>
      <point x="1256" y="919"/>
      <point x="1204" y="897"/>
      <point x="1119" y="869" type="curve"/>
      <point x="1057" y="947"/>
      <point x="1010" y="960"/>
      <point x="949" y="960" type="curve" smooth="yes"/>
      <point x="669" y="960"/>
      <point x="510" y="694"/>
      <point x="510" y="434" type="curve" smooth="yes"/>
      <point x="510" y="107"/>
      <point x="668" y="-30"/>
      <point x="804" y="-30" type="curve" smooth="yes"/>
      <point x="910" y="-30"/>
      <point x="951" y="0"/>
      <point x="1060" y="122" type="curve"/>
      <point x="1088" y="3"/>
      <point x="1152" y="-30"/>
      <point x="1237" y="-30" type="curve" smooth="yes"/>
      <point x="1497" y="-30"/>
    </contour>
    <contour>
      <point x="1054" y="731" type="curve"/>
      <point x="1054" y="290" type="line"/>
      <point x="993" y="201"/>
      <point x="967" y="180"/>
      <point x="915" y="180" type="curve" smooth="yes"/>
      <point x="851" y="180"/>
      <point x="780" y="238"/>
      <point x="780" y="465" type="curve" smooth="yes"/>
      <point x="780" y="715"/>
      <point x="831" y="820"/>
      <point x="938" y="820" type="curve" smooth="yes"/>
      <point x="998" y="820"/>
      <point x="1027" y="785"/>
    </contour>
  </outline>
</glyph>
<glyph name="LtnCapG" format="2">
  <advance width="1244"/>
  <unicode hex="0047"/>
  <anchor x="640" y="0" name="H"/>
  <anchor x="662" y="-100" name="L"/>
  <anchor x="662" y="1370" name="U"/>
  <outline>
    <contour>
      <point x="1129" y="529"/>
      <point x="1205" y="547" type="curve"/>
      <point x="1205" y="630" type="line"/>
      <point x="694" y="630" type="line"/>
      <point x="694" y="547" type="line"/>
      <point x="840" y="521"/>
      <point x="840" y="494"/>
      <point x="840" y="465" type="curve" smooth="yes"/>
      <point x="840" y="98" type="line" smooth="yes"/>
      <point x="840" y="80"/>
      <point x="1110" y="174"/>
      <point x="1110" y="174" type="curve"/>
      <point x="1110" y="465" type="line" smooth="yes"/>
      <point x="1110" y="496"/>
    </contour>
    <contour>
      <point x="1131" y="1174"/>
      <point x="1112" y="1188" type="curve" smooth="yes"/>
      <point x="1026" y="1253"/>
      <point x="845" y="1290"/>
      <point x="757" y="1290" type="curve" smooth="yes"/>
      <point x="351" y="1290"/>
      <point x="50" y="1026"/>
      <point x="50" y="582" type="curve" smooth="yes"/>
      <point x="50" y="170"/>
      <point x="341" y="-31"/>
      <point x="638" y="-30" type="curve" smooth="yes"/>
      <point x="759" y="-30"/>
      <point x="912" y="12"/>
      <point x="1110" y="174" type="curve"/>
      <point x="1102" y="184"/>
      <point x="973" y="246"/>
      <point x="956" y="255" type="curve"/>
      <point x="887" y="189"/>
      <point x="821" y="140"/>
      <point x="686" y="140" type="curve" smooth="yes"/>
      <point x="503" y="140"/>
      <point x="335" y="286"/>
      <point x="335" y="637" type="curve" smooth="yes"/>
      <point x="335" y="1053"/>
      <point x="538" y="1160"/>
      <point x="638" y="1160" type="curve" smooth="yes"/>
      <point x="749" y="1160"/>
      <point x="835" y="1111"/>
      <point x="923" y="967" type="curve"/>
      <point x="996" y="951" type="line"/>
      <point x="1031" y="982"/>
    </contour>
  </outline>
</glyph>
<glyph name="LtnCapI" format="2">
  <advance width="690"/>
  <unicode hex="0049"/>
  <anchor x="335" y="0" name="H"/>
  <anchor x="335" y="-100" name="L"/>
  <anchor x="396" y="0" name="O"/>
  <anchor x="608" y="1100" name="R"/>
  <anchor x="335" y="1370" name="U"/>
  <outline>
    <contour>
      <point x="60" y="0" type="line"/>
      <point x="610" y="0" type="line"/>
      <point x="610" y="83" type="line"/>
      <point x="514" y="101"/>
      <point x="475" y="128"/>
      <point x="475" y="144" type="curve" smooth="yes"/>
      <point x="475" y="1115" type="line" smooth="yes"/>
      <point x="475" y="1134"/>
      <point x="520" y="1158"/>
      <point x="610" y="1177" type="curve"/>
      <point x="610" y="1260" type="line"/>
      <point x="60" y="1260" type="line"/>
      <point x="60" y="1177" type="line"/>
      <point x="156" y="1158"/>
      <point x="195" y="1131"/>
      <point x="195" y="1115" type="curve" smooth="yes"/>
      <point x="195" y="144" type="line" smooth="yes"/>
      <point x="195" y="126"/>
      <point x="150" y="101"/>
      <point x="60" y="83" type="curve"/>
    </contour>
  </outline>
</glyph>
<glyph name="LtnCapO" format="2">
  <advance width="1289"/>
  <unicode hex="004F"/>
  <anchor x="613" y="0" name="H"/>
  <anchor x="646" y="-100" name="L"/>
  <anchor x="712" y="0" name="O"/>
  <anchor x="1256" y="1100" name="R"/>
  <anchor x="646" y="1370" name="U"/>
  <outline>
    <contour>
      <point x="605" y="-30" type="curve" smooth="yes"/>
      <point x="937" y="-30"/>
      <point x="1218" y="285"/>
      <point x="1218" y="647" type="curve" smooth="yes"/>
      <point x="1218" y="973"/>
      <point x="1023" y="1290"/>
      <point x="663" y="1290" type="curve" smooth="yes"/>
      <point x="299" y="1290"/>
      <point x="50" y="975"/>
      <point x="50" y="612" type="curve" smooth="yes"/>
      <point x="50" y="276"/>
      <point x="263" y="-30"/>
    </contour>
    <contour>
      <point x="654" y="110" type="curve" smooth="yes"/>
      <point x="479" y="110"/>
      <point x="335" y="342"/>
      <point x="335" y="641" type="curve" smooth="yes"/>
      <point x="335" y="967"/>
      <point x="427" y="1155"/>
      <point x="604" y="1155" type="curve" smooth="yes"/>
      <point x="801" y="1155"/>
      <point x="933" y="905"/>
      <point x="933" y="629" type="curve" smooth="yes"/>
      <point x="933" y="276"/>
      <point x="815" y="110"/>
    </contour>
  </outline>
</glyph>
<glyph name="LtnCapV" format="2">
  <advance width="1371"/>
  <unicode hex="0056"/>
  <anchor x="673" y="0" name="H"/>
  <anchor x="675" y="-100" name="L"/>
  <anchor x="627" y="0" name="O"/>
  <anchor x="685" y="1370" name="U"/>
  <outline>
    <contour>
      <point x="1250" y="1160"/>
      <point x="1340" y="1177" type="curve"/>
      <point x="1340" y="1260" type="line"/>
      <point x="904" y="1260" type="line"/>
      <point x="904" y="1177" type="line"/>
      <point x="1013" y="1164"/>
      <point x="1040" y="1150"/>
      <point x="1026" y="1111" type="curve" smooth="yes"/>
      <point x="742" y="313" type="line"/>
      <point x="427" y="1113" type="line" smooth="yes"/>
      <point x="412" y="1151"/>
      <point x="439" y="1169"/>
      <point x="545" y="1177" type="curve"/>
      <point x="545" y="1260" type="line"/>
      <point x="10" y="1260" type="line"/>
      <point x="10" y="1177" type="line"/>
      <point x="94" y="1166"/>
      <point x="128" y="1146"/>
      <point x="142" y="1111" type="curve" smooth="yes"/>
      <point x="602" y="-30" type="line"/>
      <point x="677" y="-12"/>
      <point x="791" y="30"/>
      <point x="812" y="89" type="curve" smooth="yes"/>
      <point x="1185" y="1111" type="line" smooth="yes"/>
      <point x="1198" y="1148"/>
    </contour>
  </outline>
</glyph>
<glyph name="LtnCapW" format="2">
  <advance width="1741"/>
  <unicode hex="0057"/>
  <anchor x="881" y="-100" name="L"/>
  <anchor x="881" y="1370" name="U"/>
  <outline>
    <contour>
      <point x="1624" y="1153"/>
      <point x="1742" y="1177" type="curve"/>
      <point x="1742" y="1260" type="line"/>
      <point x="1288" y="1260" type="line"/>
      <point x="1288" y="1177" type="line"/>
      <point x="1378" y="1162"/>
      <point x="1448" y="1146"/>
      <point x="1442" y="1115" type="curve"/>
      <point x="1290" y="430" type="line"/>
      <point x="961" y="1260" type="line"/>
      <point x="846" y="1260" type="line"/>
      <point x="565" y="430" type="line"/>
      <point x="403" y="1107" type="line"/>
      <point x="397" y="1136"/>
      <point x="399" y="1164"/>
      <point x="529" y="1177" type="curve"/>
      <point x="529" y="1260" type="line"/>
      <point x="20" y="1260" type="line"/>
      <point x="20" y="1177" type="line"/>
      <point x="115" y="1160"/>
      <point x="151" y="1140"/>
      <point x="158" y="1107" type="curve" smooth="yes"/>
      <point x="418" y="-30" type="line"/>
      <point x="472" y="-18"/>
      <point x="560" y="2"/>
      <point x="579" y="59" type="curve"/>
      <point x="866" y="854" type="line"/>
      <point x="1212" y="-30" type="line"/>
      <point x="1253" y="-21"/>
      <point x="1349" y="2"/>
      <point x="1361" y="59" type="curve" smooth="yes"/>
      <point x="1590" y="1115" type="line" smooth="yes"/>
      <point x="1594" y="1136"/>
    </contour>
  </outline>
</glyph>
<glyph name="RtSqrBrac" format="2">
  <advance width="630"/>
  <unicode hex="005D"/>
  <outline>
    <contour>
      <point x="65" y="-335" type="line"/>
      <point x="590" y="-335" type="line"/>
      <point x="590" y="1600" type="line"/>
      <point x="59" y="1600" type="line"/>
      <point x="49" y="1577"/>
      <point x="26" y="1510"/>
      <point x="20" y="1484" type="curve"/>
      <point x="65" y="1445" type="line"/>
      <point x="330" y="1445" type="line"/>
      <point x="330" y="-180" type="line"/>
      <point x="59" y="-180" type="line"/>
      <point x="51" y="-196"/>
      <point x="28" y="-266"/>
      <point x="22" y="-299" type="curve"/>
    </contour>
  </outline>
</glyph>
<glyph name="CircumAccent" format="2">
  <advance width="1008"/>
  <unicode hex="005E"/>
  <anchor x="504" y="1690" name="U"/>
  <outline>
    <contour>
      <point x="874" y="604"/>
      <point x="907" y="635" type="curve"/>
      <point x="555" y="1550" type="line"/>
      <point x="518" y="1532"/>
      <point x="455" y="1493"/>
      <point x="422" y="1462" type="curve"/>
      <point x="100" y="592" type="line"/>
      <point x="123" y="565" type="line"/>
      <point x="150" y="578"/>
      <point x="203" y="608"/>
      <point x="231" y="635" type="curve"/>
      <point x="481" y="1315" type="line"/>
      <point x="764" y="592" type="line"/>
      <point x="801" y="565" type="line"/>
      <point x="846" y="586"/>
    </contour>
  </outline>
</glyph>
<glyph name="GraveAccent" format="2">
  <advance width="653"/>
  <unicode hex="0060"/>
  <anchor x="327" y="1410" name="U"/>
  <outline>
    <contour>
      <point x="439" y="1072"/>
      <point x="456" y="1088" type="curve"/>
      <point x="246" y="1519" type="line"/>
      <point x="213" y="1517"/>
      <point x="26" y="1482"/>
      <point x="0" y="1475" type="curve"/>
      <point x="-32" y="1414" type="line"/>
      <point x="360" y="1037" type="line"/>
      <point x="383" y="1044"/>
    </contour>
  </outline>
</glyph>
<glyph name="LtnSmD" format="2">
  <advance width="1175"/>
  <unicode hex="0064"/>
  <anchor x="548" y="0" name="H"/>
  <anchor x="569" y="-100" name="L"/>
  <anchor x="1175" y="900" name="R"/>
  <anchor x="569" y="1690" name="U"/>
  <outline>
    <contour>
      <point x="1048" y="42"/>
      <point x="1171" y="124" type="curve"/>
      <point x="1138" y="207" type="line"/>
      <point x="1068" y="176"/>
      <point x="1054" y="178"/>
      <point x="1038" y="186" type="curve" smooth="yes"/>
      <point x="1022" y="194"/>
      <point x="1015" y="220"/>
      <point x="1015" y="314" type="curve" smooth="yes"/>
      <point x="1015" y="1510" type="line"/>
      <point x="974" y="1550" type="line"/>
      <point x="905" y="1528"/>
      <point x="769" y="1499"/>
      <point x="610" y="1485" type="curve"/>
      <point x="610" y="1406" type="line"/>
      <point x="741" y="1397"/>
      <point x="745" y="1381"/>
      <point x="745" y="1234" type="curve" smooth="yes"/>
      <point x="745" y="312" type="line" smooth="yes"/>
      <point x="745" y="97"/>
      <point x="776" y="-30"/>
      <point x="849" y="-30" type="curve" smooth="yes"/>
      <point x="886" y="-30"/>
    </contour>
    <contour>
      <point x="644" y="24"/>
      <point x="819" y="200" type="curve"/>
      <point x="816" y="210"/>
      <point x="789" y="289"/>
      <point x="772" y="297" type="curve"/>
      <point x="678" y="207"/>
      <point x="622" y="180"/>
      <point x="547" y="180" type="curve" smooth="yes"/>
      <point x="437" y="180"/>
      <point x="330" y="299"/>
      <point x="330" y="505" type="curve" smooth="yes"/>
      <point x="330" y="730"/>
      <point x="420" y="820"/>
      <point x="540" y="820" type="curve" smooth="yes"/>
      <point x="631" y="820"/>
      <point x="701" y="771"/>
      <point x="752" y="687" type="curve"/>
      <point x="795" y="713"/>
      <point x="811" y="770"/>
      <point x="811" y="850" type="curve"/>
      <point x="707" y="944"/>
      <point x="631" y="960"/>
      <point x="551" y="960" type="curve" smooth="yes"/>
      <point x="262" y="960"/>
      <point x="60" y="724"/>
      <point x="60" y="444" type="curve" smooth="yes"/>
      <point x="60" y="147"/>
      <point x="248" y="-30"/>
      <point x="436" y="-30" type="curve" smooth="yes"/>
      <point x="574" y="-30"/>
    </contour>
  </outline>
</glyph>
<glyph name="LtnSmJ" format="1">
  <advance width="610"/>
  <unicode hex="006A"/>
  <outline>
    <contour>
      <point x="500" y="1166"/>
      <point x="500" y="1261" type="curve" smooth="yes"/>
      <point x="500" y="1343"/>
      <point x="422" y="1376"/>
      <point x="345" y="1376" type="curve" smooth="yes"/>
      <point x="242" y="1376"/>
      <point x="160" y="1316"/>
      <point x="160" y="1220" type="curve" smooth="yes"/>
      <point x="160" y="1139"/>
      <point x="236" y="1104"/>
      <point x="315" y="1104" type="curve" smooth="yes"/>
      <point x="421" y="1104"/>
    </contour>
    <contour>
      <point x="455" y="109" type="curve"/>
      <point x="455" y="960" type="line"/>
      <point x="378" y="960" type="line"/>
      <point x="264" y="925"/>
      <point x="206" y="910"/>
      <point x="55" y="890" type="curve"/>
      <point x="55" y="810" type="line"/>
      <point x="194" y="795"/>
      <point x="185" y="777"/>
      <point x="185" y="640" type="curve" smooth="yes"/>
      <point x="185" y="43" type="line" smooth="yes"/>
      <point x="185" y="-250"/>
      <point x="132" y="-305"/>
      <point x="65" y="-305" type="curve" smooth="yes"/>
      <point x="15" y="-305"/>
      <point x="-79" y="-267"/>
      <point x="-123" y="-210" type="curve"/>
      <point x="-162" y="-228"/>
      <point x="-310" y="-348"/>
      <point x="-310" y="-391" type="curve" smooth="yes"/>
      <point x="-310" y="-423"/>
      <point x="-166" y="-490"/>
      <point x="-54" y="-490" type="curve" smooth="yes"/>
      <point x="27" y="-490"/>
      <point x="144" y="-437"/>
      <point x="215" y="-380" type="curve" smooth="yes"/>
      <point x="322" y="-294"/>
      <point x="455" y="-198"/>
    </contour>
    <contour>
      <point x="320" y="-600" type="move" name="L"/>
    </contour>
    <contour>
      <point x="320" y="1050" type="move" name="U"/>
    </contour>
  </outline>
</glyph>
<glyph name="LtnSmM" format="2">
  <advance width="1755"/>
  <unicode hex="006D"/>
  <anchor x="1460" y="0" name="H"/>
  <anchor x="890" y="-100" name="L"/>
  <anchor x="890" y="1050" name="U"/>
  <outline>
    <contour>
      <point x="1216" y="0" type="line"/>
      <point x="1736" y="0" type="line"/>
      <point x="1736" y="83" type="line"/>
      <point x="1631" y="110"/>
      <point x="1595" y="126"/>
      <point x="1595" y="144" type="curve" smooth="yes"/>
      <point x="1595" y="691" type="line" smooth="yes"/>
      <point x="1595" y="891"/>
      <point x="1480" y="960"/>
      <point x="1353" y="960" type="curve" smooth="yes"/>
      <point x="1255" y="960"/>
      <point x="1162" y="941"/>
      <point x="1000" y="824" type="curve"/>
      <point x="996" y="835" type="line" smooth="yes"/>
      <point x="976" y="890"/>
      <point x="915" y="960"/>
      <point x="788" y="960" type="curve" smooth="yes"/>
      <point x="692" y="960"/>
      <point x="600" y="943"/>
      <point x="441" y="826" type="curve"/>
      <point x="430" y="915" type="line"/>
      <point x="385" y="960" type="line"/>
      <point x="283" y="925"/>
      <point x="196" y="906"/>
      <point x="45" y="890" type="curve"/>
      <point x="45" y="810" type="line"/>
      <point x="174" y="795"/>
      <point x="175" y="787"/>
      <point x="175" y="681" type="curve" smooth="yes"/>
      <point x="175" y="144" type="line" smooth="yes"/>
      <point x="175" y="122"/>
      <point x="133" y="106"/>
      <point x="45" y="83" type="curve"/>
      <point x="45" y="0" type="line"/>
      <point x="565" y="0" type="line"/>
      <point x="565" y="83" type="line"/>
      <point x="479" y="101"/>
      <point x="445" y="124"/>
      <point x="445" y="144" type="curve" smooth="yes"/>
      <point x="445" y="693" type="line"/>
      <point x="538" y="751"/>
      <point x="607" y="770"/>
      <point x="657" y="770" type="curve" smooth="yes"/>
      <point x="729" y="770"/>
      <point x="750" y="757"/>
      <point x="750" y="593" type="curve" smooth="yes"/>
      <point x="750" y="144" type="line" smooth="yes"/>
      <point x="750" y="126"/>
      <point x="737" y="108"/>
      <point x="641" y="83" type="curve"/>
      <point x="641" y="0" type="line"/>
      <point x="1141" y="0" type="line"/>
      <point x="1141" y="83" type="line"/>
      <point x="1036" y="110"/>
      <point x="1020" y="126"/>
      <point x="1020" y="144" type="curve" smooth="yes"/>
      <point x="1020" y="693" type="line"/>
      <point x="1101" y="749"/>
      <point x="1174" y="770"/>
      <point x="1222" y="770" type="curve" smooth="yes"/>
      <point x="1292" y="770"/>
      <point x="1325" y="757"/>
      <point x="1325" y="593" type="curve" smooth="yes"/>
      <point x="1325" y="144" type="line" smooth="yes"/>
      <point x="1325" y="126"/>
      <point x="1312" y="108"/>
      <point x="1216" y="83" type="curve"/>
    </contour>
  </outline>
</glyph>
<glyph name="LtnSmP" format="2">
  <advance width="1165"/>
  <unicode hex="0070"/>
  <anchor x="313" y="-481" name="H"/>
  <anchor x="774" y="-100" name="L"/>
  <anchor x="1165" y="900" name="R"/>
  <anchor x="574" y="1050" name="U"/>
  <outline>
    <contour>
      <point x="713" y="-30" type="curve" smooth="yes"/>
      <point x="868" y="-30"/>
      <point x="1105" y="230"/>
      <point x="1105" y="502" type="curve" smooth="yes"/>
      <point x="1105" y="824"/>
      <point x="942" y="960"/>
      <point x="760" y="960" type="curve" smooth="yes"/>
      <point x="684" y="960"/>
      <point x="592" y="937"/>
      <point x="439" y="817" type="curve"/>
      <point x="430" y="915" type="line"/>
      <point x="385" y="960" type="line"/>
      <point x="277" y="923"/>
      <point x="217" y="910"/>
      <point x="45" y="890" type="curve"/>
      <point x="45" y="810" type="line"/>
      <point x="172" y="804"/>
      <point x="175" y="781"/>
      <point x="175" y="681" type="curve" smooth="yes"/>
      <point x="175" y="-335" type="line" smooth="yes"/>
      <point x="175" y="-358"/>
      <point x="133" y="-376"/>
      <point x="45" y="-397" type="curve"/>
      <point x="45" y="-480" type="line"/>
      <point x="614" y="-480" type="line"/>
      <point x="614" y="-397" type="line"/>
      <point x="489" y="-378"/>
      <point x="445" y="-356"/>
      <point x="445" y="-335" type="curve" smooth="yes"/>
      <point x="445" y="78" type="line"/>
      <point x="569" y="-4"/>
      <point x="635" y="-30"/>
    </contour>
    <contour>
      <point x="623" y="775" type="curve" smooth="yes"/>
      <point x="732" y="775"/>
      <point x="850" y="689"/>
      <point x="850" y="426" type="curve" smooth="yes"/>
      <point x="850" y="250"/>
      <point x="791" y="150"/>
      <point x="701" y="150" type="curve" smooth="yes"/>
      <point x="639" y="150"/>
      <point x="594" y="153"/>
      <point x="445" y="233" type="curve"/>
      <point x="445" y="700" type="line"/>
      <point x="562" y="772"/>
      <point x="575" y="775"/>
    </contour>
  </outline>
</glyph>
<glyph name="LtnSmU" format="2">
  <advance width="1175"/>
  <unicode hex="0075"/>
  <anchor x="532" y="0" name="H"/>
  <anchor x="588" y="-100" name="L"/>
  <anchor x="886" y="0" name="O"/>
  <anchor x="1275" y="900" name="R"/>
  <anchor x="588" y="1050" name="U"/>
  <outline>
    <contour>
      <point x="1071" y="58"/>
      <point x="1169" y="122" type="curve"/>
      <point x="1139" y="207" type="line"/>
      <point x="1071" y="178"/>
      <point x="1053" y="172"/>
      <point x="1038" y="184" type="curve" smooth="yes"/>
      <point x="1020" y="198"/>
      <point x="1015" y="212"/>
      <point x="1015" y="294" type="curve" smooth="yes"/>
      <point x="1015" y="911" type="line"/>
      <point x="975" y="960" type="line"/>
      <point x="872" y="936"/>
      <point x="761" y="916"/>
      <point x="615" y="904" type="curve"/>
      <point x="615" y="824" type="line"/>
      <point x="738" y="818"/>
      <point x="745" y="801"/>
      <point x="745" y="681" type="curve" smooth="yes"/>
      <point x="745" y="262" type="line"/>
      <point x="638" y="177"/>
      <point x="569" y="160"/>
      <point x="523" y="160" type="curve" smooth="yes"/>
      <point x="457" y="160"/>
      <point x="420" y="187"/>
      <point x="420" y="344" type="curve" smooth="yes"/>
      <point x="420" y="911" type="line"/>
      <point x="382" y="960" type="line"/>
      <point x="264" y="925"/>
      <point x="177" y="916"/>
      <point x="31" y="904" type="curve"/>
      <point x="31" y="824" type="line"/>
      <point x="149" y="812"/>
      <point x="150" y="808"/>
      <point x="150" y="681" type="curve" smooth="yes"/>
      <point x="150" y="279" type="line" smooth="yes"/>
      <point x="150" y="29"/>
      <point x="284" y="-30"/>
      <point x="408" y="-30" type="curve" smooth="yes"/>
      <point x="493" y="-30"/>
      <point x="579" y="-10"/>
      <point x="745" y="126" type="curve"/>
      <point x="763" y="-11"/>
      <point x="813" y="-30"/>
      <point x="860" y="-30" type="curve" smooth="yes"/>
      <point x="893" y="-30"/>
    </contour>
  </outline>
</glyph>
<glyph name="LtnSmV" format="2">
  <advance width="1050"/>
  <unicode hex="0076"/>
  <anchor x="514" y="0" name="H"/>
  <anchor x="536" y="-100" name="L"/>
  <anchor x="477" y="0" name="O"/>
  <anchor x="557" y="1050" name="U"/>
  <outline>
    <contour>
      <point x="961" y="828"/>
      <point x="1039" y="847" type="curve"/>
      <point x="1039" y="930" type="line"/>
      <point x="716" y="930" type="line"/>
      <point x="716" y="847" type="line"/>
      <point x="804" y="832"/>
      <point x="807" y="819"/>
      <point x="790" y="779" type="curve" smooth="yes"/>
      <point x="597" y="322" type="line"/>
      <point x="393" y="779" type="line" smooth="yes"/>
      <point x="374" y="821"/>
      <point x="383" y="834"/>
      <point x="486" y="847" type="curve"/>
      <point x="486" y="930" type="line"/>
      <point x="10" y="930" type="line"/>
      <point x="10" y="847" type="line"/>
      <point x="76" y="832"/>
      <point x="95" y="815"/>
      <point x="111" y="779" type="curve" smooth="yes"/>
      <point x="471" y="-30" type="line"/>
      <point x="546" y="-12"/>
      <point x="632" y="30"/>
      <point x="656" y="89" type="curve" smooth="yes"/>
      <point x="939" y="779" type="line" smooth="yes"/>
      <point x="955" y="817"/>
    </contour>
  </outline>
</glyph>
<glyph name="LtnSmW" format="2">
  <advance width="1476"/>
  <unicode hex="0077"/>
  <anchor x="745" y="-100" name="L"/>
  <anchor x="765" y="1050" name="U"/>
  <outline>
    <contour>
      <point x="1393" y="828"/>
      <point x="1465" y="847" type="curve"/>
      <point x="1465" y="930" type="line"/>
      <point x="1140" y="930" type="line"/>
      <point x="1140" y="847" type="line"/>
      <point x="1232" y="832"/>
      <point x="1227" y="815"/>
      <point x="1217" y="785" type="curve" smooth="yes"/>
      <point x="1083" y="367" type="line"/>
      <point x="834" y="930" type="line"/>
      <point x="818" y="930"/>
      <point x="761" y="930"/>
      <point x="761" y="930" type="curve"/>
      <point x="703" y="596" type="line"/>
      <point x="997" y="-30" type="line"/>
      <point x="1031" y="-22"/>
      <point x="1127" y="0"/>
      <point x="1144" y="59" type="curve"/>
      <point x="1365" y="785" type="line" smooth="yes"/>
      <point x="1375" y="816"/>
    </contour>
    <contour>
      <point x="534" y="59" type="curve"/>
      <point x="831" y="745" type="line"/>
      <point x="830" y="930" type="line"/>
      <point x="830" y="930"/>
      <point x="773" y="930"/>
      <point x="755" y="930" type="curve"/>
      <point x="518" y="367" type="line"/>
      <point x="381" y="785" type="line"/>
      <point x="372" y="810"/>
      <point x="376" y="834"/>
      <point x="486" y="847" type="curve"/>
      <point x="486" y="930" type="line"/>
      <point x="10" y="930" type="line"/>
      <point x="10" y="847" type="line"/>
      <point x="76" y="832"/>
      <point x="111" y="809"/>
      <point x="119" y="785" type="curve" smooth="yes"/>
      <point x="391" y="-30" type="line"/>
      <point x="426" y="-22"/>
      <point x="514" y="-2"/>
    </contour>
  </outline>
</glyph>
<glyph name="LtnSmY" format="2">
  <advance width="1050"/>
  <unicode hex="0079"/>
  <anchor x="830" y="-100" name="L"/>
  <anchor x="1050" y="900" name="R"/>
  <anchor x="548" y="1050" name="U"/>
  <outline>
    <contour>
      <point x="959" y="828"/>
      <point x="1039" y="847" type="curve"/>
      <point x="1039" y="930" type="line"/>
      <point x="715" y="930" type="line"/>
      <point x="715" y="847" type="line"/>
      <point x="794" y="834"/>
      <point x="796" y="819"/>
      <point x="780" y="779" type="curve" smooth="yes"/>
      <point x="596" y="322" type="line"/>
      <point x="403" y="779" type="line" smooth="yes"/>
      <point x="385" y="821"/>
      <point x="393" y="835"/>
      <point x="486" y="847" type="curve"/>
      <point x="486" y="930" type="line"/>
      <point x="10" y="930" type="line"/>
      <point x="10" y="847" type="line"/>
      <point x="76" y="832"/>
      <point x="106" y="815"/>
      <point x="121" y="779" type="curve" smooth="yes"/>
      <point x="459" y="-23" type="line"/>
      <point x="430" y="-92" type="line" smooth="yes"/>
      <point x="382" y="-207"/>
      <point x="330" y="-243"/>
      <point x="280" y="-260" type="curve" smooth="yes"/>
      <point x="231" y="-277"/>
      <point x="157" y="-268"/>
      <point x="90" y="-222" type="curve"/>
      <point x="47" y="-248"/>
      <point x="-67" y="-391"/>
      <point x="-67" y="-417" type="curve" smooth="yes"/>
      <point x="-67" y="-442"/>
      <point x="45" y="-490"/>
      <point x="147" y="-490" type="curve" smooth="yes"/>
      <point x="330" y="-490"/>
      <point x="480" y="-366"/>
      <point x="595" y="-72" type="curve" smooth="yes"/>
      <point x="929" y="779" type="line" smooth="yes"/>
      <point x="944" y="818"/>
    </contour>
  </outline>
</glyph>
<glyph name="LftCurlyBrac" format="2">
  <advance width="727"/>
  <unicode hex="007B"/>
  <outline>
    <contour>
      <point x="603" y="1448"/>
      <point x="707" y="1513" type="curve"/>
      <point x="661" y="1600" type="line"/>
      <point x="432" y="1510"/>
      <point x="247" y="1395"/>
      <point x="247" y="1215" type="curve" smooth="yes"/>
      <point x="247" y="1071"/>
      <point x="288" y="1005"/>
      <point x="288" y="863" type="curve" smooth="yes"/>
      <point x="288" y="763"/>
      <point x="226" y="694"/>
      <point x="80" y="653" type="curve"/>
      <point x="97" y="560" type="line"/>
      <point x="136" y="566"/>
      <point x="125" y="566"/>
      <point x="162" y="566" type="curve" smooth="yes"/>
      <point x="241" y="566"/>
      <point x="288" y="530"/>
      <point x="288" y="422" type="curve" smooth="yes"/>
      <point x="288" y="276"/>
      <point x="247" y="189"/>
      <point x="247" y="52" type="curve" smooth="yes"/>
      <point x="247" y="-141"/>
      <point x="401" y="-225"/>
      <point x="654" y="-315" type="curve"/>
      <point x="697" y="-214" type="line"/>
      <point x="556" y="-136"/>
      <point x="533" y="-74"/>
      <point x="533" y="23" type="curve" smooth="yes"/>
      <point x="533" y="136"/>
      <point x="574" y="245"/>
      <point x="574" y="385" type="curve" smooth="yes"/>
      <point x="574" y="532"/>
      <point x="507" y="629"/>
      <point x="374" y="653" type="curve"/>
      <point x="486" y="702"/>
      <point x="574" y="812"/>
      <point x="574" y="923" type="curve" smooth="yes"/>
      <point x="574" y="1058"/>
      <point x="533" y="1137"/>
      <point x="533" y="1272" type="curve" smooth="yes"/>
      <point x="533" y="1360"/>
    </contour>
  </outline>
</glyph>
<glyph name="RtCurlyBrac" format="2">
  <advance width="727"/>
  <unicode hex="007D"/>
  <outline>
    <contour>
      <point x="501" y="590"/>
      <point x="647" y="631" type="curve"/>
      <point x="630" y="724" type="line"/>
      <point x="591" y="718"/>
      <point x="602" y="718"/>
      <point x="565" y="718" type="curve" smooth="yes"/>
      <point x="486" y="718"/>
      <point x="439" y="754"/>
      <point x="439" y="862" type="curve" smooth="yes"/>
      <point x="439" y="1008"/>
      <point x="480" y="1095"/>
      <point x="480" y="1232" type="curve" smooth="yes"/>
      <point x="480" y="1425"/>
      <point x="326" y="1509"/>
      <point x="73" y="1599" type="curve"/>
      <point x="30" y="1498" type="line"/>
      <point x="171" y="1420"/>
      <point x="194" y="1358"/>
      <point x="194" y="1261" type="curve" smooth="yes"/>
      <point x="194" y="1148"/>
      <point x="153" y="1039"/>
      <point x="153" y="899" type="curve" smooth="yes"/>
      <point x="153" y="752"/>
      <point x="220" y="655"/>
      <point x="353" y="631" type="curve"/>
      <point x="241" y="582"/>
      <point x="153" y="472"/>
      <point x="153" y="361" type="curve" smooth="yes"/>
      <point x="153" y="226"/>
      <point x="194" y="147"/>
      <point x="194" y="12" type="curve" smooth="yes"/>
      <point x="194" y="-76"/>
      <point x="124" y="-164"/>
      <point x="20" y="-229" type="curve"/>
      <point x="66" y="-316" type="line"/>
      <point x="295" y="-226"/>
      <point x="480" y="-111"/>
      <point x="480" y="69" type="curve" smooth="yes"/>
      <point x="480" y="213"/>
      <point x="439" y="279"/>
      <point x="439" y="421" type="curve" smooth="yes"/>
      <point x="439" y="521"/>
    </contour>
  </outline>
</glyph>
<glyph name="Tilde" format="2">
  <advance width="999"/>
  <unicode hex="007E"/>
  <outline>
    <contour>
      <point x="915" y="653"/>
      <point x="970" y="784" type="curve"/>
      <point x="897" y="819" type="line"/>
      <point x="842" y="710"/>
      <point x="764" y="659"/>
      <point x="711" y="659" type="curve" smooth="yes"/>
      <point x="604" y="659"/>
      <point x="497" y="819"/>
      <point x="352" y="819" type="curve" smooth="yes"/>
      <point x="205" y="819"/>
      <point x="86" y="623"/>
      <point x="29" y="492" type="curve"/>
      <point x="102" y="455" type="line"/>
      <point x="158" y="566"/>
      <point x="231" y="617"/>
      <point x="286" y="617" type="curve" smooth="yes"/>
      <point x="401" y="617"/>
      <point x="535" y="457"/>
      <point x="647" y="457" type="curve" smooth="yes"/>
      <point x="794" y="457"/>
    </contour>
  </outline>
</glyph>
<glyph name="CentSgn" format="2">
  <advance width="1061"/>
  <unicode hex="00A2"/>
  <outline>
    <contour>
      <point x="611" y="-9"/>
      <point x="635" y="12" type="curve"/>
      <point x="635" y="1213" type="line"/>
      <point x="599" y="1245" type="line"/>
      <point x="558" y="1235"/>
      <point x="542" y="1217"/>
      <point x="505" y="1194" type="curve"/>
      <point x="505" y="-6" type="line"/>
      <point x="540" y="-41" type="line"/>
      <point x="572" y="-31"/>
    </contour>
    <contour>
      <point x="800" y="167"/>
      <point x="974" y="360" type="curve"/>
      <point x="905" y="441" type="line"/>
      <point x="774" y="311"/>
      <point x="702" y="282"/>
      <point x="611" y="282" type="curve" smooth="yes"/>
      <point x="451" y="282"/>
      <point x="326" y="387"/>
      <point x="326" y="616" type="curve" smooth="yes"/>
      <point x="326" y="864"/>
      <point x="458" y="941"/>
      <point x="574" y="941" type="curve" smooth="yes"/>
      <point x="712" y="941"/>
      <point x="783" y="835"/>
      <point x="808" y="788" type="curve"/>
      <point x="883" y="768" type="line"/>
      <point x="907" y="802"/>
      <point x="976" y="969"/>
      <point x="970" y="999" type="curve"/>
      <point x="925" y="1049"/>
      <point x="752" y="1079"/>
      <point x="664" y="1079" type="curve" smooth="yes"/>
      <point x="316" y="1079"/>
      <point x="84" y="870"/>
      <point x="84" y="586" type="curve" smooth="yes"/>
      <point x="84" y="289"/>
      <point x="347" y="129"/>
      <point x="539" y="129" type="curve" smooth="yes"/>
      <point x="688" y="129"/>
    </contour>
  </outline>
</glyph>
<glyph name="PoundSgn" format="2">
  <advance width="1061"/>
  <unicode hex="00A3"/>
  <outline>
    <contour>
      <point x="979" y="1097"/>
      <point x="981" y="1165" type="curve"/>
      <point x="857" y="1228"/>
      <point x="734" y="1235"/>
      <point x="664" y="1235" type="curve" smooth="yes"/>
      <point x="347" y="1235"/>
      <point x="147" y="955"/>
      <point x="177" y="578" type="curve" smooth="yes"/>
      <point x="206" y="211"/>
      <point x="172" y="154"/>
      <point x="44" y="49" type="curve"/>
      <point x="87" y="-30" type="line"/>
      <point x="283" y="95"/>
      <point x="788" y="-99"/>
      <point x="967" y="0" type="curve"/>
      <point x="977" y="39"/>
      <point x="1008" y="209"/>
      <point x="1018" y="324" type="curve"/>
      <point x="935" y="352" type="line"/>
      <point x="878" y="196"/>
      <point x="832" y="154"/>
      <point x="709" y="151" type="curve" smooth="yes"/>
      <point x="561" y="147"/>
      <point x="560" y="166"/>
      <point x="378" y="151" type="curve"/>
      <point x="466" y="275"/>
      <point x="498" y="408"/>
      <point x="478" y="595" type="curve" smooth="yes"/>
      <point x="427" y="1083"/>
      <point x="575" y="1106"/>
      <point x="650" y="1106" type="curve" smooth="yes"/>
      <point x="766" y="1106"/>
      <point x="836" y="995"/>
      <point x="855" y="830" type="curve"/>
      <point x="942" y="830" type="line"/>
      <point x="958" y="881"/>
    </contour>
    <contour>
      <point x="755" y="516" type="line"/>
      <point x="800" y="614" type="line"/>
      <point x="765" y="647" type="line"/>
      <point x="76" y="647" type="line"/>
      <point x="68" y="626"/>
      <point x="40" y="571"/>
      <point x="34" y="551" type="curve"/>
      <point x="66" y="516" type="line"/>
    </contour>
  </outline>
</glyph>
<glyph name="CurrSgn" format="2">
  <advance width="1061"/>
  <unicode hex="00A4"/>
  <outline>
    <contour>
      <point x="321" y="723"/>
      <point x="367" y="769" type="curve" smooth="yes"/>
      <point x="413" y="815"/>
      <point x="472" y="837"/>
      <point x="532" y="837" type="curve" smooth="yes"/>
      <point x="593" y="837"/>
      <point x="649" y="815"/>
      <point x="696" y="769" type="curve" smooth="yes"/>
      <point x="742" y="723"/>
      <point x="766" y="662"/>
      <point x="766" y="602" type="curve" smooth="yes"/>
      <point x="766" y="542"/>
      <point x="742" y="482"/>
      <point x="697" y="436" type="curve" smooth="yes"/>
      <point x="651" y="389"/>
      <point x="593" y="367"/>
      <point x="532" y="367" type="curve" smooth="yes"/>
      <point x="472" y="367"/>
      <point x="413" y="389"/>
      <point x="365" y="437" type="curve" smooth="yes"/>
      <point x="319" y="482"/>
      <point x="297" y="541"/>
      <point x="297" y="601" type="curve" smooth="yes"/>
      <point x="297" y="661"/>
    </contour>
    <contour>
      <point x="346" y="935"/>
      <point x="273" y="863" type="curve" smooth="yes"/>
      <point x="200" y="790"/>
      <point x="164" y="695"/>
      <point x="164" y="599" type="curve" smooth="yes"/>
      <point x="164" y="506"/>
      <point x="199" y="413"/>
      <point x="270" y="342" type="curve" smooth="yes"/>
      <point x="343" y="269"/>
      <point x="437" y="234"/>
      <point x="532" y="234" type="curve" smooth="yes"/>
      <point x="628" y="234"/>
      <point x="721" y="269"/>
      <point x="791" y="340" type="curve" smooth="yes"/>
      <point x="862" y="412"/>
      <point x="899" y="506"/>
      <point x="899" y="599" type="curve" smooth="yes"/>
      <point x="899" y="695"/>
      <point x="861" y="791"/>
      <point x="789" y="863" type="curve" smooth="yes"/>
      <point x="717" y="935"/>
      <point x="626" y="972"/>
      <point x="532" y="972" type="curve" smooth="yes"/>
      <point x="439" y="972"/>
    </contour>
    <contour>
      <point x="378" y="357" type="line"/>
      <point x="335" y="450" type="line"/>
      <point x="287" y="447" type="line"/>
      <point x="80" y="240" type="line"/>
      <point x="92" y="210"/>
      <point x="109" y="178"/>
      <point x="123" y="153" type="curve"/>
      <point x="169" y="150" type="line"/>
    </contour>
    <contour>
      <point x="279" y="765" type="line"/>
      <point x="371" y="808" type="line"/>
      <point x="368" y="856" type="line"/>
      <point x="171" y="1053" type="line"/>
      <point x="141" y="1040"/>
      <point x="109" y="1024"/>
      <point x="84" y="1010" type="curve"/>
      <point x="81" y="963" type="line"/>
    </contour>
    <contour>
      <point x="889" y="151" type="line"/>
      <point x="981" y="193" type="line"/>
      <point x="980" y="241" type="line"/>
      <point x="781" y="440" type="line"/>
      <point x="753" y="427"/>
      <point x="719" y="410"/>
      <point x="694" y="396" type="curve"/>
      <point x="691" y="349" type="line"/>
    </contour>
    <contour>
      <point x="978" y="961" type="line"/>
      <point x="936" y="1053" type="line"/>
      <point x="889" y="1052" type="line"/>
      <point x="680" y="843" type="line"/>
      <point x="693" y="815"/>
      <point x="710" y="781"/>
      <point x="724" y="756" type="curve"/>
      <point x="771" y="753" type="line"/>
    </contour>
  </outline>
</glyph>
<glyph name="YenSgn" format="2">
  <advance width="1061"/>
  <unicode hex="00A5"/>
  <outline>
    <contour>
      <point x="226" y="0" type="line"/>
      <point x="816" y="0" type="line"/>
      <point x="816" y="83" type="line"/>
      <point x="691" y="108"/>
      <point x="660" y="138"/>
      <point x="660" y="155" type="curve" smooth="yes"/>
      <point x="660" y="372" type="line"/>
      <point x="910" y="372" type="line"/>
      <point x="950" y="479" type="line"/>
      <point x="925" y="502" type="line"/>
      <point x="660" y="502" type="line"/>
      <point x="660" y="509" type="line"/>
      <point x="944" y="1055" type="line"/>
      <point x="963" y="1089"/>
      <point x="999" y="1104"/>
      <point x="1090" y="1121" type="curve"/>
      <point x="1090" y="1204" type="line"/>
      <point x="664" y="1204" type="line"/>
      <point x="664" y="1121" type="line"/>
      <point x="767" y="1108"/>
      <point x="795" y="1090"/>
      <point x="775" y="1055" type="curve"/>
      <point x="590" y="693" type="line"/>
      <point x="497" y="885"/>
      <point x="409" y="1033"/>
      <point x="311" y="1165" type="curve" smooth="yes"/>
      <point x="288" y="1196"/>
      <point x="242" y="1214"/>
      <point x="203" y="1214" type="curve" smooth="yes"/>
      <point x="148" y="1214"/>
      <point x="-8" y="1194"/>
      <point x="-86" y="1183" type="curve"/>
      <point x="-82" y="1100" type="line"/>
      <point x="29" y="1100"/>
      <point x="49" y="1085"/>
      <point x="72" y="1055" type="curve" smooth="yes"/>
      <point x="165" y="930"/>
      <point x="287" y="721"/>
      <point x="380" y="512" type="curve"/>
      <point x="380" y="502" type="line"/>
      <point x="102" y="502" type="line"/>
      <point x="94" y="481"/>
      <point x="71" y="416"/>
      <point x="65" y="396" type="curve"/>
      <point x="87" y="372" type="line"/>
      <point x="380" y="372" type="line"/>
      <point x="380" y="155" type="line" smooth="yes"/>
      <point x="380" y="136"/>
      <point x="347" y="108"/>
      <point x="226" y="83" type="curve"/>
    </contour>
  </outline>
</glyph>
<glyph name="BrokenBar" format="2">
  <advance width="500"/>
  <unicode hex="00A6"/>
  <outline>
    <contour>
      <point x="319" y="756"/>
      <point x="346" y="777" type="curve"/>
      <point x="346" y="1638" type="line"/>
      <point x="299" y="1670" type="line"/>
      <point x="258" y="1660"/>
      <point x="193" y="1633"/>
      <point x="154" y="1611" type="curve"/>
      <point x="154" y="748" type="line"/>
      <point x="201" y="716" type="line"/>
      <point x="234" y="726"/>
    </contour>
    <contour>
      <point x="319" y="-365"/>
      <point x="346" y="-344" type="curve"/>
      <point x="346" y="506" type="line"/>
      <point x="299" y="541" type="line"/>
      <point x="258" y="528"/>
      <point x="193" y="502"/>
      <point x="154" y="479" type="curve"/>
      <point x="154" y="-373" type="line"/>
      <point x="201" y="-406" type="line"/>
      <point x="234" y="-395"/>
    </contour>
  </outline>
</glyph>
<glyph name="SectionSgn" format="2">
  <advance width="1046"/>
  <unicode hex="00A7"/>
  <outline>
    <contour>
      <point x="472" y="-30" type="curve" smooth="yes"/>
      <point x="600" y="-30"/>
      <point x="886" y="0"/>
      <point x="886" y="283" type="curve" smooth="yes"/>
      <point x="886" y="432"/>
      <point x="717" y="510"/>
      <point x="601" y="569" type="curve"/>
      <point x="425" y="667"/>
      <point x="340" y="714"/>
      <point x="340" y="830" type="curve" smooth="yes"/>
      <point x="340" y="903"/>
      <point x="420" y="987"/>
      <point x="492" y="990" type="curve"/>
      <point x="395" y="1092" type="line"/>
      <point x="240" y="1065"/>
      <point x="100" y="919"/>
      <point x="100" y="780" type="curve" smooth="yes"/>
      <point x="100" y="593"/>
      <point x="257" y="486"/>
      <point x="368" y="429" type="curve" smooth="yes"/>
      <point x="490" y="365"/>
      <point x="636" y="304"/>
      <point x="636" y="197" type="curve" smooth="yes"/>
      <point x="636" y="123"/>
      <point x="598" y="98"/>
      <point x="502" y="98" type="curve" smooth="yes"/>
      <point x="394" y="98"/>
      <point x="298" y="190"/>
      <point x="262" y="342" type="curve"/>
      <point x="169" y="353" type="line"/>
      <point x="140" y="243"/>
      <point x="144" y="51"/>
      <point x="162" y="43" type="curve"/>
      <point x="251" y="-6"/>
      <point x="379" y="-30"/>
    </contour>
    <contour>
      <point x="714" y="336" type="line"/>
      <point x="828" y="370"/>
      <point x="946" y="498"/>
      <point x="946" y="673" type="curve" smooth="yes"/>
      <point x="946" y="882"/>
      <point x="787" y="980"/>
      <point x="671" y="1039" type="curve" smooth="yes"/>
      <point x="520" y="1118"/>
      <point x="410" y="1154"/>
      <point x="410" y="1240" type="curve" smooth="yes"/>
      <point x="410" y="1295"/>
      <point x="453" y="1330"/>
      <point x="531" y="1330" type="curve" smooth="yes"/>
      <point x="626" y="1330"/>
      <point x="688" y="1256"/>
      <point x="711" y="1131" type="curve"/>
      <point x="790" y="1123" type="line"/>
      <point x="827" y="1174"/>
      <point x="867" y="1350"/>
      <point x="850" y="1363" type="curve" smooth="yes"/>
      <point x="786" y="1410"/>
      <point x="661" y="1440"/>
      <point x="537" y="1440" type="curve" smooth="yes"/>
      <point x="346" y="1440"/>
      <point x="160" y="1336"/>
      <point x="160" y="1170" type="curve" smooth="yes"/>
      <point x="160" y="1043"/>
      <point x="327" y="959"/>
      <point x="438" y="899" type="curve" smooth="yes"/>
      <point x="624" y="799"/>
      <point x="706" y="744"/>
      <point x="706" y="607" type="curve" smooth="yes"/>
      <point x="706" y="524"/>
      <point x="638" y="447"/>
      <point x="571" y="440" type="curve"/>
    </contour>
  </outline>
</glyph>
<glyph name="Diaer" format="2">
  <advance width="801"/>
  <unicode hex="00A8"/>
  <anchor x="402" y="1410" name="U"/>
  <outline>
    <contour>
      <point x="337" y="1165"/>
      <point x="337" y="1270" type="curve" smooth="yes"/>
      <point x="337" y="1357"/>
      <point x="287" y="1400"/>
      <point x="207" y="1400" type="curve" smooth="yes"/>
      <point x="119" y="1400"/>
      <point x="37" y="1316"/>
      <point x="37" y="1210" type="curve" smooth="yes"/>
      <point x="37" y="1125"/>
      <point x="84" y="1080"/>
      <point x="167" y="1080" type="curve" smooth="yes"/>
      <point x="259" y="1080"/>
    </contour>
    <contour>
      <point x="767" y="1165"/>
      <point x="767" y="1270" type="curve" smooth="yes"/>
      <point x="767" y="1357"/>
      <point x="717" y="1400"/>
      <point x="637" y="1400" type="curve" smooth="yes"/>
      <point x="549" y="1400"/>
      <point x="467" y="1316"/>
      <point x="467" y="1210" type="curve" smooth="yes"/>
      <point x="467" y="1125"/>
      <point x="514" y="1080"/>
      <point x="597" y="1080" type="curve" smooth="yes"/>
      <point x="689" y="1080"/>
    </contour>
  </outline>
</glyph>
<glyph name="FemOrdIndicator" format="2">
  <advance width="577"/>
  <unicode hex="00AA"/>
  <outline>
    <contour>
      <point x="501" y="770"/>
      <point x="562" y="811" type="curve"/>
      <point x="548" y="856" type="line"/>
      <point x="511" y="841"/>
      <point x="501" y="838"/>
      <point x="494" y="842" type="curve"/>
      <point x="486" y="851"/>
      <point x="480" y="865"/>
      <point x="480" y="902" type="curve" smooth="yes"/>
      <point x="480" y="1098" type="line" smooth="yes"/>
      <point x="480" y="1236"/>
      <point x="428" y="1271"/>
      <point x="332" y="1271" type="curve" smooth="yes"/>
      <point x="212" y="1271"/>
      <point x="90" y="1212"/>
      <point x="48" y="1118" type="curve"/>
      <point x="61" y="1089" type="line"/>
      <point x="79" y="1085"/>
      <point x="218" y="1122"/>
      <point x="215" y="1134" type="curve" smooth="yes"/>
      <point x="205" y="1180"/>
      <point x="235" y="1197"/>
      <point x="274" y="1197" type="curve" smooth="yes"/>
      <point x="336" y="1197"/>
      <point x="337" y="1153"/>
      <point x="337" y="1071" type="curve" smooth="yes"/>
      <point x="337" y="906" type="line" smooth="yes"/>
      <point x="337" y="759"/>
      <point x="357" y="731"/>
      <point x="381" y="731" type="curve" smooth="yes"/>
      <point x="432" y="731"/>
    </contour>
    <contour>
      <point x="284" y="994" type="curve" smooth="yes"/>
      <point x="400" y="1018" type="line"/>
      <point x="400" y="1073" type="line"/>
      <point x="228" y="1039" type="line" smooth="yes"/>
      <point x="91" y="1012"/>
      <point x="39" y="927"/>
      <point x="39" y="845" type="curve" smooth="yes"/>
      <point x="39" y="761"/>
      <point x="109" y="731"/>
      <point x="162" y="731" type="curve" smooth="yes"/>
      <point x="211" y="731"/>
      <point x="277" y="749"/>
      <point x="346" y="821" type="curve"/>
      <point x="342" y="887" type="line"/>
      <point x="287" y="838"/>
      <point x="261" y="831"/>
      <point x="236" y="831" type="curve" smooth="yes"/>
      <point x="217" y="831"/>
      <point x="190" y="844"/>
      <point x="190" y="889" type="curve" smooth="yes"/>
      <point x="190" y="946"/>
      <point x="233" y="983"/>
    </contour>
    <contour>
      <point x="41" y="586" type="line"/>
      <point x="535" y="586" type="line"/>
      <point x="535" y="679" type="line"/>
      <point x="41" y="679" type="line"/>
    </contour>
  </outline>
</glyph>
<glyph name="Macron" format="2">
  <advance width="1010"/>
  <unicode hex="00AF"/>
  <outline>
    <contour>
      <point x="952" y="1286"/>
      <point x="960" y="1315" type="curve"/>
      <point x="925" y="1349" type="line"/>
      <point x="111" y="1349" type="line"/>
      <point x="99" y="1323"/>
      <point x="57" y="1238"/>
      <point x="50" y="1209" type="curve"/>
      <point x="85" y="1175" type="line"/>
      <point x="899" y="1175" type="line"/>
      <point x="909" y="1197"/>
    </contour>
  </outline>
</glyph>
<glyph name="SupTwo" format="2">
  <advance width="742"/>
  <unicode hex="00B2"/>
  <anchor x="371" y="560" name="L"/>
  <anchor x="371" y="1442" name="U"/>
  <outline>
    <contour>
      <point x="659" y="620" type="line"/>
      <point x="669" y="846" type="line"/>
      <point x="606" y="859" type="line"/>
      <point x="606" y="859"/>
      <point x="598" y="735"/>
      <point x="535" y="735" type="curve" smooth="yes"/>
      <point x="260" y="735" type="line"/>
      <point x="563" y="1017"/>
      <point x="660" y="1107"/>
      <point x="660" y="1215" type="curve" smooth="yes"/>
      <point x="660" y="1309"/>
      <point x="564" y="1361"/>
      <point x="410" y="1361" type="curve" smooth="yes"/>
      <point x="225" y="1361"/>
      <point x="74" y="1258"/>
      <point x="74" y="1175" type="curve"/>
      <point x="99" y="1127" type="line"/>
      <point x="142" y="1131"/>
      <point x="241" y="1153"/>
      <point x="273" y="1168" type="curve"/>
      <point x="258" y="1229"/>
      <point x="286" y="1289"/>
      <point x="362" y="1289" type="curve" smooth="yes"/>
      <point x="432" y="1289"/>
      <point x="461" y="1240"/>
      <point x="461" y="1174" type="curve" smooth="yes"/>
      <point x="461" y="1090"/>
      <point x="381" y="993"/>
      <point x="55" y="664" type="curve"/>
      <point x="75" y="620" type="line"/>
    </contour>
  </outline>
</glyph>
<glyph name="SupThree" format="2">
  <advance width="742"/>
  <unicode hex="00B3"/>
  <anchor x="371" y="560" name="L"/>
  <anchor x="371" y="1442" name="U"/>
  <outline>
    <contour>
      <point x="662" y="714"/>
      <point x="662" y="849" type="curve" smooth="yes"/>
      <point x="662" y="946"/>
      <point x="589" y="1029"/>
      <point x="472" y="1039" type="curve"/>
      <point x="560" y="1062"/>
      <point x="622" y="1135"/>
      <point x="622" y="1195" type="curve" smooth="yes"/>
      <point x="622" y="1276"/>
      <point x="554" y="1361"/>
      <point x="373" y="1361" type="curve" smooth="yes"/>
      <point x="192" y="1361"/>
      <point x="74" y="1254"/>
      <point x="74" y="1187" type="curve"/>
      <point x="99" y="1144" type="line"/>
      <point x="155" y="1149"/>
      <point x="232" y="1171"/>
      <point x="273" y="1192" type="curve"/>
      <point x="253" y="1247"/>
      <point x="293" y="1289"/>
      <point x="333" y="1289" type="curve" smooth="yes"/>
      <point x="398" y="1289"/>
      <point x="419" y="1239"/>
      <point x="419" y="1184" type="curve" smooth="yes"/>
      <point x="419" y="1135"/>
      <point x="396" y="1067"/>
      <point x="240" y="1032" type="curve"/>
      <point x="253" y="972" type="line"/>
      <point x="282" y="976"/>
      <point x="289" y="976"/>
      <point x="315" y="976" type="curve" smooth="yes"/>
      <point x="370" y="976"/>
      <point x="458" y="943"/>
      <point x="458" y="835" type="curve" smooth="yes"/>
      <point x="458" y="733"/>
      <point x="390" y="692"/>
      <point x="310" y="692" type="curve" smooth="yes"/>
      <point x="240" y="692"/>
      <point x="170" y="714"/>
      <point x="85" y="768" type="curve"/>
      <point x="55" y="703" type="line"/>
      <point x="139" y="634"/>
      <point x="260" y="602"/>
      <point x="333" y="602" type="curve" smooth="yes"/>
      <point x="525" y="602"/>
    </contour>
  </outline>
</glyph>
<glyph name="AcuteAccent" format="2">
  <advance width="653"/>
  <unicode hex="00B4"/>
  <anchor x="327" y="1410" name="U"/>
  <outline>
    <contour>
      <point x="294" y="1037" type="curve"/>
      <point x="689" y="1417" type="line"/>
      <point x="656" y="1476" type="line"/>
      <point x="626" y="1485"/>
      <point x="432" y="1517"/>
      <point x="401" y="1519" type="curve"/>
      <point x="197" y="1085" type="line"/>
      <point x="212" y="1073"/>
      <point x="270" y="1041"/>
    </contour>
  </outline>
</glyph>
<glyph name="MiddleDot" format="2">
  <advance width="459"/>
  <unicode hex="00B7"/>
  <outline>
    <contour>
      <point x="409" y="591"/>
      <point x="409" y="703" type="curve" smooth="yes"/>
      <point x="409" y="805"/>
      <point x="326" y="846"/>
      <point x="250" y="846" type="curve" smooth="yes"/>
      <point x="145" y="846"/>
      <point x="51" y="782"/>
      <point x="51" y="672" type="curve" smooth="yes"/>
      <point x="51" y="570"/>
      <point x="130" y="530"/>
      <point x="211" y="530" type="curve" smooth="yes"/>
      <point x="319" y="530"/>
    </contour>
  </outline>
</glyph>
<glyph name="Cedilla" format="2">
  <advance width="469"/>
  <unicode hex="00B8"/>
  <anchor x="243" y="-600" name="L"/>
  <outline>
    <contour>
      <point x="469" y="-328"/>
      <point x="469" y="-229" type="curve" smooth="yes"/>
      <point x="469" y="-154"/>
      <point x="412" y="-104"/>
      <point x="299" y="-84" type="curve"/>
      <point x="351" y="50" type="line"/>
      <point x="213" y="52" type="line"/>
      <point x="142" y="-171"/>
      <point x="117" y="-199"/>
      <point x="117" y="-199" type="curve"/>
      <point x="168" y="-203"/>
      <point x="201" y="-221"/>
      <point x="201" y="-266" type="curve" smooth="yes"/>
      <point x="201" y="-309"/>
      <point x="157" y="-350"/>
      <point x="49" y="-365" type="curve"/>
      <point x="91" y="-444" type="line"/>
      <point x="296" y="-425"/>
    </contour>
  </outline>
</glyph>
<glyph name="SupOne" format="2">
  <advance width="742"/>
  <unicode hex="00B9"/>
  <anchor x="371" y="560" name="L"/>
  <anchor x="371" y="1442" name="U"/>
  <outline>
    <contour>
      <point x="105" y="620" type="line"/>
      <point x="658" y="620" type="line"/>
      <point x="658" y="676" type="line"/>
      <point x="517" y="691"/>
      <point x="483" y="714"/>
      <point x="483" y="730" type="curve" smooth="yes"/>
      <point x="483" y="1340" type="line"/>
      <point x="450" y="1367" type="line"/>
      <point x="381" y="1342"/>
      <point x="164" y="1278"/>
      <point x="83" y="1265" type="curve"/>
      <point x="105" y="1210" type="line"/>
      <point x="228" y="1233"/>
      <point x="270" y="1229"/>
      <point x="281" y="1219" type="curve" smooth="yes"/>
      <point x="293" y="1208"/>
      <point x="294" y="1192"/>
      <point x="294" y="1160" type="curve" smooth="yes"/>
      <point x="294" y="730" type="line" smooth="yes"/>
      <point x="294" y="713"/>
      <point x="251" y="691"/>
      <point x="105" y="676" type="curve"/>
    </contour>
  </outline>
</glyph>
<glyph name="RtPtngDblAngQuotMrk" format="2">
  <advance width="1074"/>
  <unicode hex="00BB"/>
  <outline>
    <contour>
      <point x="592" y="427" type="line"/>
      <point x="594" y="500" type="line"/>
      <point x="183" y="933" type="line"/>
      <point x="120" y="883" type="line"/>
      <point x="311" y="463" type="line"/>
      <point x="121" y="47" type="line"/>
      <point x="183" y="-3" type="line"/>
    </contour>
    <contour>
      <point x="1012" y="427" type="line"/>
      <point x="1014" y="500" type="line"/>
      <point x="603" y="933" type="line"/>
      <point x="540" y="883" type="line"/>
      <point x="731" y="463" type="line"/>
      <point x="541" y="47" type="line"/>
      <point x="603" y="-3" type="line"/>
    </contour>
  </outline>
</glyph>
<glyph name="VulgFracOneHalf" format="2">
  <advance width="1300"/>
  <unicode hex="00BD"/>
  <outline>
    <contour>
      <point x="306" y="3" type="curve"/>
      <point x="1234" y="1207" type="line"/>
      <point x="1209" y="1235" type="line"/>
      <point x="1180" y="1229"/>
      <point x="1096" y="1214"/>
      <point x="1070" y="1203" type="curve"/>
      <point x="138" y="0" type="line"/>
      <point x="163" y="-30" type="line"/>
      <point x="199" y="-21"/>
      <point x="275" y="-12"/>
    </contour>
    <contour>
      <point x="85" y="637" type="line"/>
      <point x="536" y="637" type="line"/>
      <point x="536" y="682" type="line"/>
      <point x="421" y="694"/>
      <point x="393" y="712"/>
      <point x="393" y="725" type="curve" smooth="yes"/>
      <point x="393" y="1213" type="line"/>
      <point x="367" y="1235" type="line"/>
      <point x="310" y="1215"/>
      <point x="133" y="1164"/>
      <point x="68" y="1153" type="curve"/>
      <point x="85" y="1109" type="line"/>
      <point x="186" y="1127"/>
      <point x="220" y="1124"/>
      <point x="229" y="1116" type="curve" smooth="yes"/>
      <point x="238" y="1107"/>
      <point x="239" y="1094"/>
      <point x="239" y="1069" type="curve" smooth="yes"/>
      <point x="239" y="725" type="line" smooth="yes"/>
      <point x="239" y="711"/>
      <point x="205" y="694"/>
      <point x="85" y="682" type="curve"/>
    </contour>
    <contour>
      <point x="1227" y="0" type="line"/>
      <point x="1236" y="181" type="line"/>
      <point x="1185" y="192" type="line"/>
      <point x="1185" y="192"/>
      <point x="1178" y="92"/>
      <point x="1126" y="92" type="curve" smooth="yes"/>
      <point x="902" y="92" type="line"/>
      <point x="1149" y="317"/>
      <point x="1227" y="389"/>
      <point x="1227" y="476" type="curve" smooth="yes"/>
      <point x="1227" y="552"/>
      <point x="1150" y="593"/>
      <point x="1024" y="593" type="curve" smooth="yes"/>
      <point x="874" y="593"/>
      <point x="751" y="510"/>
      <point x="751" y="444" type="curve"/>
      <point x="772" y="406" type="line"/>
      <point x="807" y="408"/>
      <point x="888" y="427"/>
      <point x="914" y="439" type="curve"/>
      <point x="901" y="487"/>
      <point x="924" y="533"/>
      <point x="986" y="533" type="curve" smooth="yes"/>
      <point x="1043" y="533"/>
      <point x="1066" y="496"/>
      <point x="1066" y="444" type="curve" smooth="yes"/>
      <point x="1066" y="376"/>
      <point x="1001" y="299"/>
      <point x="735" y="36" type="curve"/>
      <point x="752" y="0" type="line"/>
    </contour>
  </outline>
</glyph>
<glyph name="LtnCapAAcute" format="1">
  <advance width="1309"/>
  <unicode hex="00C1"/>
  <outline>
    <component base="LtnCapA"/>
    <component base="CombAcute.LP" xOffset="1220" yOffset="320"/>
    <contour>
      <point x="644" y="0" type="move" name="H"/>
    </contour>
    <contour>
      <point x="644" y="-100" type="move" name="L"/>
    </contour>
    <contour>
      <point x="1032" y="0" type="move" name="O"/>
    </contour>
    <contour>
      <point x="644" y="1690" type="move" name="U"/>
    </contour>
  </outline>
</glyph>
<glyph name="LtnCapAe" format="2">
  <advance width="1675"/>
  <unicode hex="00C6"/>
  <anchor x="907" y="-100" name="L"/>
  <anchor x="982" y="1370" name="U"/>
  <outline>
    <contour>
      <point x="1621" y="209"/>
      <point x="1633" y="324" type="curve"/>
      <point x="1551" y="352" type="line"/>
      <point x="1494" y="196"/>
      <point x="1448" y="130"/>
      <point x="1325" y="130" type="curve" smooth="yes"/>
      <point x="1241" y="130" type="line" smooth="yes"/>
      <point x="1065" y="130"/>
      <point x="1034" y="155"/>
      <point x="1034" y="194" type="curve" smooth="yes"/>
      <point x="1034" y="615" type="line"/>
      <point x="1275" y="615" type="line" smooth="yes"/>
      <point x="1246" y="615"/>
      <point x="1335" y="599"/>
      <point x="1374" y="560" type="curve"/>
      <point x="1399" y="584"/>
      <point x="1443" y="660"/>
      <point x="1466" y="697" type="curve"/>
      <point x="1429" y="735" type="line"/>
      <point x="1034" y="735" type="line"/>
      <point x="1034" y="1130" type="line"/>
      <point x="1360" y="1130" type="line" smooth="yes"/>
      <point x="1412" y="1130"/>
      <point x="1436" y="1053"/>
      <point x="1442" y="930" type="curve"/>
      <point x="1527" y="930" type="line"/>
      <point x="1546" y="981"/>
      <point x="1564" y="1157"/>
      <point x="1568" y="1225" type="curve"/>
      <point x="1528" y="1260" type="line"/>
      <point x="1079" y="1260" type="line"/>
      <point x="911" y="1260" type="line"/>
      <point x="381" y="1260" type="line"/>
      <point x="381" y="1177" type="line"/>
      <point x="512" y="1152"/>
      <point x="540" y="1138"/>
      <point x="521" y="1093" type="curve"/>
      <point x="141" y="151" type="line"/>
      <point x="124" y="112"/>
      <point x="79" y="94"/>
      <point x="0" y="83" type="curve"/>
      <point x="0" y="0" type="line"/>
      <point x="416" y="0" type="line"/>
      <point x="416" y="83" type="line"/>
      <point x="321" y="95"/>
      <point x="298" y="112"/>
      <point x="315" y="151" type="curve"/>
      <point x="503" y="615" type="line"/>
      <point x="754" y="615" type="line"/>
      <point x="754" y="144" type="line" smooth="yes"/>
      <point x="754" y="126"/>
      <point x="711" y="101"/>
      <point x="621" y="83" type="curve"/>
      <point x="621" y="0" type="line"/>
      <point x="1593" y="0" type="line"/>
      <point x="1603" y="39"/>
    </contour>
    <contour>
      <point x="754" y="1108" type="curve" smooth="yes"/>
      <point x="754" y="735" type="line"/>
      <point x="549" y="735" type="line"/>
      <point x="696" y="1091" type="line" smooth="yes"/>
      <point x="715" y="1137"/>
      <point x="754" y="1137"/>
    </contour>
  </outline>
</glyph>
<glyph name="LtnCapECircum" format="1">
  <advance width="1096"/>
  <unicode hex="00CA"/>
  <outline>
    <component base="LtnCapE"/>
    <component base="CombCircum.LP" xOffset="1094" yOffset="320"/>
    <contour>
      <point x="547" y="0" type="move" name="H"/>
    </contour>
    <contour>
      <point x="547" y="-100" type="move" name="L"/>
    </contour>
    <contour>
      <point x="825" y="0" type="move" name="O"/>
    </contour>
    <contour>
      <point x="1096" y="1100" type="move" name="R"/>
    </contour>
    <contour>
      <point x="547" y="1770" type="move" name="U"/>
    </contour>
  </outline>
</glyph>
<glyph name="LtnCapODiaer" format="1">
  <advance width="1289"/>
  <unicode hex="00D6"/>
  <outline>
    <component base="LtnCapO"/>
    <component base="CombDiaer.LP" xOffset="1194" yOffset="320"/>
    <contour>
      <point x="613" y="0" type="move" name="H"/>
    </contour>
    <contour>
      <point x="646" y="-100" type="move" name="L"/>
    </contour>
    <contour>
      <point x="712" y="0" type="move" name="O"/>
    </contour>
    <contour>
      <point x="1256" y="1100" type="move" name="R"/>
    </contour>
    <contour>
      <point x="646" y="1690" type="move" name="U"/>
    </contour>
  </outline>
</glyph>
<glyph name="LtnSmSharpS" format="2">
  <advance width="1332"/>
  <unicode hex="00DF"/>
  <anchor x="653" y="-100" name="L"/>
  <anchor x="653" y="1690" name="U"/>
  <outline>
    <contour>
      <point x="1292" y="108"/>
      <point x="1292" y="283" type="curve" smooth="yes"/>
      <point x="1292" y="596"/>
      <point x="833" y="581"/>
      <point x="833" y="770" type="curve" smooth="yes"/>
      <point x="833" y="930"/>
      <point x="1177" y="862"/>
      <point x="1177" y="1190" type="curve" smooth="yes"/>
      <point x="1177" y="1367"/>
      <point x="1006" y="1550"/>
      <point x="743" y="1550" type="curve" smooth="yes"/>
      <point x="627" y="1550"/>
      <point x="512" y="1508"/>
      <point x="433" y="1458" type="curve" smooth="yes"/>
      <point x="329" y="1392"/>
      <point x="175" y="1262"/>
      <point x="175" y="941" type="curve" smooth="yes"/>
      <point x="175" y="142" type="line" smooth="yes"/>
      <point x="175" y="126"/>
      <point x="135" y="99"/>
      <point x="45" y="83" type="curve"/>
      <point x="45" y="0" type="line"/>
      <point x="445" y="0" type="line"/>
      <point x="445" y="996" type="line" smooth="yes"/>
      <point x="445" y="1326"/>
      <point x="536" y="1395"/>
      <point x="645" y="1395" type="curve" smooth="yes"/>
      <point x="795" y="1395"/>
      <point x="905" y="1297"/>
      <point x="905" y="1122" type="curve" smooth="yes"/>
      <point x="905" y="930"/>
      <point x="583" y="969"/>
      <point x="583" y="729" type="curve" smooth="yes"/>
      <point x="583" y="424"/>
      <point x="1042" y="453"/>
      <point x="1042" y="207" type="curve" smooth="yes"/>
      <point x="1042" y="133"/>
      <point x="992" y="100"/>
      <point x="908" y="100" type="curve" smooth="yes"/>
      <point x="806" y="100"/>
      <point x="721" y="184"/>
      <point x="687" y="342" type="curve"/>
      <point x="594" y="353" type="line"/>
      <point x="574" y="326"/>
      <point x="565" y="70"/>
      <point x="587" y="43" type="curve" smooth="yes"/>
      <point x="607" y="19"/>
      <point x="757" y="-30"/>
      <point x="879" y="-30" type="curve" smooth="yes"/>
      <point x="1151" y="-30"/>
    </contour>
  </outline>
</glyph>
<glyph name="LtnSmEth" format="2">
  <advance width="1055"/>
  <unicode hex="00F0"/>
  <anchor x="524" y="-100" name="L"/>
  <anchor x="528" y="1620" name="U"/>
  <outline>
    <contour>
      <point x="995" y="151"/>
      <point x="995" y="612" type="curve" smooth="yes"/>
      <point x="995" y="832"/>
      <point x="934" y="1036"/>
      <point x="766" y="1226" type="curve"/>
      <point x="1005" y="1323" type="line"/>
      <point x="998" y="1368" type="line"/>
      <point x="963" y="1380"/>
      <point x="921" y="1385"/>
      <point x="858" y="1390" type="curve"/>
      <point x="678" y="1317" type="line"/>
      <point x="622" y="1368"/>
      <point x="535" y="1432"/>
      <point x="462" y="1480" type="curve"/>
      <point x="171" y="1378" type="line"/>
      <point x="186" y="1297" type="line"/>
      <point x="302" y="1314"/>
      <point x="406" y="1283"/>
      <point x="480" y="1231" type="curve"/>
      <point x="216" y="1122" type="line"/>
      <point x="227" y="1075" type="line"/>
      <point x="273" y="1061"/>
      <point x="314" y="1058"/>
      <point x="364" y="1057" type="curve"/>
      <point x="570" y="1141" type="line"/>
      <point x="647" y="1052"/>
      <point x="679" y="978"/>
      <point x="702" y="884" type="curve"/>
      <point x="652" y="935"/>
      <point x="588" y="960"/>
      <point x="506" y="960" type="curve" smooth="yes"/>
      <point x="239" y="960"/>
      <point x="60" y="709"/>
      <point x="60" y="444" type="curve" smooth="yes"/>
      <point x="60" y="172"/>
      <point x="236" y="-30"/>
      <point x="526" y="-30" type="curve" smooth="yes"/>
      <point x="707" y="-30"/>
    </contour>
    <contour>
      <point x="686" y="760"/>
      <point x="725" y="621" type="curve"/>
      <point x="725" y="604"/>
      <point x="725" y="588"/>
      <point x="725" y="571" type="curve" smooth="yes"/>
      <point x="725" y="243"/>
      <point x="683" y="100"/>
      <point x="536" y="100" type="curve" smooth="yes"/>
      <point x="421" y="100"/>
      <point x="335" y="282"/>
      <point x="335" y="493" type="curve" smooth="yes"/>
      <point x="335" y="706"/>
      <point x="387" y="820"/>
      <point x="495" y="820" type="curve" smooth="yes"/>
      <point x="572" y="820"/>
    </contour>
  </outline>
</glyph>
<glyph name="LtnSmNTilde" format="1">
  <advance width="1210"/>
  <unicode hex="00F1"/>
  <outline>
    <component base="LtnSmN"/>
    <component base="CombTilde" xOffset="1165"/>
    <contour>
      <point x="925" y="0" type="move" name="H"/>
    </contour>
    <contour>
      <point x="617" y="-100" type="move" name="L"/>
    </contour>
    <contour>
      <point x="617" y="1410" type="move" name="U"/>
    </contour>
  </outline>
</glyph>
<glyph name="LtnSmOAcute" format="1">
  <advance width="1090"/>
  <unicode hex="00F3"/>
  <outline>
    <component base="LtnSmO"/>
    <component base="CombAcute" xOffset="1107"/>
    <contour>
      <point x="567" y="0" type="move" name="H"/>
    </contour>
    <contour>
      <point x="567" y="-100" type="move" name="L"/>
    </contour>
    <contour>
      <point x="611" y="0" type="move" name="O"/>
    </contour>
    <contour>
      <point x="1090" y="900" type="move" name="R"/>
    </contour>
    <contour>
      <point x="477" y="1440" type="move" name="U"/>
    </contour>
  </outline>
</glyph>
<glyph name="DivSgn" format="2">
  <advance width="870"/>
  <unicode hex="00F7"/>
  <outline>
    <contour>
      <point x="812" y="577"/>
      <point x="820" y="606" type="curve"/>
      <point x="785" y="640" type="line"/>
      <point x="101" y="640" type="line"/>
      <point x="89" y="614"/>
      <point x="57" y="548"/>
      <point x="50" y="519" type="curve"/>
      <point x="85" y="485" type="line"/>
      <point x="769" y="485" type="line"/>
      <point x="779" y="507"/>
    </contour>
    <contour>
      <point x="551" y="770"/>
      <point x="551" y="853" type="curve" smooth="yes"/>
      <point x="551" y="923"/>
      <point x="520" y="959"/>
      <point x="457" y="959" type="curve" smooth="yes"/>
      <point x="386" y="959"/>
      <point x="328" y="892"/>
      <point x="328" y="808" type="curve" smooth="yes"/>
      <point x="328" y="739"/>
      <point x="356" y="700"/>
      <point x="422" y="700" type="curve" smooth="yes"/>
      <point x="495" y="700"/>
    </contour>
    <contour>
      <point x="551" y="236"/>
      <point x="551" y="319" type="curve" smooth="yes"/>
      <point x="551" y="389"/>
      <point x="520" y="425"/>
      <point x="457" y="425" type="curve" smooth="yes"/>
      <point x="386" y="425"/>
      <point x="328" y="358"/>
      <point x="328" y="274" type="curve" smooth="yes"/>
      <point x="328" y="205"/>
      <point x="356" y="166"/>
      <point x="422" y="166" type="curve" smooth="yes"/>
      <point x="495" y="166"/>
    </contour>
  </outline>
</glyph>
<glyph name="LtnSmOStrk" format="2">
  <advance width="1090"/>
  <unicode hex="00F8"/>
  <anchor x="567" y="0" name="H"/>
  <anchor x="556" y="-100" name="L"/>
  <anchor x="611" y="0" name="O"/>
  <anchor x="1090" y="900" name="R"/>
  <anchor x="556" y="1050" name="U"/>
  <outline>
    <contour>
      <point x="1030" y="485" type="curve" smooth="yes"/>
      <point x="1030" y="614"/>
      <point x="982" y="735"/>
      <point x="909" y="819" type="curve"/>
      <point x="1014" y="952" type="line"/>
      <point x="984" y="983" type="line"/>
      <point x="936" y="973"/>
      <point x="852" y="938"/>
      <point x="816" y="915" type="curve"/>
      <point x="803" y="901" type="line"/>
      <point x="737" y="936"/>
      <point x="652" y="960"/>
      <point x="565" y="960" type="curve" smooth="yes"/>
      <point x="265" y="960"/>
      <point x="60" y="709"/>
      <point x="60" y="444" type="curve" smooth="yes"/>
      <point x="60" y="315"/>
      <point x="109" y="194"/>
      <point x="183" y="110" type="curve"/>
      <point x="78" y="-23" type="line"/>
      <point x="104" y="-53" type="line"/>
      <point x="147" y="-43"/>
      <point x="246" y="-7"/>
      <point x="271" y="13" type="curve"/>
      <point x="284" y="29" type="line"/>
      <point x="350" y="-5"/>
      <point x="438" y="-30"/>
      <point x="526" y="-30" type="curve" smooth="yes"/>
      <point x="799" y="-30"/>
      <point x="1030" y="219"/>
    </contour>
    <contour>
      <point x="356" y="330" type="line"/>
      <point x="349" y="369"/>
      <point x="343" y="428"/>
      <point x="343" y="473" type="curve" smooth="yes"/>
      <point x="343" y="676"/>
      <point x="383" y="830"/>
      <point x="536" y="830" type="curve" smooth="yes"/>
      <point x="592" y="830"/>
      <point x="644" y="792"/>
      <point x="678" y="741" type="curve"/>
    </contour>
    <contour>
      <point x="554" y="100" type="curve" smooth="yes"/>
      <point x="500" y="100"/>
      <point x="447" y="140"/>
      <point x="411" y="192" type="curve"/>
      <point x="730" y="596" type="line"/>
      <point x="738" y="550"/>
      <point x="747" y="486"/>
      <point x="747" y="435" type="curve" smooth="yes"/>
      <point x="747" y="217"/>
      <point x="703" y="100"/>
    </contour>
  </outline>
</glyph>
<glyph name="LtnSmCCaron" format="1">
  <advance width="945"/>
  <unicode hex="010D"/>
  <outline>
    <component base="LtnSmC"/>
    <component base="CombCaron" xOffset="1065"/>
    <contour>
      <point x="518" y="0" type="move" name="H"/>
    </contour>
    <contour>
      <point x="518" y="-100" type="move" name="L"/>
    </contour>
    <contour>
      <point x="945" y="900" type="move" name="R"/>
    </contour>
    <contour>
      <point x="518" y="1450" type="move" name="U"/>
    </contour>
  </outline>
</glyph>
<glyph name="LtnCapDStrk" format="2">
  <advance width="1334"/>
  <unicode hex="0110"/>
  <anchor x="640" y="-100" name="L"/>
  <anchor x="640" y="1370" name="U"/>
  <outline>
    <component base="LtnCapD"/>
    <contour>
      <point x="675" y="615" type="line"/>
      <point x="715" y="722" type="line"/>
      <point x="690" y="745" type="line"/>
      <point x="65" y="745" type="line"/>
      <point x="57" y="724"/>
      <point x="34" y="659"/>
      <point x="28" y="639" type="curve"/>
      <point x="50" y="615" type="line"/>
    </contour>
  </outline>
</glyph>
<glyph name="LtnCapGCircum" format="1">
  <advance width="1244"/>
  <unicode hex="011C"/>
  <outline>
    <component base="LtnCapG"/>
    <component base="CombCircum.LP" xOffset="1209" yOffset="320"/>
    <contour>
      <point x="640" y="0" type="move" name="H"/>
    </contour>
    <contour>
      <point x="662" y="-100" type="move" name="L"/>
    </contour>
    <contour>
      <point x="662" y="1770" type="move" name="U"/>
    </contour>
  </outline>
</glyph>
<glyph name="LtnSmIOgonek" format="1">
  <advance width="635"/>
  <unicode hex="012F"/>
  <outline>
    <component base="LtnSmI"/>
    <component base="CombOgonek" xOffset="883"/>
    <contour>
      <point x="325" y="0" type="move" name="H"/>
    </contour>
    <contour>
      <point x="336" y="-600" type="move" name="L"/>
    </contour>
    <contour>
      <point x="635" y="900" type="move" name="R"/>
    </contour>
    <contour>
      <point x="325" y="1050" type="move" name="U"/>
    </contour>
  </outline>
</glyph>
<glyph name="LtnSmDotlessI" format="2">
  <advance width="635"/>
  <unicode hex="0131"/>
  <anchor x="325" y="0" name="H"/>
  <anchor x="325" y="-100" name="L"/>
  <anchor x="386" y="0" name="O"/>
  <anchor x="635" y="900" name="R"/>
  <anchor x="325" y="1050" name="U"/>
  <outline>
    <contour>
      <point x="60" y="0" type="line"/>
      <point x="590" y="0" type="line"/>
      <point x="590" y="83" type="line"/>
      <point x="493" y="101"/>
      <point x="460" y="128"/>
      <point x="460" y="144" type="curve" smooth="yes"/>
      <point x="460" y="960" type="line"/>
      <point x="386" y="960" type="line"/>
      <point x="288" y="927"/>
      <point x="184" y="906"/>
      <point x="60" y="890" type="curve"/>
      <point x="60" y="810" type="line"/>
      <point x="201" y="797"/>
      <point x="190" y="777"/>
      <point x="190" y="640" type="curve" smooth="yes"/>
      <point x="190" y="144" type="line" smooth="yes"/>
      <point x="190" y="126"/>
      <point x="150" y="101"/>
      <point x="60" y="83" type="curve"/>
    </contour>
  </outline>
</glyph>
<glyph name="LtnSmLCedilla" format="1">
  <advance width="635"/>
  <unicode hex="013C"/>
  <outline>
    <component base="LtnSmL"/>
    <component base="CombCommaBlw" xOffset="878"/>
    <contour>
      <point x="325" y="0" type="move" name="H"/>
    </contour>
    <contour>
      <point x="325" y="-600" type="move" name="L"/>
    </contour>
    <contour>
      <point x="615" y="900" type="move" name="R"/>
    </contour>
    <contour>
      <point x="325" y="1690" type="move" name="U"/>
    </contour>
  </outline>
</glyph>
<glyph name="LtnCapLStrk" format="2">
  <advance width="1065"/>
  <unicode hex="0141"/>
  <anchor x="532" y="-100" name="L"/>
  <anchor x="532" y="1370" name="U"/>
  <outline>
    <contour>
      <point x="762" y="823"/>
      <point x="768" y="867" type="curve"/>
      <point x="742" y="892" type="line"/>
      <point x="61" y="549" type="line"/>
      <point x="47" y="523"/>
      <point x="24" y="452"/>
      <point x="20" y="407" type="curve"/>
      <point x="47" y="385" type="line"/>
      <point x="725" y="727" type="line"/>
      <point x="742" y="758"/>
    </contour>
    <contour>
      <point x="1034" y="209"/>
      <point x="1044" y="324" type="curve"/>
      <point x="961" y="352" type="line"/>
      <point x="904" y="196"/>
      <point x="867" y="130"/>
      <point x="744" y="130" type="curve" smooth="yes"/>
      <point x="641" y="130" type="line" smooth="yes"/>
      <point x="495" y="130"/>
      <point x="455" y="157"/>
      <point x="455" y="204" type="curve" smooth="yes"/>
      <point x="455" y="1115" type="line" smooth="yes"/>
      <point x="455" y="1134"/>
      <point x="500" y="1158"/>
      <point x="590" y="1177" type="curve"/>
      <point x="590" y="1260" type="line"/>
      <point x="40" y="1260" type="line"/>
      <point x="40" y="1177" type="line"/>
      <point x="136" y="1158"/>
      <point x="175" y="1131"/>
      <point x="175" y="1115" type="curve" smooth="yes"/>
      <point x="175" y="144" type="line" smooth="yes"/>
      <point x="175" y="126"/>
      <point x="130" y="101"/>
      <point x="40" y="83" type="curve"/>
      <point x="40" y="0" type="line"/>
      <point x="1003" y="0" type="line"/>
      <point x="1013" y="39"/>
    </contour>
  </outline>
</glyph>
<glyph name="LtnSmLStrk" format="2">
  <advance width="675"/>
  <unicode hex="0142"/>
  <anchor x="345" y="-100" name="L"/>
  <anchor x="345" y="1690" name="U"/>
  <outline>
    <contour>
      <point x="70" y="0" type="line"/>
      <point x="620" y="0" type="line"/>
      <point x="620" y="83" type="line"/>
      <point x="511" y="101"/>
      <point x="480" y="124"/>
      <point x="480" y="144" type="curve" smooth="yes"/>
      <point x="480" y="786" type="line"/>
      <point x="607" y="875" type="line"/>
      <point x="624" y="906"/>
      <point x="654" y="1001"/>
      <point x="660" y="1045" type="curve"/>
      <point x="634" y="1070" type="line"/>
      <point x="480" y="962" type="line"/>
      <point x="480" y="1516" type="line"/>
      <point x="434" y="1560" type="line"/>
      <point x="322" y="1517"/>
      <point x="226" y="1499"/>
      <point x="80" y="1480" type="curve"/>
      <point x="80" y="1400" type="line"/>
      <point x="192" y="1387"/>
      <point x="210" y="1387"/>
      <point x="210" y="1266" type="curve" smooth="yes"/>
      <point x="210" y="774" type="line"/>
      <point x="81" y="684" type="line"/>
      <point x="67" y="658"/>
      <point x="34" y="557"/>
      <point x="30" y="512" type="curve"/>
      <point x="57" y="490" type="line"/>
      <point x="210" y="597" type="line"/>
      <point x="210" y="144" type="line" smooth="yes"/>
      <point x="210" y="122"/>
      <point x="185" y="103"/>
      <point x="70" y="83" type="curve"/>
    </contour>
  </outline>
</glyph>
<glyph name="LtnSmNCaron" format="1">
  <advance width="1210"/>
  <unicode hex="0148"/>
  <outline>
    <component base="LtnSmN"/>
    <component base="CombCaron" xOffset="1164"/>
    <contour>
      <point x="925" y="0" type="move" name="H"/>
    </contour>
    <contour>
      <point x="617" y="-100" type="move" name="L"/>
    </contour>
    <contour>
      <point x="617" y="1450" type="move" name="U"/>
    </contour>
  </outline>
</glyph>
<glyph name="LtnCapLigOe" format="2">
  <advance width="1756"/>
  <unicode hex="0152"/>
  <anchor x="882" y="-100" name="L"/>
  <anchor x="882" y="1370" name="U"/>
  <outline>
    <contour>
      <point x="1645" y="1157"/>
      <point x="1649" y="1225" type="curve"/>
      <point x="1606" y="1260" type="line"/>
      <point x="1092" y="1260" type="line"/>
      <point x="1063" y="1130" type="line"/>
      <point x="1441" y="1130" type="line" smooth="yes"/>
      <point x="1490" y="1130"/>
      <point x="1517" y="1053"/>
      <point x="1523" y="930" type="curve"/>
      <point x="1608" y="930" type="line"/>
      <point x="1624" y="981"/>
    </contour>
    <contour>
      <point x="1524" y="660"/>
      <point x="1546" y="697" type="curve"/>
      <point x="1510" y="735" type="line"/>
      <point x="1071" y="735" type="line"/>
      <point x="1049" y="615" type="line"/>
      <point x="1256" y="615" type="line" smooth="yes"/>
      <point x="1368" y="615"/>
      <point x="1413" y="599"/>
      <point x="1454" y="560" type="curve"/>
      <point x="1483" y="581"/>
    </contour>
    <contour>
      <point x="1704" y="209"/>
      <point x="1714" y="324" type="curve"/>
      <point x="1631" y="352" type="line"/>
      <point x="1574" y="196"/>
      <point x="1531" y="130"/>
      <point x="1408" y="130" type="curve" smooth="yes"/>
      <point x="1319" y="130" type="line" smooth="yes"/>
      <point x="1143" y="130"/>
      <point x="1115" y="155"/>
      <point x="1115" y="194" type="curve" smooth="yes"/>
      <point x="1115" y="1137" type="line" smooth="yes"/>
      <point x="1115" y="1155"/>
      <point x="1170" y="1158"/>
      <point x="1260" y="1177" type="curve"/>
      <point x="1260" y="1260" type="line"/>
      <point x="1092" y="1260" type="line"/>
      <point x="700" y="1260" type="line"/>
      <point x="700" y="1177" type="line"/>
      <point x="796" y="1158"/>
      <point x="835" y="1131"/>
      <point x="835" y="1115" type="curve" smooth="yes"/>
      <point x="835" y="144" type="line" smooth="yes"/>
      <point x="835" y="126"/>
      <point x="790" y="101"/>
      <point x="700" y="83" type="curve"/>
      <point x="700" y="0" type="line"/>
      <point x="1673" y="0" type="line"/>
      <point x="1684" y="39"/>
    </contour>
    <contour>
      <point x="822" y="1104"/>
      <point x="873" y="1000" type="curve"/>
      <point x="873" y="1000"/>
      <point x="889" y="1219"/>
      <point x="903" y="1260" type="curve"/>
      <point x="813" y="1260"/>
      <point x="775" y="1290"/>
      <point x="663" y="1290" type="curve" smooth="yes"/>
      <point x="307" y="1290"/>
      <point x="50" y="975"/>
      <point x="50" y="612" type="curve" smooth="yes"/>
      <point x="50" y="276"/>
      <point x="268" y="-30"/>
      <point x="605" y="-30" type="curve" smooth="yes"/>
      <point x="728" y="-30"/>
      <point x="743" y="0"/>
      <point x="903" y="0" type="curve" smooth="yes"/>
      <point x="903" y="0"/>
      <point x="936" y="128"/>
      <point x="868" y="190" type="curve"/>
      <point x="799" y="136"/>
      <point x="769" y="110"/>
      <point x="654" y="110" type="curve" smooth="yes"/>
      <point x="474" y="110"/>
      <point x="335" y="342"/>
      <point x="335" y="641" type="curve" smooth="yes"/>
      <point x="335" y="967"/>
      <point x="429" y="1156"/>
      <point x="604" y="1156" type="curve" smooth="yes"/>
      <point x="709" y="1156"/>
    </contour>
  </outline>
</glyph>
<glyph name="LtnSmLigOe" format="2">
  <advance width="1659"/>
  <unicode hex="0153"/>
  <anchor x="829" y="0" name="H"/>
  <anchor x="829" y="-100" name="L"/>
  <anchor x="1268" y="0" name="O"/>
  <anchor x="1659" y="900" name="R"/>
  <anchor x="829" y="1050" name="U"/>
  <outline>
    <contour>
      <point x="1573" y="520"/>
      <point x="1599" y="547" type="curve"/>
      <point x="1599" y="717"/>
      <point x="1515" y="960"/>
      <point x="1217" y="960" type="curve" smooth="yes"/>
      <point x="1106" y="960"/>
      <point x="1015" y="921"/>
      <point x="955" y="880" type="curve" smooth="yes"/>
      <point x="816" y="785"/>
      <point x="736" y="634"/>
      <point x="736" y="454" type="curve" smooth="yes"/>
      <point x="736" y="172"/>
      <point x="949" y="-30"/>
      <point x="1148" y="-30" type="curve" smooth="yes"/>
      <point x="1293" y="-30"/>
      <point x="1415" y="0"/>
      <point x="1591" y="195" type="curve"/>
      <point x="1585" y="205"/>
      <point x="1551" y="257"/>
      <point x="1534" y="266" type="curve"/>
      <point x="1395" y="172"/>
      <point x="1318" y="152"/>
      <point x="1244" y="152" type="curve" smooth="yes"/>
      <point x="1070" y="152"/>
      <point x="1000" y="307"/>
      <point x="1000" y="507" type="curve" smooth="yes"/>
      <point x="1000" y="722"/>
      <point x="1069" y="836"/>
      <point x="1189" y="836" type="curve" smooth="yes"/>
      <point x="1331" y="836"/>
      <point x="1353" y="688"/>
      <point x="1353" y="616" type="curve" smooth="yes"/>
      <point x="1353" y="588"/>
      <point x="1343" y="580"/>
      <point x="1314" y="580" type="curve" smooth="yes"/>
      <point x="881" y="580" type="line"/>
      <point x="879" y="460" type="line"/>
      <point x="1457" y="460" type="line"/>
      <point x="1500" y="477"/>
    </contour>
    <contour>
      <point x="1000" y="227"/>
      <point x="1000" y="505" type="curve" smooth="yes"/>
      <point x="1000" y="778"/>
      <point x="804" y="960"/>
      <point x="555" y="960" type="curve" smooth="yes"/>
      <point x="263" y="960"/>
      <point x="60" y="709"/>
      <point x="60" y="444" type="curve" smooth="yes"/>
      <point x="60" y="172"/>
      <point x="248" y="-30"/>
      <point x="505" y="-30" type="curve" smooth="yes"/>
      <point x="781" y="-30"/>
    </contour>
    <contour>
      <point x="736" y="668"/>
      <point x="736" y="455" type="curve" smooth="yes"/>
      <point x="736" y="242"/>
      <point x="688" y="100"/>
      <point x="545" y="100" type="curve" smooth="yes"/>
      <point x="431" y="100"/>
      <point x="333" y="272"/>
      <point x="333" y="483" type="curve" smooth="yes"/>
      <point x="333" y="696"/>
      <point x="382" y="830"/>
      <point x="525" y="830" type="curve" smooth="yes"/>
      <point x="657" y="830"/>
    </contour>
  </outline>
</glyph>
<glyph name="LtnSmTStrk" format="2">
  <advance width="775"/>
  <unicode hex="0167"/>
  <anchor x="374" y="-100" name="L"/>
  <anchor x="379" y="1320" name="U"/>
  <outline>
    <contour>
      <point x="565" y="30"/>
      <point x="756" y="167" type="curve"/>
      <point x="707" y="248" type="line"/>
      <point x="593" y="185"/>
      <point x="544" y="170"/>
      <point x="497" y="170" type="curve" smooth="yes"/>
      <point x="457" y="170"/>
      <point x="420" y="217"/>
      <point x="420" y="347" type="curve" smooth="yes"/>
      <point x="420" y="795" type="line"/>
      <point x="492" y="795" type="line" smooth="yes"/>
      <point x="551" y="795"/>
      <point x="623" y="776"/>
      <point x="655" y="760" type="curve"/>
      <point x="682" y="782"/>
      <point x="731" y="844"/>
      <point x="756" y="891" type="curve"/>
      <point x="717" y="930" type="line"/>
      <point x="420" y="930" type="line"/>
      <point x="420" y="1245" type="line"/>
      <point x="379" y="1280" type="line"/>
      <point x="150" y="1116" type="line"/>
      <point x="150" y="930" type="line"/>
      <point x="78" y="930" type="line"/>
      <point x="0" y="833" type="line"/>
      <point x="31" y="795" type="line"/>
      <point x="150" y="795" type="line"/>
      <point x="150" y="251" type="line" smooth="yes"/>
      <point x="150" y="65"/>
      <point x="251" y="-30"/>
      <point x="373" y="-30" type="curve" smooth="yes"/>
      <point x="443" y="-30"/>
    </contour>
    <contour>
      <point x="600" y="415" type="line"/>
      <point x="640" y="522" type="line"/>
      <point x="615" y="545" type="line"/>
      <point x="50" y="545" type="line"/>
      <point x="42" y="524"/>
      <point x="19" y="459"/>
      <point x="13" y="439" type="curve"/>
      <point x="35" y="415" type="line"/>
    </contour>
  </outline>
</glyph>
<glyph name="LtnSmUTilde" format="1">
  <advance width="1175"/>
  <unicode hex="0169"/>
  <outline>
    <component base="LtnSmU"/>
    <component base="CombTilde" xOffset="1136"/>
    <contour>
      <point x="532" y="0" type="move" name="H"/>
    </contour>
    <contour>
      <point x="588" y="-100" type="move" name="L"/>
    </contour>
    <contour>
      <point x="886" y="0" type="move" name="O"/>
    </contour>
    <contour>
      <point x="1275" y="900" type="move" name="R"/>
    </contour>
    <contour>
      <point x="588" y="1410" type="move" name="U"/>
    </contour>
  </outline>
</glyph>
<glyph name="LtnCapURingAbv" format="1">
  <advance width="1379"/>
  <unicode hex="016E"/>
  <outline>
    <component base="LtnCapU"/>
    <component base="CombRingAbv" xOffset="1245" yOffset="320"/>
    <contour>
      <point x="697" y="0" type="move" name="H"/>
    </contour>
    <contour>
      <point x="697" y="-100" type="move" name="L"/>
    </contour>
    <contour>
      <point x="784" y="0" type="move" name="O"/>
    </contour>
    <contour>
      <point x="1380" y="1100" type="move" name="R"/>
    </contour>
    <contour>
      <point x="697" y="1810" type="move" name="U"/>
    </contour>
  </outline>
</glyph>
<glyph name="LtnCapZAcute" format="1">
  <advance width="1131"/>
  <unicode hex="0179"/>
  <outline>
    <component base="LtnCapZ"/>
    <component base="CombAcute.LP" xOffset="1163" yOffset="320"/>
    <contour>
      <point x="565" y="-100" type="move" name="L"/>
    </contour>
    <contour>
      <point x="587" y="1690" type="move" name="U"/>
    </contour>
  </outline>
</glyph>
<glyph name="LtnSmZAcute" format="1">
  <advance width="976"/>
  <unicode hex="017A"/>
  <outline>
    <component base="LtnSmZ"/>
    <component base="CombAcute" xOffset="1057"/>
    <contour>
      <point x="486" y="0" type="move" name="H"/>
    </contour>
    <contour>
      <point x="486" y="-100" type="move" name="L"/>
    </contour>
    <contour>
      <point x="427" y="1440" type="move" name="U"/>
    </contour>
  </outline>
</glyph>
<glyph name="LtnCapTnSix" format="2">
  <advance width="1285"/>
  <unicode hex="0184"/>
  <anchor x="652" y="-100" name="L"/>
  <anchor x="652" y="1370" name="U"/>
  <outline>
    <contour>
      <point x="658" y="-14" type="curve" smooth="yes"/>
      <point x="948" y="-14"/>
      <point x="1205" y="99"/>
      <point x="1205" y="356" type="curve" smooth="yes"/>
      <point x="1205" y="571"/>
      <point x="1030" y="740"/>
      <point x="678" y="740" type="curve" smooth="yes"/>
      <point x="577" y="740"/>
      <point x="430" y="715"/>
      <point x="360" y="695" type="curve"/>
      <point x="370" y="567" type="line"/>
      <point x="424" y="585"/>
      <point x="491" y="600"/>
      <point x="639" y="600" type="curve" smooth="yes"/>
      <point x="851" y="600"/>
      <point x="929" y="459"/>
      <point x="929" y="322" type="curve" smooth="yes"/>
      <point x="929" y="222"/>
      <point x="838" y="100"/>
      <point x="656" y="100" type="curve" smooth="yes"/>
      <point x="576" y="100"/>
      <point x="525" y="109"/>
      <point x="484" y="131" type="curve"/>
      <point x="162" y="0" type="line"/>
      <point x="295" y="-6"/>
      <point x="521" y="-14"/>
    </contour>
    <contour>
      <point x="89" y="0" type="line"/>
      <point x="649" y="0" type="line"/>
      <point x="649" y="73" type="line"/>
      <point x="553" y="91"/>
      <point x="504" y="118"/>
      <point x="504" y="134" type="curve" smooth="yes"/>
      <point x="504" y="485" type="line"/>
      <point x="234" y="485" type="line"/>
      <point x="234" y="144" type="line" smooth="yes"/>
      <point x="234" y="126"/>
      <point x="179" y="101"/>
      <point x="89" y="83" type="curve"/>
    </contour>
    <contour>
      <point x="234" y="354" type="line"/>
      <point x="504" y="354" type="line"/>
      <point x="504" y="1246" type="line"/>
      <point x="490" y="1263"/>
      <point x="476" y="1277"/>
      <point x="460" y="1290" type="curve"/>
      <point x="408" y="1284"/>
      <point x="310" y="1249"/>
      <point x="270" y="1220" type="curve"/>
      <point x="-18" y="776" type="line"/>
      <point x="-9" y="764"/>
      <point x="10" y="745"/>
      <point x="24" y="736" type="curve"/>
      <point x="58" y="747"/>
      <point x="137" y="789"/>
      <point x="169" y="821" type="curve"/>
      <point x="234" y="921" type="line"/>
    </contour>
  </outline>
</glyph>
<glyph name="LtnSmTnSix" format="2">
  <advance width="1216"/>
  <unicode hex="0185"/>
  <anchor x="604" y="-100" name="L"/>
  <anchor x="607" y="1690" name="U"/>
  <outline>
    <contour>
      <point x="683" y="775" type="curve" smooth="yes"/>
      <point x="802" y="775"/>
      <point x="896" y="684"/>
      <point x="896" y="418" type="curve" smooth="yes"/>
      <point x="896" y="264"/>
      <point x="835" y="150"/>
      <point x="703" y="150" type="curve" smooth="yes"/>
      <point x="666" y="150"/>
      <point x="592" y="173"/>
      <point x="486" y="223" type="curve"/>
      <point x="486" y="700" type="line"/>
      <point x="578" y="756"/>
      <point x="636" y="775"/>
    </contour>
    <contour>
      <point x="216" y="1120" type="line"/>
      <point x="216" y="96" type="line"/>
      <point x="360" y="26"/>
      <point x="524" y="-30"/>
      <point x="605" y="-30" type="curve" smooth="yes"/>
      <point x="850" y="-30"/>
      <point x="1146" y="280"/>
      <point x="1146" y="512" type="curve" smooth="yes"/>
      <point x="1146" y="784"/>
      <point x="1025" y="960"/>
      <point x="823" y="960" type="curve" smooth="yes"/>
      <point x="747" y="960"/>
      <point x="619" y="927"/>
      <point x="486" y="827" type="curve"/>
      <point x="486" y="1506" type="line"/>
      <point x="470" y="1521"/>
      <point x="446" y="1543"/>
      <point x="439" y="1550" type="curve"/>
      <point x="397" y="1535"/>
      <point x="269" y="1465"/>
      <point x="244" y="1440" type="curve"/>
      <point x="-73" y="953" type="line"/>
      <point x="-64" y="941"/>
      <point x="-30" y="912"/>
      <point x="-16" y="903" type="curve"/>
      <point x="19" y="912"/>
      <point x="80" y="954"/>
      <point x="106" y="985" type="curve"/>
    </contour>
  </outline>
</glyph>
<glyph name="LtnCapCHook" format="2">
  <advance width="1151"/>
  <unicode hex="0187"/>
  <anchor x="624" y="-100" name="L"/>
  <anchor x="645" y="1370" name="U"/>
  <outline>
    <contour>
      <point x="918" y="39"/>
      <point x="1088" y="211" type="curve"/>
      <point x="1074" y="228"/>
      <point x="1049" y="270"/>
      <point x="1031" y="286" type="curve"/>
      <point x="894" y="173"/>
      <point x="765" y="150"/>
      <point x="693" y="150" type="curve" smooth="yes"/>
      <point x="523" y="150"/>
      <point x="335" y="288"/>
      <point x="335" y="623" type="curve" smooth="yes"/>
      <point x="335" y="1038"/>
      <point x="495" y="1150"/>
      <point x="632" y="1150" type="curve" smooth="yes"/>
      <point x="729" y="1150"/>
      <point x="818" y="1098"/>
      <point x="884" y="963" type="curve"/>
      <point x="959" y="947" type="line"/>
      <point x="991" y="984"/>
      <point x="1071" y="1149"/>
      <point x="1071" y="1188" type="curve"/>
      <point x="1001" y="1245"/>
      <point x="839" y="1290"/>
      <point x="696" y="1290" type="curve" smooth="yes"/>
      <point x="329" y="1290"/>
      <point x="50" y="1012"/>
      <point x="50" y="586" type="curve" smooth="yes"/>
      <point x="50" y="199"/>
      <point x="314" y="-30"/>
      <point x="591" y="-30" type="curve" smooth="yes"/>
      <point x="749" y="-30"/>
    </contour>
    <contour>
      <point x="1494" y="1415"/>
      <point x="1494" y="1447" type="curve" smooth="yes"/>
      <point x="1494" y="1488"/>
      <point x="1366" y="1590"/>
      <point x="1228" y="1590" type="curve" smooth="yes"/>
      <point x="1126" y="1590"/>
      <point x="1044" y="1531"/>
      <point x="974" y="1463" type="curve" smooth="yes"/>
      <point x="903" y="1393"/>
      <point x="853" y="1311"/>
      <point x="840" y="1210" type="curve"/>
      <point x="917" y="1203"/>
      <point x="994" y="1195"/>
      <point x="1071" y="1188" type="curve"/>
      <point x="1071" y="1334"/>
      <point x="1094" y="1425"/>
      <point x="1170" y="1425" type="curve" smooth="yes"/>
      <point x="1207" y="1425"/>
      <point x="1255" y="1408"/>
      <point x="1279" y="1249" type="curve"/>
      <point x="1372" y="1305"/>
    </contour>
  </outline>
</glyph>
<glyph name="LtnSmCHook" format="2">
  <advance width="954"/>
  <unicode hex="0188"/>
  <anchor x="518" y="-100" name="L"/>
  <anchor x="396" y="1050" name="U"/>
  <outline>
    <contour>
      <point x="1330" y="1375"/>
      <point x="1330" y="1407" type="curve" smooth="yes"/>
      <point x="1330" y="1448"/>
      <point x="1202" y="1550"/>
      <point x="1064" y="1550" type="curve" smooth="yes"/>
      <point x="962" y="1550"/>
      <point x="880" y="1491"/>
      <point x="810" y="1423" type="curve" smooth="yes"/>
      <point x="711" y="1326"/>
      <point x="665" y="1208"/>
      <point x="665" y="1041" type="curve" smooth="yes"/>
      <point x="665" y="953" type="line"/>
      <point x="652" y="957"/>
      <point x="626" y="960"/>
      <point x="610" y="960" type="curve" smooth="yes"/>
      <point x="283" y="960"/>
      <point x="60" y="731"/>
      <point x="60" y="444" type="curve" smooth="yes"/>
      <point x="60" y="147"/>
      <point x="260" y="-30"/>
      <point x="485" y="-30" type="curve" smooth="yes"/>
      <point x="610" y="-30"/>
      <point x="736" y="-4"/>
      <point x="910" y="190" type="curve"/>
      <point x="851" y="261" type="line"/>
      <point x="713" y="164"/>
      <point x="652" y="150"/>
      <point x="577" y="150" type="curve" smooth="yes"/>
      <point x="437" y="150"/>
      <point x="330" y="268"/>
      <point x="330" y="475" type="curve" smooth="yes"/>
      <point x="330" y="736"/>
      <point x="430" y="830"/>
      <point x="540" y="830" type="curve" smooth="yes"/>
      <point x="637" y="830"/>
      <point x="690" y="756"/>
      <point x="741" y="597" type="curve"/>
      <point x="818" y="587" type="line"/>
      <point x="843" y="624"/>
      <point x="915" y="825"/>
      <point x="915" y="881" type="curve" smooth="yes"/>
      <point x="915" y="1116" type="line" smooth="yes"/>
      <point x="915" y="1278"/>
      <point x="922" y="1385"/>
      <point x="1006" y="1385" type="curve" smooth="yes"/>
      <point x="1043" y="1385"/>
      <point x="1096" y="1368"/>
      <point x="1120" y="1214" type="curve"/>
      <point x="1213" y="1270"/>
    </contour>
  </outline>
</glyph>
<glyph name="LtnCapDTopbar" format="2">
  <advance width="1236"/>
  <unicode hex="018B"/>
  <anchor x="605" y="-100" name="L"/>
  <anchor x="663" y="1370" name="U"/>
  <outline>
    <contour>
      <point x="100" y="551"/>
      <point x="100" y="346" type="curve" smooth="yes"/>
      <point x="100" y="99"/>
      <point x="287" y="-14"/>
      <point x="597" y="-14" type="curve" smooth="yes"/>
      <point x="714" y="-14"/>
      <point x="1163" y="0"/>
      <point x="1163" y="0" type="curve"/>
      <point x="791" y="138" type="line"/>
      <point x="750" y="116"/>
      <point x="689" y="110"/>
      <point x="629" y="110" type="curve" smooth="yes"/>
      <point x="457" y="110"/>
      <point x="364" y="232"/>
      <point x="364" y="372" type="curve" smooth="yes"/>
      <point x="364" y="479"/>
      <point x="444" y="620"/>
      <point x="676" y="620" type="curve" smooth="yes"/>
      <point x="764" y="620"/>
      <point x="831" y="607"/>
      <point x="895" y="597" type="curve"/>
      <point x="905" y="705" type="line"/>
      <point x="835" y="725"/>
      <point x="738" y="740"/>
      <point x="637" y="740" type="curve" smooth="yes"/>
      <point x="265" y="740"/>
    </contour>
    <contour>
      <point x="615" y="0" type="line"/>
      <point x="1207" y="0" type="line"/>
      <point x="1207" y="83" type="line"/>
      <point x="1117" y="101"/>
      <point x="1061" y="126"/>
      <point x="1061" y="144" type="curve" smooth="yes"/>
      <point x="1061" y="1115" type="line" smooth="yes"/>
      <point x="1061" y="1131"/>
      <point x="1111" y="1158"/>
      <point x="1207" y="1177" type="curve"/>
      <point x="1207" y="1260" type="line"/>
      <point x="804" y="1260" type="line"/>
      <point x="636" y="1260" type="line"/>
      <point x="636" y="1217" type="line"/>
      <point x="726" y="1198"/>
      <point x="781" y="1155"/>
      <point x="781" y="1137" type="curve" smooth="yes"/>
      <point x="781" y="144" type="line" smooth="yes"/>
      <point x="781" y="126"/>
      <point x="745" y="110"/>
      <point x="585" y="83" type="curve"/>
    </contour>
    <contour>
      <point x="434" y="1130" type="curve" smooth="yes"/>
      <point x="960" y="1130" type="line"/>
      <point x="932" y="1260" type="line"/>
      <point x="255" y="1260" type="line"/>
      <point x="241" y="1190"/>
      <point x="221" y="982"/>
      <point x="222" y="904" type="curve"/>
      <point x="305" y="885" type="line"/>
      <point x="365" y="1041"/>
      <point x="393" y="1130"/>
    </contour>
  </outline>
</glyph>
<glyph name="LtnSmDTopbar" format="2">
  <advance width="1175"/>
  <unicode hex="018C"/>
  <anchor x="565" y="-100" name="L"/>
  <anchor x="565" y="1690" name="U"/>
  <outline>
    <contour>
      <point x="1028" y="42"/>
      <point x="1151" y="124" type="curve"/>
      <point x="1118" y="207" type="line"/>
      <point x="1046" y="173"/>
      <point x="1028" y="180"/>
      <point x="1018" y="186" type="curve" smooth="yes"/>
      <point x="997" y="198"/>
      <point x="995" y="240"/>
      <point x="995" y="334" type="curve" smooth="yes"/>
      <point x="995" y="1162" type="line" smooth="yes"/>
      <point x="995" y="1276"/>
      <point x="997" y="1387"/>
      <point x="1019" y="1499" type="curve"/>
      <point x="984" y="1540" type="line"/>
      <point x="933" y="1532"/>
      <point x="764" y="1520"/>
      <point x="688" y="1520" type="curve" smooth="yes"/>
      <point x="188" y="1520" type="line"/>
      <point x="174" y="1450"/>
      <point x="159" y="1240"/>
      <point x="160" y="1162" type="curve"/>
      <point x="243" y="1145" type="line"/>
      <point x="303" y="1301"/>
      <point x="331" y="1390"/>
      <point x="372" y="1390" type="curve" smooth="yes"/>
      <point x="730" y="1390" type="line"/>
      <point x="725" y="1292"/>
      <point x="725" y="1193"/>
      <point x="725" y="1095" type="curve" smooth="yes"/>
      <point x="725" y="272" type="line" smooth="yes"/>
      <point x="725" y="49"/>
      <point x="776" y="-30"/>
      <point x="829" y="-30" type="curve" smooth="yes"/>
      <point x="866" y="-30"/>
    </contour>
    <contour>
      <point x="683" y="88"/>
      <point x="799" y="200" type="curve"/>
      <point x="793" y="210"/>
      <point x="769" y="289"/>
      <point x="752" y="297" type="curve"/>
      <point x="698" y="247"/>
      <point x="632" y="180"/>
      <point x="527" y="180" type="curve" smooth="yes"/>
      <point x="417" y="180"/>
      <point x="310" y="298"/>
      <point x="310" y="475" type="curve" smooth="yes"/>
      <point x="310" y="725"/>
      <point x="390" y="820"/>
      <point x="520" y="820" type="curve" smooth="yes"/>
      <point x="621" y="820"/>
      <point x="701" y="751"/>
      <point x="732" y="687" type="curve"/>
      <point x="775" y="713"/>
      <point x="811" y="759"/>
      <point x="811" y="839" type="curve"/>
      <point x="707" y="943"/>
      <point x="641" y="960"/>
      <point x="531" y="960" type="curve" smooth="yes"/>
      <point x="211" y="960"/>
      <point x="40" y="684"/>
      <point x="40" y="444" type="curve" smooth="yes"/>
      <point x="40" y="147"/>
      <point x="238" y="-30"/>
      <point x="416" y="-30" type="curve" smooth="yes"/>
      <point x="585" y="-30"/>
    </contour>
  </outline>
</glyph>
<glyph name="LtnSmTrndDelta" format="2">
  <advance width="1165"/>
  <unicode hex="018D"/>
  <anchor x="577" y="-600" name="L"/>
  <anchor x="577" y="1050" name="U"/>
  <outline>
    <contour>
      <point x="222" y="-344"/>
      <point x="155" y="-439" type="curve"/>
      <point x="168" y="-458"/>
      <point x="192" y="-489"/>
      <point x="201" y="-495" type="curve"/>
      <point x="229" y="-475"/>
      <point x="282" y="-457"/>
      <point x="317" y="-457" type="curve" smooth="yes"/>
      <point x="433" y="-457"/>
      <point x="530" y="-500"/>
      <point x="711" y="-500" type="curve" smooth="yes"/>
      <point x="891" y="-500"/>
      <point x="1018" y="-377"/>
      <point x="1018" y="-254" type="curve" smooth="yes"/>
      <point x="1018" y="116"/>
      <point x="355" y="58"/>
      <point x="355" y="543" type="curve" smooth="yes"/>
      <point x="355" y="686"/>
      <point x="469" y="806"/>
      <point x="536" y="806" type="curve" smooth="yes"/>
      <point x="663" y="806"/>
      <point x="790" y="673"/>
      <point x="790" y="443" type="curve" smooth="yes"/>
      <point x="790" y="234"/>
      <point x="719" y="111"/>
      <point x="536" y="36" type="curve"/>
      <point x="535" y="32"/>
      <point x="534" y="26"/>
      <point x="534" y="20" type="curve" smooth="yes"/>
      <point x="534" y="1"/>
      <point x="597" y="-33"/>
      <point x="608" y="-50" type="curve"/>
      <point x="838" y="39"/>
      <point x="1065" y="227"/>
      <point x="1065" y="498" type="curve" smooth="yes"/>
      <point x="1065" y="736"/>
      <point x="931" y="960"/>
      <point x="590" y="960" type="curve" smooth="yes"/>
      <point x="303" y="960"/>
      <point x="80" y="720"/>
      <point x="80" y="474" type="curve" smooth="yes"/>
      <point x="80" y="-45"/>
      <point x="787" y="-81"/>
      <point x="787" y="-302" type="curve" smooth="yes"/>
      <point x="787" y="-366"/>
      <point x="746" y="-380"/>
      <point x="707" y="-380" type="curve" smooth="yes"/>
      <point x="568" y="-380"/>
      <point x="386" y="-219"/>
      <point x="348" y="-219" type="curve" smooth="yes"/>
      <point x="322" y="-219"/>
    </contour>
  </outline>
</glyph>
<glyph name="LtnCapRevE" format="2">
  <advance width="1113"/>
  <unicode hex="018E"/>
  <anchor x="554" y="-100" name="L"/>
  <anchor x="554" y="1370" name="U"/>
  <outline>
    <contour>
      <point x="55" y="35" type="curve"/>
      <point x="98" y="0" type="line"/>
      <point x="1054" y="0" type="line"/>
      <point x="1054" y="83" type="line"/>
      <point x="958" y="102"/>
      <point x="919" y="129"/>
      <point x="919" y="145" type="curve" smooth="yes"/>
      <point x="919" y="1116" type="line" smooth="yes"/>
      <point x="919" y="1134"/>
      <point x="964" y="1159"/>
      <point x="1054" y="1177" type="curve"/>
      <point x="1054" y="1260" type="line"/>
      <point x="171" y="1260" type="line"/>
      <point x="160" y="1221"/>
      <point x="144" y="1091"/>
      <point x="134" y="976" type="curve"/>
      <point x="217" y="948" type="line"/>
      <point x="274" y="1104"/>
      <point x="303" y="1130"/>
      <point x="426" y="1130" type="curve" smooth="yes"/>
      <point x="639" y="1130" type="line"/>
      <point x="639" y="739" type="line"/>
      <point x="508" y="739" type="line" smooth="yes"/>
      <point x="396" y="739"/>
      <point x="351" y="745"/>
      <point x="310" y="784" type="curve"/>
      <point x="281" y="763"/>
      <point x="210" y="660"/>
      <point x="188" y="623" type="curve"/>
      <point x="214" y="595" type="line"/>
      <point x="257" y="606"/>
      <point x="377" y="615"/>
      <point x="439" y="615" type="curve" smooth="yes"/>
      <point x="639" y="615" type="line"/>
      <point x="639" y="203" type="line" smooth="yes"/>
      <point x="639" y="150"/>
      <point x="610" y="130"/>
      <point x="438" y="130" type="curve" smooth="yes"/>
      <point x="263" y="130" type="line" smooth="yes"/>
      <point x="214" y="130"/>
      <point x="207" y="247"/>
      <point x="201" y="370" type="curve"/>
      <point x="116" y="370" type="line"/>
      <point x="100" y="319"/>
      <point x="59" y="103"/>
    </contour>
  </outline>
</glyph>
<glyph name="LtnCapSchwa" format="2">
  <advance width="1182"/>
  <unicode hex="018F"/>
  <anchor x="571" y="-100" name="L"/>
  <anchor x="571" y="1370" name="U"/>
  <outline>
    <contour>
      <point x="1132" y="258"/>
      <point x="1132" y="678" type="curve" smooth="yes"/>
      <point x="1132" y="1065"/>
      <point x="858" y="1290"/>
      <point x="568" y="1290" type="curve" smooth="yes"/>
      <point x="453" y="1290"/>
      <point x="274" y="1260"/>
      <point x="94" y="1081" type="curve"/>
      <point x="98" y="1071"/>
      <point x="137" y="1014"/>
      <point x="150" y="1006" type="curve"/>
      <point x="310" y="1119"/>
      <point x="397" y="1135"/>
      <point x="498" y="1135" type="curve" smooth="yes"/>
      <point x="639" y="1135"/>
      <point x="847" y="975"/>
      <point x="847" y="641" type="curve" smooth="yes"/>
      <point x="847" y="255"/>
      <point x="713" y="125"/>
      <point x="560" y="125" type="curve" smooth="yes"/>
      <point x="427" y="125"/>
      <point x="330" y="234"/>
      <point x="330" y="339" type="curve" smooth="yes"/>
      <point x="330" y="413"/>
      <point x="362" y="460"/>
      <point x="400" y="460" type="curve" smooth="yes"/>
      <point x="910" y="460" type="line"/>
      <point x="910" y="590" type="line"/>
      <point x="296" y="590" type="line" smooth="yes"/>
      <point x="278" y="590"/>
      <point x="167" y="540"/>
      <point x="105" y="502" type="curve"/>
      <point x="76" y="461"/>
      <point x="70" y="401"/>
      <point x="70" y="354" type="curve" smooth="yes"/>
      <point x="70" y="177"/>
      <point x="194" y="-30"/>
      <point x="505" y="-30" type="curve" smooth="yes"/>
      <point x="882" y="-30"/>
    </contour>
  </outline>
</glyph>
<glyph name="LtnSmFHook" format="2">
  <advance width="660"/>
  <unicode hex="0192"/>
  <anchor x="277" y="-600" name="L"/>
  <anchor x="277" y="1690" name="U"/>
  <outline>
    <contour>
      <point x="891" y="1402"/>
      <point x="891" y="1454" type="curve" smooth="yes"/>
      <point x="891" y="1477"/>
      <point x="764" y="1550"/>
      <point x="632" y="1550" type="curve" smooth="yes"/>
      <point x="541" y="1550"/>
      <point x="414" y="1496"/>
      <point x="315" y="1398" type="curve" smooth="yes"/>
      <point x="219" y="1302"/>
      <point x="154" y="1176"/>
      <point x="154" y="961" type="curve" smooth="yes"/>
      <point x="154" y="930" type="line"/>
      <point x="88" y="930" type="line"/>
      <point x="10" y="834" type="line"/>
      <point x="41" y="796" type="line"/>
      <point x="154" y="796" type="line"/>
      <point x="154" y="45" type="line" smooth="yes"/>
      <point x="154" y="-255"/>
      <point x="113" y="-305"/>
      <point x="39" y="-305" type="curve" smooth="yes"/>
      <point x="-12" y="-305"/>
      <point x="-93" y="-275"/>
      <point x="-149" y="-210" type="curve"/>
      <point x="-208" y="-238"/>
      <point x="-336" y="-359"/>
      <point x="-336" y="-391" type="curve" smooth="yes"/>
      <point x="-336" y="-420"/>
      <point x="-201" y="-490"/>
      <point x="-81" y="-490" type="curve" smooth="yes"/>
      <point x="10" y="-490"/>
      <point x="115" y="-437"/>
      <point x="189" y="-380" type="curve" smooth="yes"/>
      <point x="297" y="-297"/>
      <point x="424" y="-185"/>
      <point x="424" y="98" type="curve" smooth="yes"/>
      <point x="424" y="796" type="line"/>
      <point x="528" y="796"/>
      <point x="581" y="777"/>
      <point x="612" y="761" type="curve"/>
      <point x="639" y="773"/>
      <point x="688" y="854"/>
      <point x="712" y="891" type="curve"/>
      <point x="674" y="930" type="line"/>
      <point x="424" y="930" type="line"/>
      <point x="424" y="986" type="line" smooth="yes"/>
      <point x="424" y="1286"/>
      <point x="456" y="1387"/>
      <point x="546" y="1387" type="curve" smooth="yes"/>
      <point x="588" y="1387"/>
      <point x="650" y="1349"/>
      <point x="716" y="1263" type="curve"/>
      <point x="755" y="1282"/>
    </contour>
  </outline>
</glyph>
<glyph name="LtnCapGamma" format="2">
  <advance width="1243"/>
  <unicode hex="0194"/>
  <anchor x="634" y="-100" name="L"/>
  <anchor x="656" y="1370" name="U"/>
  <outline>
    <contour>
      <point x="1135" y="1162"/>
      <point x="1222" y="1177" type="curve"/>
      <point x="1222" y="1260" type="line"/>
      <point x="833" y="1260" type="line"/>
      <point x="833" y="1177" type="line"/>
      <point x="932" y="1162"/>
      <point x="946" y="1153"/>
      <point x="898" y="1073" type="curve" smooth="yes"/>
      <point x="472" y="399" type="line" smooth="yes"/>
      <point x="410" y="295"/>
      <point x="386" y="243"/>
      <point x="386" y="176" type="curve" smooth="yes"/>
      <point x="386" y="46"/>
      <point x="493" y="-30"/>
      <point x="651" y="-30" type="curve" smooth="yes"/>
      <point x="860" y="-30"/>
      <point x="990" y="67"/>
      <point x="990" y="235" type="curve" smooth="yes"/>
      <point x="990" y="323"/>
      <point x="950" y="386"/>
      <point x="873" y="497" type="curve" smooth="yes"/>
      <point x="472" y="1075" type="line" smooth="yes"/>
      <point x="429" y="1147"/>
      <point x="434" y="1164"/>
      <point x="537" y="1177" type="curve"/>
      <point x="537" y="1260" type="line"/>
      <point x="21" y="1260" type="line"/>
      <point x="21" y="1177" type="line"/>
      <point x="102" y="1168"/>
      <point x="125" y="1147"/>
      <point x="167" y="1075" type="curve"/>
      <point x="643" y="381" type="line"/>
      <point x="711" y="263"/>
      <point x="722" y="241"/>
      <point x="722" y="198" type="curve" smooth="yes"/>
      <point x="722" y="137"/>
      <point x="693" y="100"/>
      <point x="644" y="100" type="curve" smooth="yes"/>
      <point x="598" y="100"/>
      <point x="559" y="130"/>
      <point x="559" y="202" type="curve" smooth="yes"/>
      <point x="559" y="237"/>
      <point x="593" y="318"/>
      <point x="677" y="438" type="curve"/>
      <point x="1077" y="1073" type="line"/>
      <point x="1127" y="1155"/>
    </contour>
  </outline>
</glyph>
<glyph name="LtnCapIota" format="2">
  <advance width="713"/>
  <unicode hex="0196"/>
  <anchor x="361" y="-100" name="L"/>
  <anchor x="361" y="1370" name="U"/>
  <outline>
    <contour>
      <point x="565" y="36"/>
      <point x="760" y="195" type="curve"/>
      <point x="714" y="281" type="line"/>
      <point x="628" y="219"/>
      <point x="568" y="181"/>
      <point x="524" y="181" type="curve" smooth="yes"/>
      <point x="469" y="181"/>
      <point x="460" y="208"/>
      <point x="460" y="388" type="curve" smooth="yes"/>
      <point x="460" y="1290" type="line"/>
      <point x="377" y="1290" type="line"/>
      <point x="292" y="1257"/>
      <point x="114" y="1236"/>
      <point x="0" y="1220" type="curve"/>
      <point x="0" y="1140" type="line"/>
      <point x="124" y="1127"/>
      <point x="190" y="1123"/>
      <point x="190" y="970" type="curve" smooth="yes"/>
      <point x="190" y="233" type="line" smooth="yes"/>
      <point x="190" y="53"/>
      <point x="243" y="-30"/>
      <point x="373" y="-30" type="curve" smooth="yes"/>
      <point x="465" y="-30"/>
    </contour>
  </outline>
</glyph>
<glyph name="LtnSmKHook" format="2">
  <advance width="1164"/>
  <unicode hex="0199"/>
  <anchor x="609" y="-100" name="L"/>
  <anchor x="609" y="1690" name="U"/>
  <outline>
    <contour>
      <point x="1096" y="20"/>
      <point x="1174" y="38" type="curve"/>
      <point x="1168" y="121" type="line"/>
      <point x="1090" y="115"/>
      <point x="1061" y="118"/>
      <point x="1024" y="161" type="curve"/>
      <point x="668" y="560" type="line"/>
      <point x="959" y="775" type="line"/>
      <point x="1015" y="820"/>
      <point x="1080" y="841"/>
      <point x="1139" y="847" type="curve"/>
      <point x="1139" y="930" type="line"/>
      <point x="680" y="930" type="line"/>
      <point x="680" y="847" type="line"/>
      <point x="750" y="847"/>
      <point x="773" y="831"/>
      <point x="693" y="759" type="curve" smooth="yes"/>
      <point x="445" y="533" type="line"/>
      <point x="445" y="964" type="line"/>
      <point x="449" y="1320"/>
      <point x="534" y="1385"/>
      <point x="637" y="1385" type="curve" smooth="yes"/>
      <point x="719" y="1385"/>
      <point x="831" y="1290"/>
      <point x="882" y="1211" type="curve"/>
      <point x="921" y="1228"/>
      <point x="1063" y="1365"/>
      <point x="1063" y="1406" type="curve" smooth="yes"/>
      <point x="1063" y="1441"/>
      <point x="886" y="1550"/>
      <point x="737" y="1550" type="curve" smooth="yes"/>
      <point x="633" y="1550"/>
      <point x="506" y="1509"/>
      <point x="426" y="1449" type="curve" smooth="yes"/>
      <point x="270" y="1333"/>
      <point x="178" y="1215"/>
      <point x="175" y="896" type="curve"/>
      <point x="175" y="144" type="line" smooth="yes"/>
      <point x="175" y="120"/>
      <point x="133" y="106"/>
      <point x="45" y="83" type="curve"/>
      <point x="45" y="0" type="line"/>
      <point x="555" y="0" type="line"/>
      <point x="555" y="83" type="line"/>
      <point x="456" y="114"/>
      <point x="445" y="124"/>
      <point x="445" y="144" type="curve" smooth="yes"/>
      <point x="445" y="508" type="line"/>
      <point x="795" y="43" type="line" smooth="yes"/>
      <point x="824" y="4"/>
      <point x="874" y="-10"/>
      <point x="930" y="-10" type="curve" smooth="yes"/>
      <point x="958" y="-10"/>
    </contour>
  </outline>
</glyph>
<glyph name="LtnSmLBar" format="2">
  <advance width="730"/>
  <unicode hex="019A"/>
  <anchor x="365" y="-100" name="L"/>
  <anchor x="365" y="1690" name="U"/>
  <outline>
    <contour>
      <point x="90" y="0" type="line"/>
      <point x="640" y="0" type="line"/>
      <point x="640" y="83" type="line"/>
      <point x="531" y="101"/>
      <point x="500" y="124"/>
      <point x="500" y="144" type="curve" smooth="yes"/>
      <point x="500" y="1506" type="line"/>
      <point x="454" y="1550" type="line"/>
      <point x="342" y="1507"/>
      <point x="246" y="1489"/>
      <point x="100" y="1470" type="curve"/>
      <point x="100" y="1390" type="line"/>
      <point x="212" y="1377"/>
      <point x="230" y="1377"/>
      <point x="230" y="1256" type="curve" smooth="yes"/>
      <point x="230" y="144" type="line" smooth="yes"/>
      <point x="230" y="122"/>
      <point x="205" y="103"/>
      <point x="90" y="83" type="curve"/>
    </contour>
    <contour>
      <point x="641" y="715" type="line"/>
      <point x="690" y="820" type="line"/>
      <point x="668" y="845" type="line"/>
      <point x="90" y="845" type="line"/>
      <point x="79" y="824"/>
      <point x="46" y="758"/>
      <point x="40" y="737" type="curve"/>
      <point x="63" y="715" type="line"/>
    </contour>
  </outline>
</glyph>
<glyph name="LtnCapNLftHook" format="2">
  <advance width="1369"/>
  <unicode hex="019D"/>
  <anchor x="652" y="-600" name="L"/>
  <anchor x="652" y="1370" name="U"/>
  <outline>
    <contour>
      <point x="1234" y="1164"/>
      <point x="1330" y="1177" type="curve"/>
      <point x="1330" y="1260" type="line"/>
      <point x="900" y="1260" type="line"/>
      <point x="900" y="1177" type="line"/>
      <point x="1007" y="1162"/>
      <point x="1035" y="1131"/>
      <point x="1035" y="1115" type="curve" smooth="yes"/>
      <point x="1035" y="71" type="line"/>
      <point x="1195" y="32" type="line"/>
      <point x="1195" y="1115" type="line" smooth="yes"/>
      <point x="1195" y="1134"/>
    </contour>
    <contour>
      <point x="1048" y="-19"/>
      <point x="1195" y="-30" type="curve"/>
      <point x="1195" y="150" type="line"/>
      <point x="1195" y="150"/>
      <point x="1085" y="284"/>
      <point x="1057" y="323" type="curve" smooth="yes"/>
      <point x="438" y="1182" type="line" smooth="yes"/>
      <point x="388" y="1251"/>
      <point x="381" y="1260"/>
      <point x="342" y="1260" type="curve" smooth="yes"/>
      <point x="40" y="1260" type="line"/>
      <point x="40" y="1177" type="line"/>
      <point x="110" y="1166"/>
      <point x="183" y="1107"/>
      <point x="238" y="1030" type="curve" smooth="yes"/>
      <point x="916" y="91" type="line" smooth="yes"/>
      <point x="958" y="33"/>
    </contour>
    <contour>
      <point x="335" y="1059" type="line"/>
      <point x="175" y="1132" type="line"/>
      <point x="175" y="54" type="line" smooth="yes"/>
      <point x="175" y="-128"/>
      <point x="137" y="-247"/>
      <point x="35" y="-247" type="curve" smooth="yes"/>
      <point x="-28" y="-247"/>
      <point x="-109" y="-219"/>
      <point x="-163" y="-145" type="curve"/>
      <point x="-202" y="-161"/>
      <point x="-350" y="-308"/>
      <point x="-350" y="-331" type="curve" smooth="yes"/>
      <point x="-350" y="-373"/>
      <point x="-205" y="-430"/>
      <point x="-72" y="-430" type="curve" smooth="yes"/>
      <point x="61" y="-430"/>
      <point x="176" y="-338"/>
      <point x="236" y="-268" type="curve" smooth="yes"/>
      <point x="328" y="-161"/>
      <point x="335" y="-26"/>
      <point x="335" y="107" type="curve" smooth="yes"/>
    </contour>
  </outline>
</glyph>
<glyph name="LtnSmOi" format="2">
  <advance width="1660"/>
  <unicode hex="01A3"/>
  <anchor x="626" y="-100" name="L"/>
  <anchor x="800" y="1050" name="U"/>
  <outline>
    <contour>
      <point x="1030" y="219"/>
      <point x="1030" y="485" type="curve" smooth="yes"/>
      <point x="1030" y="758"/>
      <point x="846" y="960"/>
      <point x="565" y="960" type="curve" smooth="yes"/>
      <point x="265" y="960"/>
      <point x="60" y="709"/>
      <point x="60" y="444" type="curve" smooth="yes"/>
      <point x="60" y="172"/>
      <point x="244" y="-30"/>
      <point x="526" y="-30" type="curve" smooth="yes"/>
      <point x="799" y="-30"/>
    </contour>
    <contour>
      <point x="745" y="646"/>
      <point x="745" y="435" type="curve" smooth="yes"/>
      <point x="745" y="217"/>
      <point x="703" y="100"/>
      <point x="554" y="100" type="curve" smooth="yes"/>
      <point x="431" y="100"/>
      <point x="345" y="262"/>
      <point x="345" y="473" type="curve" smooth="yes"/>
      <point x="345" y="676"/>
      <point x="383" y="830"/>
      <point x="536" y="830" type="curve" smooth="yes"/>
      <point x="673" y="830"/>
    </contour>
    <contour>
      <point x="1090" y="-480" type="line"/>
      <point x="1640" y="-480" type="line"/>
      <point x="1640" y="-397" type="line"/>
      <point x="1535" y="-370"/>
      <point x="1500" y="-354"/>
      <point x="1500" y="-336" type="curve" smooth="yes"/>
      <point x="1500" y="651" type="line" smooth="yes"/>
      <point x="1500" y="901"/>
      <point x="1354" y="960"/>
      <point x="1219" y="960" type="curve" smooth="yes"/>
      <point x="1075" y="960"/>
      <point x="925" y="865"/>
      <point x="808" y="687" type="curve"/>
      <point x="842" y="520" type="line"/>
      <point x="905" y="671"/>
      <point x="1040" y="790"/>
      <point x="1122" y="790" type="curve" smooth="yes"/>
      <point x="1226" y="790"/>
      <point x="1230" y="695"/>
      <point x="1230" y="533" type="curve" smooth="yes"/>
      <point x="1230" y="-336" type="line" smooth="yes"/>
      <point x="1230" y="-354"/>
      <point x="1186" y="-372"/>
      <point x="1090" y="-397" type="curve"/>
    </contour>
  </outline>
</glyph>
<glyph name="LtnCapPHook" format="2">
  <advance width="1491"/>
  <unicode hex="01A4"/>
  <anchor x="621" y="-100" name="L"/>
  <anchor x="621" y="1370" name="U"/>
  <outline>
    <contour>
      <point x="932" y="515"/>
      <point x="993" y="515" type="curve" smooth="yes"/>
      <point x="1179" y="515"/>
      <point x="1422" y="659"/>
      <point x="1422" y="936" type="curve" smooth="yes"/>
      <point x="1422" y="1112"/>
      <point x="1294" y="1218"/>
      <point x="1132" y="1261" type="curve" smooth="yes"/>
      <point x="1042" y="1285"/>
      <point x="926" y="1290"/>
      <point x="709" y="1290" type="curve" smooth="yes"/>
      <point x="283" y="1290"/>
      <point x="20" y="1177"/>
      <point x="20" y="963" type="curve" smooth="yes"/>
      <point x="20" y="876"/>
      <point x="66" y="797"/>
      <point x="135" y="756" type="curve"/>
      <point x="220" y="757"/>
      <point x="356" y="834"/>
      <point x="383" y="870" type="curve"/>
      <point x="322" y="899"/>
      <point x="284" y="948"/>
      <point x="284" y="1006" type="curve" smooth="yes"/>
      <point x="284" y="1115"/>
      <point x="455" y="1176"/>
      <point x="713" y="1176" type="curve" smooth="yes"/>
      <point x="759" y="1176"/>
      <point x="789" y="1176"/>
      <point x="836" y="1176" type="curve" smooth="yes"/>
      <point x="1044" y="1176"/>
      <point x="1137" y="1045"/>
      <point x="1137" y="895" type="curve" smooth="yes"/>
      <point x="1137" y="717"/>
      <point x="1046" y="630"/>
      <point x="923" y="630" type="curve" smooth="yes"/>
      <point x="876" y="630"/>
      <point x="844" y="635"/>
      <point x="789" y="660" type="curve"/>
      <point x="822" y="545" type="line"/>
      <point x="867" y="525"/>
    </contour>
    <contour>
      <point x="340" y="0" type="line"/>
      <point x="920" y="0" type="line"/>
      <point x="920" y="83" type="line"/>
      <point x="781" y="106"/>
      <point x="755" y="128"/>
      <point x="755" y="144" type="curve" smooth="yes"/>
      <point x="755" y="1240" type="line"/>
      <point x="475" y="1240" type="line"/>
      <point x="475" y="144" type="line" smooth="yes"/>
      <point x="475" y="126"/>
      <point x="430" y="101"/>
      <point x="340" y="83" type="curve"/>
    </contour>
  </outline>
</glyph>
<glyph name="LtnSmPHook" format="2">
  <advance width="1120"/>
  <unicode hex="01A5"/>
  <anchor x="774" y="-100" name="L"/>
  <anchor x="574" y="1690" name="U"/>
  <outline>
    <contour>
      <point x="1060" y="502" type="curve" smooth="yes"/>
      <point x="1060" y="824"/>
      <point x="897" y="960"/>
      <point x="715" y="960" type="curve" smooth="yes"/>
      <point x="639" y="960"/>
      <point x="548" y="937"/>
      <point x="400" y="821" type="curve"/>
      <point x="400" y="926" type="line" smooth="yes"/>
      <point x="400" y="1307"/>
      <point x="493" y="1385"/>
      <point x="579" y="1385" type="curve" smooth="yes"/>
      <point x="677" y="1385"/>
      <point x="765" y="1282"/>
      <point x="820" y="1213" type="curve"/>
      <point x="859" y="1231"/>
      <point x="997" y="1362"/>
      <point x="997" y="1404" type="curve" smooth="yes"/>
      <point x="997" y="1439"/>
      <point x="837" y="1550"/>
      <point x="678" y="1550" type="curve" smooth="yes"/>
      <point x="527" y="1550"/>
      <point x="383" y="1470"/>
      <point x="309" y="1398" type="curve" smooth="yes"/>
      <point x="175" y="1268"/>
      <point x="130" y="1142"/>
      <point x="130" y="821" type="curve" smooth="yes"/>
      <point x="130" y="-335" type="line" smooth="yes"/>
      <point x="130" y="-358"/>
      <point x="88" y="-376"/>
      <point x="0" y="-397" type="curve"/>
      <point x="0" y="-480" type="line"/>
      <point x="569" y="-480" type="line"/>
      <point x="569" y="-397" type="line"/>
      <point x="444" y="-378"/>
      <point x="400" y="-356"/>
      <point x="400" y="-335" type="curve" smooth="yes"/>
      <point x="400" y="78" type="line"/>
      <point x="524" y="-4"/>
      <point x="590" y="-30"/>
      <point x="668" y="-30" type="curve" smooth="yes"/>
      <point x="823" y="-30"/>
      <point x="1060" y="230"/>
    </contour>
    <contour>
      <point x="805" y="426" type="curve"/>
      <point x="805" y="250"/>
      <point x="746" y="150"/>
      <point x="656" y="150" type="curve" smooth="yes"/>
      <point x="594" y="150"/>
      <point x="549" y="153"/>
      <point x="400" y="233" type="curve"/>
      <point x="400" y="700" type="line"/>
      <point x="499" y="761"/>
      <point x="534" y="775"/>
      <point x="578" y="775" type="curve" smooth="yes"/>
      <point x="687" y="775"/>
      <point x="805" y="689"/>
    </contour>
  </outline>
</glyph>
<glyph name="LtnYr" format="2">
  <advance width="1213"/>
  <unicode hex="01A6"/>
  <anchor x="643" y="-100" name="L"/>
  <anchor x="642" y="1370" name="U"/>
  <outline>
    <contour>
      <point x="349" y="1005" type="curve"/>
      <point x="345" y="896" type="line"/>
      <point x="407" y="902"/>
      <point x="495" y="906"/>
      <point x="552" y="906" type="curve" smooth="yes"/>
      <point x="800" y="906"/>
      <point x="839" y="777"/>
      <point x="842" y="706" type="curve" smooth="yes"/>
      <point x="846" y="600"/>
      <point x="774" y="494"/>
      <point x="564" y="494" type="curve" smooth="yes"/>
      <point x="530" y="494"/>
      <point x="474" y="496"/>
      <point x="427" y="504" type="curve"/>
      <point x="433" y="392" type="line"/>
      <point x="474" y="382"/>
      <point x="544" y="378"/>
      <point x="581" y="378" type="curve" smooth="yes"/>
      <point x="889" y="378"/>
      <point x="1106" y="521"/>
      <point x="1106" y="737" type="curve" smooth="yes"/>
      <point x="1106" y="869"/>
      <point x="978" y="1020"/>
      <point x="589" y="1020" type="curve" smooth="yes"/>
      <point x="510" y="1020"/>
      <point x="412" y="1014"/>
    </contour>
    <contour>
      <point x="1205" y="-215"/>
      <point x="1313" y="-176" type="curve"/>
      <point x="1295" y="-93" type="line"/>
      <point x="1205" y="-101"/>
      <point x="1182" y="-91"/>
      <point x="1141" y="-34" type="curve"/>
      <point x="733" y="501" type="line"/>
      <point x="579" y="442" type="line"/>
      <point x="911" y="-192" type="line"/>
      <point x="930" y="-226"/>
      <point x="971" y="-247"/>
      <point x="1009" y="-247" type="curve" smooth="yes"/>
      <point x="1091" y="-247"/>
    </contour>
    <contour>
      <point x="60" y="0" type="line"/>
      <point x="620" y="0" type="line"/>
      <point x="620" y="83" type="line"/>
      <point x="524" y="101"/>
      <point x="475" y="128"/>
      <point x="475" y="144" type="curve" smooth="yes"/>
      <point x="475" y="1115" type="line" smooth="yes"/>
      <point x="475" y="1134"/>
      <point x="530" y="1158"/>
      <point x="620" y="1177" type="curve"/>
      <point x="620" y="1260" type="line"/>
      <point x="60" y="1260" type="line"/>
      <point x="60" y="1177" type="line"/>
      <point x="156" y="1158"/>
      <point x="205" y="1131"/>
      <point x="205" y="1115" type="curve" smooth="yes"/>
      <point x="205" y="144" type="line" smooth="yes"/>
      <point x="205" y="126"/>
      <point x="150" y="101"/>
      <point x="60" y="83" type="curve"/>
    </contour>
  </outline>
</glyph>
<glyph name="LtnCapTnTwo" format="2">
  <advance width="1075"/>
  <unicode hex="01A7"/>
  <anchor x="514" y="-100" name="L"/>
  <anchor x="534" y="1370" name="U"/>
  <outline>
    <contour>
      <point x="80" y="792"/>
      <point x="80" y="337" type="curve"/>
      <point x="80" y="159"/>
      <point x="194" y="-30"/>
      <point x="525" y="-30" type="curve" smooth="yes"/>
      <point x="733" y="-30"/>
      <point x="866" y="18"/>
      <point x="960" y="78" type="curve" smooth="yes"/>
      <point x="978" y="88"/>
      <point x="964" y="332"/>
      <point x="944" y="404" type="curve"/>
      <point x="860" y="399" type="line"/>
      <point x="819" y="242"/>
      <point x="675" y="120"/>
      <point x="539" y="120" type="curve" smooth="yes"/>
      <point x="429" y="120"/>
      <point x="333" y="187"/>
      <point x="333" y="324" type="curve" smooth="yes"/>
      <point x="333" y="629"/>
      <point x="978" y="570"/>
      <point x="978" y="997" type="curve" smooth="yes"/>
      <point x="978" y="1122"/>
      <point x="892" y="1290"/>
      <point x="559" y="1290" type="curve" smooth="yes"/>
      <point x="358" y="1290"/>
      <point x="211" y="1241"/>
      <point x="132" y="1178" type="curve"/>
      <point x="113" y="1162"/>
      <point x="177" y="984"/>
      <point x="210" y="955" type="curve"/>
      <point x="291" y="961" type="line"/>
      <point x="325" y="1049"/>
      <point x="402" y="1156"/>
      <point x="568" y="1156" type="curve" smooth="yes"/>
      <point x="676" y="1156"/>
      <point x="731" y="1090"/>
      <point x="731" y="1014" type="curve" smooth="yes"/>
      <point x="731" y="822"/>
    </contour>
  </outline>
</glyph>
<glyph name="LtnCapEsh" format="2">
  <advance width="1140"/>
  <unicode hex="01A9"/>
  <anchor x="555" y="-100" name="L"/>
  <anchor x="555" y="1370" name="U"/>
  <outline>
    <contour>
      <point x="1064" y="298"/>
      <point x="1070" y="405" type="curve"/>
      <point x="977" y="427" type="line"/>
      <point x="928" y="252"/>
      <point x="909" y="210"/>
      <point x="825" y="210" type="curve" smooth="yes"/>
      <point x="355" y="210" type="line"/>
      <point x="689" y="674" type="line"/>
      <point x="408" y="1120" type="line"/>
      <point x="801" y="1120" type="line" smooth="yes"/>
      <point x="840" y="1120"/>
      <point x="887" y="1091"/>
      <point x="936" y="893" type="curve"/>
      <point x="1032" y="915" type="line"/>
      <point x="1028" y="1276" type="line"/>
      <point x="948" y="1260"/>
      <point x="890" y="1260"/>
      <point x="815" y="1260" type="curve" smooth="yes"/>
      <point x="61" y="1260" type="line"/>
      <point x="61" y="1207" type="line"/>
      <point x="447" y="605" type="line"/>
      <point x="40" y="53" type="line"/>
      <point x="81" y="0" type="line"/>
      <point x="1044" y="0" type="line"/>
      <point x="1050" y="72"/>
    </contour>
  </outline>
</glyph>
<glyph name="LtnSmTPalHook" format="2">
  <advance width="775"/>
  <unicode hex="01AB"/>
  <anchor x="348" y="-600" name="L"/>
  <anchor x="348" y="1320" name="U"/>
  <outline>
    <contour>
      <point x="565" y="30"/>
      <point x="756" y="167" type="curve"/>
      <point x="707" y="248" type="line"/>
      <point x="593" y="185"/>
      <point x="544" y="170"/>
      <point x="497" y="170" type="curve" smooth="yes"/>
      <point x="457" y="170"/>
      <point x="420" y="217"/>
      <point x="420" y="347" type="curve" smooth="yes"/>
      <point x="420" y="795" type="line"/>
      <point x="492" y="795" type="line" smooth="yes"/>
      <point x="551" y="795"/>
      <point x="623" y="776"/>
      <point x="655" y="760" type="curve"/>
      <point x="682" y="782"/>
      <point x="731" y="844"/>
      <point x="756" y="891" type="curve"/>
      <point x="717" y="930" type="line"/>
      <point x="420" y="930" type="line"/>
      <point x="420" y="1255" type="line"/>
      <point x="379" y="1290" type="line"/>
      <point x="150" y="1126" type="line"/>
      <point x="150" y="930" type="line"/>
      <point x="78" y="930" type="line"/>
      <point x="0" y="833" type="line"/>
      <point x="31" y="795" type="line"/>
      <point x="150" y="795" type="line"/>
      <point x="150" y="251" type="line" smooth="yes"/>
      <point x="150" y="65"/>
      <point x="251" y="-30"/>
      <point x="373" y="-30" type="curve" smooth="yes"/>
      <point x="443" y="-30"/>
    </contour>
    <contour>
      <point x="269" y="-242"/>
      <point x="236" y="-280" type="curve"/>
      <point x="224" y="-398"/>
      <point x="343" y="-500"/>
      <point x="468" y="-500" type="curve"/>
      <point x="590" y="-500"/>
      <point x="756" y="-442"/>
      <point x="756" y="-147" type="curve" smooth="yes"/>
      <point x="756" y="167" type="line"/>
      <point x="713" y="159"/>
      <point x="669" y="151"/>
      <point x="626" y="143" type="curve"/>
      <point x="626" y="-176" type="line"/>
      <point x="626" y="-318"/>
      <point x="598" y="-365"/>
      <point x="532" y="-365" type="curve" smooth="yes"/>
      <point x="497" y="-365"/>
      <point x="440" y="-296"/>
      <point x="493" y="-187" type="curve"/>
      <point x="486" y="-174"/>
      <point x="464" y="-160"/>
      <point x="454" y="-149" type="curve"/>
      <point x="400" y="-166"/>
    </contour>
  </outline>
</glyph>
<glyph name="LtnCapTHook" format="2">
  <advance width="1340"/>
  <unicode hex="01AC"/>
  <anchor x="728" y="-100" name="L"/>
  <anchor x="728" y="1370" name="U"/>
  <outline>
    <contour>
      <point x="20" y="1183"/>
      <point x="20" y="963" type="curve"/>
      <point x="20" y="860"/>
      <point x="86" y="782"/>
      <point x="135" y="756" type="curve"/>
      <point x="230" y="759"/>
      <point x="364" y="842"/>
      <point x="383" y="870" type="curve"/>
      <point x="348" y="887"/>
      <point x="284" y="928"/>
      <point x="284" y="1006" type="curve" smooth="yes"/>
      <point x="284" y="1085"/>
      <point x="337" y="1130"/>
      <point x="445" y="1130" type="curve" smooth="yes"/>
      <point x="583" y="1130" type="line"/>
      <point x="583" y="155" type="line" smooth="yes"/>
      <point x="583" y="136"/>
      <point x="552" y="108"/>
      <point x="429" y="83" type="curve"/>
      <point x="429" y="0" type="line"/>
      <point x="1017" y="0" type="line"/>
      <point x="1017" y="83" type="line"/>
      <point x="894" y="108"/>
      <point x="863" y="138"/>
      <point x="863" y="155" type="curve" smooth="yes"/>
      <point x="863" y="1130" type="line"/>
      <point x="1097" y="1130" type="line" smooth="yes"/>
      <point x="1157" y="1130"/>
      <point x="1155" y="1033"/>
      <point x="1180" y="920" type="curve"/>
      <point x="1265" y="920" type="line"/>
      <point x="1281" y="1004"/>
      <point x="1303" y="1157"/>
      <point x="1305" y="1225" type="curve"/>
      <point x="1265" y="1260" type="line"/>
      <point x="451" y="1260" type="line" smooth="yes"/>
      <point x="295" y="1260"/>
    </contour>
  </outline>
</glyph>
<glyph name="LtnSmUHorn" format="1">
  <advance width="1430"/>
  <unicode hex="01B0"/>
  <outline>
    <component base="LtnSmU"/>
    <component base="CombHorn" xOffset="1263"/>
    <contour>
      <point x="588" y="-100" type="move" name="L"/>
    </contour>
    <contour>
      <point x="588" y="1050" type="move" name="U"/>
    </contour>
  </outline>
</glyph>
<glyph name="LtnCapUpsilon" format="2">
  <advance width="1302"/>
  <unicode hex="01B1"/>
  <anchor x="641" y="-100" name="L"/>
  <anchor x="641" y="1370" name="U"/>
  <outline>
    <contour>
      <point x="1212" y="1177"/>
      <point x="1212" y="1177" type="curve"/>
      <point x="1212" y="1260" type="line"/>
      <point x="780" y="1260" type="line"/>
      <point x="733" y="1141" type="line"/>
      <point x="882" y="1045"/>
      <point x="964" y="815"/>
      <point x="964" y="595" type="curve" smooth="yes"/>
      <point x="964" y="283"/>
      <point x="841" y="110"/>
      <point x="651" y="110" type="curve" smooth="yes"/>
      <point x="474" y="110"/>
      <point x="305" y="316"/>
      <point x="305" y="615" type="curve" smooth="yes"/>
      <point x="305" y="833"/>
      <point x="381" y="1015"/>
      <point x="550" y="1141" type="curve"/>
      <point x="506" y="1260" type="line"/>
      <point x="70" y="1260" type="line"/>
      <point x="70" y="1177" type="line"/>
      <point x="70" y="1177"/>
      <point x="317" y="1125"/>
      <point x="253" y="1071" type="curve" smooth="yes"/>
      <point x="98" y="941"/>
      <point x="30" y="758"/>
      <point x="30" y="576" type="curve" smooth="yes"/>
      <point x="30" y="254"/>
      <point x="246" y="-30"/>
      <point x="625" y="-30" type="curve" smooth="yes"/>
      <point x="1024" y="-30"/>
      <point x="1239" y="351"/>
      <point x="1239" y="623" type="curve" smooth="yes"/>
      <point x="1239" y="815"/>
      <point x="1165" y="952"/>
      <point x="1027" y="1071" type="curve" smooth="yes"/>
      <point x="965" y="1124"/>
    </contour>
  </outline>
</glyph>
<glyph name="LtnCapVHook" format="2">
  <advance width="1379"/>
  <unicode hex="01B2"/>
  <anchor x="609" y="-100" name="L"/>
  <anchor x="609" y="1370" name="U"/>
  <outline>
    <contour>
      <point x="1187" y="1252"/>
      <point x="977" y="1290" type="curve"/>
      <point x="673" y="1205" type="line"/>
      <point x="694" y="1131" type="line"/>
      <point x="920" y="1126"/>
      <point x="1018" y="861"/>
      <point x="1018" y="666" type="curve" smooth="yes"/>
      <point x="1018" y="308"/>
      <point x="885" y="125"/>
      <point x="705" y="125" type="curve" smooth="yes"/>
      <point x="497" y="125"/>
      <point x="425" y="258"/>
      <point x="425" y="514" type="curve" smooth="yes"/>
      <point x="425" y="1115" type="line" smooth="yes"/>
      <point x="425" y="1134"/>
      <point x="470" y="1158"/>
      <point x="560" y="1177" type="curve"/>
      <point x="560" y="1260" type="line"/>
      <point x="10" y="1260" type="line"/>
      <point x="10" y="1177" type="line"/>
      <point x="106" y="1158"/>
      <point x="145" y="1131"/>
      <point x="145" y="1115" type="curve" smooth="yes"/>
      <point x="145" y="444" type="line" smooth="yes"/>
      <point x="145" y="119"/>
      <point x="391" y="-30"/>
      <point x="636" y="-30" type="curve" smooth="yes"/>
      <point x="1024" y="-30"/>
      <point x="1288" y="293"/>
      <point x="1288" y="754" type="curve" smooth="yes"/>
      <point x="1288" y="986"/>
    </contour>
  </outline>
</glyph>
<glyph name="LtnCapZStrk" format="2">
  <advance width="1131"/>
  <unicode hex="01B5"/>
  <anchor x="608" y="-100" name="L"/>
  <anchor x="610" y="1370" name="U"/>
  <outline>
    <contour>
      <point x="1057" y="287"/>
      <point x="1061" y="373" type="curve"/>
      <point x="966" y="397" type="line"/>
      <point x="915" y="233"/>
      <point x="886" y="140"/>
      <point x="829" y="140" type="curve" smooth="yes"/>
      <point x="396" y="140" type="line"/>
      <point x="1051" y="1207" type="line"/>
      <point x="1016" y="1260" type="line"/>
      <point x="330" y="1260" type="line" smooth="yes"/>
      <point x="252" y="1260"/>
      <point x="213" y="1260"/>
      <point x="140" y="1276" type="curve"/>
      <point x="101" y="895" type="line"/>
      <point x="198" y="873" type="line"/>
      <point x="227" y="1012"/>
      <point x="298" y="1120"/>
      <point x="341" y="1120" type="curve" smooth="yes"/>
      <point x="710" y="1120" type="line"/>
      <point x="49" y="55" type="line"/>
      <point x="88" y="0" type="line"/>
      <point x="1049" y="0" type="line"/>
      <point x="1051" y="78"/>
    </contour>
    <contour>
      <point x="942" y="580" type="line"/>
      <point x="981" y="685" type="line"/>
      <point x="959" y="710" type="line"/>
      <point x="181" y="710" type="line"/>
      <point x="170" y="689"/>
      <point x="147" y="623"/>
      <point x="141" y="602" type="curve"/>
      <point x="164" y="580" type="line"/>
    </contour>
  </outline>
</glyph>
<glyph name="LtnCapEzhRev" format="2">
  <advance width="1120"/>
  <unicode hex="01B8"/>
  <anchor x="570" y="-100" name="L"/>
  <anchor x="590" y="1370" name="U"/>
  <outline>
    <contour>
      <point x="126" y="1207" type="line"/>
      <point x="468" y="775" type="line"/>
      <point x="723" y="615" type="line"/>
      <point x="790" y="704" type="line"/>
      <point x="460" y="1120" type="line"/>
      <point x="769" y="1120" type="line" smooth="yes"/>
      <point x="817" y="1120"/>
      <point x="882" y="996"/>
      <point x="909" y="873" type="curve"/>
      <point x="1006" y="895" type="line"/>
      <point x="966" y="1276" type="line"/>
      <point x="909" y="1260"/>
      <point x="846" y="1260"/>
      <point x="760" y="1260" type="curve" smooth="yes"/>
      <point x="161" y="1260" type="line"/>
    </contour>
    <contour>
      <point x="41" y="631"/>
      <point x="41" y="357" type="curve" smooth="yes"/>
      <point x="41" y="165"/>
      <point x="175" y="-27"/>
      <point x="529" y="-27" type="curve" smooth="yes"/>
      <point x="829" y="-27"/>
      <point x="1080" y="176"/>
      <point x="1080" y="339" type="curve" smooth="yes"/>
      <point x="1080" y="346"/>
      <point x="1055" y="387"/>
      <point x="1044" y="410" type="curve"/>
      <point x="978" y="402"/>
      <point x="848" y="366"/>
      <point x="795" y="331" type="curve"/>
      <point x="816" y="216"/>
      <point x="716" y="133"/>
      <point x="590" y="133" type="curve" smooth="yes"/>
      <point x="424" y="133"/>
      <point x="311" y="226"/>
      <point x="311" y="406" type="curve" smooth="yes"/>
      <point x="311" y="536"/>
      <point x="400" y="652"/>
      <point x="563" y="652" type="curve" smooth="yes"/>
      <point x="626" y="652"/>
      <point x="665" y="647"/>
      <point x="723" y="616" type="curve"/>
      <point x="732" y="623"/>
      <point x="784" y="694"/>
      <point x="790" y="705" type="curve"/>
      <point x="692" y="764"/>
      <point x="649" y="776"/>
      <point x="599" y="796" type="curve"/>
      <point x="285" y="796"/>
    </contour>
  </outline>
</glyph>
<glyph name="LtnSmEzhRev" format="2">
  <advance width="1037"/>
  <unicode hex="01B9"/>
  <anchor x="515" y="-600" name="L"/>
  <anchor x="515" y="1050" name="U"/>
  <outline>
    <contour>
      <point x="50" y="179"/>
      <point x="50" y="-96" type="curve" smooth="yes"/>
      <point x="50" y="-278"/>
      <point x="180" y="-500"/>
      <point x="494" y="-500" type="curve" smooth="yes"/>
      <point x="834" y="-500"/>
      <point x="1022" y="-258"/>
      <point x="1022" y="-60" type="curve"/>
      <point x="995" y="-30" type="line"/>
      <point x="929" y="-38"/>
      <point x="781" y="-65"/>
      <point x="728" y="-100" type="curve"/>
      <point x="779" y="-215"/>
      <point x="704" y="-350"/>
      <point x="548" y="-350" type="curve" smooth="yes"/>
      <point x="432" y="-350"/>
      <point x="290" y="-247"/>
      <point x="290" y="-47" type="curve" smooth="yes"/>
      <point x="290" y="153"/>
      <point x="431" y="263"/>
      <point x="558" y="263" type="curve" smooth="yes"/>
      <point x="621" y="263"/>
      <point x="639" y="255"/>
      <point x="687" y="234" type="curve"/>
      <point x="696" y="241"/>
      <point x="757" y="332"/>
      <point x="764" y="355" type="curve"/>
      <point x="415" y="800" type="line"/>
      <point x="700" y="800" type="line" smooth="yes"/>
      <point x="778" y="800"/>
      <point x="827" y="693"/>
      <point x="857" y="570" type="curve"/>
      <point x="936" y="592" type="line"/>
      <point x="910" y="946" type="line"/>
      <point x="853" y="930"/>
      <point x="792" y="930"/>
      <point x="704" y="930" type="curve" smooth="yes"/>
      <point x="110" y="930" type="line"/>
      <point x="87" y="887" type="line"/>
      <point x="476" y="380" type="line"/>
      <point x="257" y="338"/>
    </contour>
  </outline>
</glyph>
<glyph name="LtnSmEzhTail" format="2">
  <advance width="922"/>
  <unicode hex="01BA"/>
  <anchor x="388" y="-600" name="L"/>
  <anchor x="420" y="1050" name="U"/>
  <outline>
    <contour>
      <point x="566" y="464" type="line"/>
      <point x="889" y="887" type="line"/>
      <point x="865" y="930" type="line"/>
      <point x="251" y="930" type="line" smooth="yes"/>
      <point x="165" y="930"/>
      <point x="122" y="930"/>
      <point x="65" y="946" type="curve"/>
      <point x="39" y="592" type="line"/>
      <point x="118" y="570" type="line"/>
      <point x="145" y="693"/>
      <point x="198" y="800"/>
      <point x="274" y="800" type="curve" smooth="yes"/>
      <point x="560" y="800" type="line"/>
      <point x="163" y="327" type="line"/>
      <point x="218" y="263" type="line"/>
    </contour>
    <contour>
      <point x="850" y="121"/>
      <point x="850" y="288" type="curve" smooth="yes"/>
      <point x="850" y="432"/>
      <point x="724" y="492"/>
      <point x="611" y="492" type="curve" smooth="yes"/>
      <point x="388" y="492"/>
      <point x="261" y="396"/>
      <point x="163" y="327" type="curve"/>
      <point x="169" y="316"/>
      <point x="209" y="270"/>
      <point x="218" y="263" type="curve"/>
      <point x="343" y="336"/>
      <point x="426" y="341"/>
      <point x="487" y="341" type="curve" smooth="yes"/>
      <point x="577" y="341"/>
      <point x="610" y="295"/>
      <point x="610" y="255" type="curve" smooth="yes"/>
      <point x="610" y="212"/>
      <point x="601" y="137"/>
      <point x="397" y="81" type="curve" smooth="yes"/>
      <point x="174" y="20"/>
      <point x="30" y="-70"/>
      <point x="30" y="-228" type="curve" smooth="yes"/>
      <point x="30" y="-391"/>
      <point x="198" y="-503"/>
      <point x="414" y="-500" type="curve" smooth="yes"/>
      <point x="733" y="-496"/>
      <point x="905" y="-287"/>
      <point x="922" y="-82" type="curve"/>
      <point x="895" y="-52" type="line"/>
      <point x="821" y="-60"/>
      <point x="686" y="-84"/>
      <point x="628" y="-120" type="curve"/>
      <point x="663" y="-227"/>
      <point x="631" y="-350"/>
      <point x="448" y="-350" type="curve" smooth="yes"/>
      <point x="322" y="-350"/>
      <point x="250" y="-281"/>
      <point x="250" y="-193" type="curve" smooth="yes"/>
      <point x="250" y="-118"/>
      <point x="306" y="-69"/>
      <point x="492" y="-21" type="curve" smooth="yes"/>
      <point x="724" y="39"/>
    </contour>
  </outline>
</glyph>
<glyph name="LtnTwoStrk" format="2">
  <advance width="1061"/>
  <unicode hex="01BB"/>
  <anchor x="445" y="-100" name="L"/>
  <anchor x="445" y="1370" name="U"/>
  <outline>
    <contour>
      <point x="941" y="0" type="line"/>
      <point x="956" y="377" type="line"/>
      <point x="866" y="399" type="line"/>
      <point x="866" y="399"/>
      <point x="854" y="191"/>
      <point x="764" y="191" type="curve" smooth="yes"/>
      <point x="371" y="191" type="line"/>
      <point x="804" y="661"/>
      <point x="943" y="811"/>
      <point x="943" y="992" type="curve" smooth="yes"/>
      <point x="943" y="1149"/>
      <point x="806" y="1235"/>
      <point x="585" y="1235" type="curve" smooth="yes"/>
      <point x="321" y="1235"/>
      <point x="105" y="1063"/>
      <point x="105" y="925" type="curve"/>
      <point x="142" y="845" type="line"/>
      <point x="203" y="851"/>
      <point x="345" y="889"/>
      <point x="390" y="914" type="curve"/>
      <point x="368" y="1015"/>
      <point x="408" y="1115"/>
      <point x="517" y="1115" type="curve" smooth="yes"/>
      <point x="617" y="1115"/>
      <point x="658" y="1034"/>
      <point x="658" y="924" type="curve" smooth="yes"/>
      <point x="658" y="783"/>
      <point x="544" y="622"/>
      <point x="78" y="74" type="curve"/>
      <point x="107" y="0" type="line"/>
    </contour>
    <contour>
      <point x="888" y="500" type="line"/>
      <point x="927" y="605" type="line"/>
      <point x="905" y="630" type="line"/>
      <point x="217" y="630" type="line"/>
      <point x="206" y="609"/>
      <point x="183" y="543"/>
      <point x="177" y="522" type="curve"/>
      <point x="200" y="500" type="line"/>
    </contour>
  </outline>
</glyph>
<glyph name="LtnCapTnFive" format="2">
  <advance width="1112"/>
  <unicode hex="01BC"/>
  <anchor x="574" y="-100" name="L"/>
  <anchor x="576" y="1370" name="U"/>
  <outline>
    <contour>
      <point x="1027" y="155"/>
      <point x="1027" y="404" type="curve" smooth="yes"/>
      <point x="1027" y="655"/>
      <point x="836" y="768"/>
      <point x="574" y="768" type="curve" smooth="yes"/>
      <point x="510" y="768"/>
      <point x="481" y="761"/>
      <point x="456" y="754" type="curve"/>
      <point x="456" y="1130" type="line"/>
      <point x="763" y="1130" type="line" smooth="yes"/>
      <point x="814" y="1130"/>
      <point x="824" y="1060"/>
      <point x="832" y="890" type="curve"/>
      <point x="918" y="890" type="line"/>
      <point x="938" y="966"/>
      <point x="973" y="1152"/>
      <point x="977" y="1220" type="curve"/>
      <point x="938" y="1260" type="line"/>
      <point x="40" y="1260" type="line"/>
      <point x="40" y="1177" type="line"/>
      <point x="136" y="1158"/>
      <point x="186" y="1131"/>
      <point x="186" y="1115" type="curve" smooth="yes"/>
      <point x="186" y="632" type="line"/>
      <point x="194" y="621"/>
      <point x="244" y="565"/>
      <point x="253" y="558" type="curve"/>
      <point x="341" y="611"/>
      <point x="430" y="631"/>
      <point x="510" y="631" type="curve" smooth="yes"/>
      <point x="657" y="631"/>
      <point x="763" y="537"/>
      <point x="763" y="383" type="curve" smooth="yes"/>
      <point x="763" y="238"/>
      <point x="687" y="120"/>
      <point x="568" y="120" type="curve" smooth="yes"/>
      <point x="417" y="120"/>
      <point x="349" y="272"/>
      <point x="332" y="351" type="curve"/>
      <point x="267" y="343"/>
      <point x="102" y="218"/>
      <point x="102" y="183" type="curve" smooth="yes"/>
      <point x="102" y="138"/>
      <point x="219" y="-30"/>
      <point x="509" y="-30" type="curve" smooth="yes"/>
      <point x="833" y="-30"/>
    </contour>
  </outline>
</glyph>
<glyph name="LtnSmTnFive" format="2">
  <advance width="985"/>
  <unicode hex="01BD"/>
  <anchor x="471" y="-100" name="L"/>
  <anchor x="471" y="1050" name="U"/>
  <outline>
    <contour>
      <point x="900" y="117"/>
      <point x="900" y="293" type="curve" smooth="yes"/>
      <point x="900" y="479"/>
      <point x="737" y="570"/>
      <point x="499" y="570" type="curve" smooth="yes"/>
      <point x="458" y="570"/>
      <point x="421" y="565"/>
      <point x="400" y="560" type="curve"/>
      <point x="400" y="800" type="line"/>
      <point x="671" y="800" type="line" smooth="yes"/>
      <point x="719" y="800"/>
      <point x="728" y="748"/>
      <point x="736" y="622" type="curve"/>
      <point x="821" y="622" type="line"/>
      <point x="839" y="678"/>
      <point x="875" y="841"/>
      <point x="878" y="892" type="curve"/>
      <point x="839" y="930" type="line"/>
      <point x="10" y="930" type="line"/>
      <point x="10" y="847" type="line"/>
      <point x="100" y="833"/>
      <point x="150" y="813"/>
      <point x="150" y="801" type="curve" smooth="yes"/>
      <point x="150" y="441" type="line"/>
      <point x="157" y="433"/>
      <point x="196" y="404"/>
      <point x="204" y="398" type="curve"/>
      <point x="283" y="443"/>
      <point x="346" y="463"/>
      <point x="420" y="463" type="curve" smooth="yes"/>
      <point x="539" y="463"/>
      <point x="631" y="381"/>
      <point x="631" y="255" type="curve" smooth="yes"/>
      <point x="631" y="167"/>
      <point x="580" y="89"/>
      <point x="482" y="89" type="curve" smooth="yes"/>
      <point x="358" y="89"/>
      <point x="312" y="208"/>
      <point x="286" y="289" type="curve"/>
      <point x="219" y="283"/>
      <point x="86" y="147"/>
      <point x="86" y="116" type="curve" smooth="yes"/>
      <point x="86" y="82"/>
      <point x="200" y="-30"/>
      <point x="445" y="-30" type="curve" smooth="yes"/>
      <point x="743" y="-30"/>
    </contour>
  </outline>
</glyph>
<glyph name="LtnInvGlottalStopStrk" format="2">
  <advance width="857"/>
  <unicode hex="01BE"/>
  <anchor x="456" y="-100" name="L"/>
  <anchor x="400" y="1341" name="U"/>
  <outline>
    <contour>
      <point x="836" y="0"/>
      <point x="836" y="283" type="curve"/>
      <point x="836" y="432"/>
      <point x="707" y="500"/>
      <point x="591" y="559" type="curve"/>
      <point x="480" y="618"/>
      <point x="360" y="664"/>
      <point x="360" y="750" type="curve" smooth="yes"/>
      <point x="360" y="809"/>
      <point x="110" y="788"/>
      <point x="110" y="700" type="curve" smooth="yes"/>
      <point x="110" y="563"/>
      <point x="237" y="486"/>
      <point x="348" y="429" type="curve" smooth="yes"/>
      <point x="470" y="365"/>
      <point x="586" y="304"/>
      <point x="586" y="197" type="curve" smooth="yes"/>
      <point x="586" y="123"/>
      <point x="548" y="100"/>
      <point x="452" y="100" type="curve" smooth="yes"/>
      <point x="314" y="100"/>
      <point x="238" y="230"/>
      <point x="212" y="342" type="curve"/>
      <point x="119" y="353" type="line"/>
      <point x="92" y="273"/>
      <point x="94" y="51"/>
      <point x="112" y="43" type="curve"/>
      <point x="201" y="-6"/>
      <point x="329" y="-30"/>
      <point x="422" y="-30" type="curve" smooth="yes"/>
      <point x="550" y="-30"/>
    </contour>
    <contour>
      <point x="110" y="701" type="line"/>
      <point x="360" y="737" type="line"/>
      <point x="360" y="795" type="line"/>
      <point x="434" y="795" type="line" smooth="yes"/>
      <point x="522" y="795"/>
      <point x="583" y="776"/>
      <point x="615" y="760" type="curve"/>
      <point x="642" y="781"/>
      <point x="696" y="853"/>
      <point x="716" y="891" type="curve"/>
      <point x="677" y="930" type="line"/>
      <point x="360" y="930" type="line"/>
      <point x="360" y="1245" type="line"/>
      <point x="319" y="1280" type="line"/>
      <point x="110" y="1176" type="line"/>
      <point x="110" y="930" type="line"/>
      <point x="38" y="930" type="line"/>
      <point x="-40" y="833" type="line"/>
      <point x="-9" y="795" type="line"/>
      <point x="110" y="795" type="line"/>
    </contour>
  </outline>
</glyph>
<glyph name="LtnWynn" format="2">
  <advance width="1165"/>
  <unicode hex="01BF"/>
  <anchor x="618" y="-600" name="L"/>
  <anchor x="618" y="1050" name="U"/>
  <outline>
    <contour>
      <point x="1105" y="410"/>
      <point x="1105" y="662" type="curve" smooth="yes"/>
      <point x="1105" y="898"/>
      <point x="960" y="960"/>
      <point x="818" y="960" type="curve" smooth="yes"/>
      <point x="682" y="960"/>
      <point x="562" y="877"/>
      <point x="449" y="757" type="curve"/>
      <point x="440" y="915" type="line"/>
      <point x="395" y="960" type="line"/>
      <point x="317" y="923"/>
      <point x="147" y="900"/>
      <point x="55" y="880" type="curve"/>
      <point x="55" y="800" type="line"/>
      <point x="182" y="794"/>
      <point x="185" y="771"/>
      <point x="185" y="671" type="curve" smooth="yes"/>
      <point x="185" y="-335" type="line" smooth="yes"/>
      <point x="185" y="-358"/>
      <point x="133" y="-376"/>
      <point x="45" y="-397" type="curve"/>
      <point x="45" y="-480" type="line"/>
      <point x="624" y="-480" type="line"/>
      <point x="624" y="-397" type="line"/>
      <point x="499" y="-378"/>
      <point x="455" y="-356"/>
      <point x="455" y="-335" type="curve" smooth="yes"/>
      <point x="455" y="-122" type="line"/>
      <point x="967" y="187"/>
    </contour>
    <contour>
      <point x="840" y="749"/>
      <point x="840" y="596" type="curve" smooth="yes"/>
      <point x="840" y="435"/>
      <point x="764" y="204"/>
      <point x="455" y="13" type="curve"/>
      <point x="455" y="600" type="line"/>
      <point x="542" y="712"/>
      <point x="625" y="775"/>
      <point x="713" y="775" type="curve" smooth="yes"/>
      <point x="762" y="775"/>
    </contour>
  </outline>
</glyph>
<glyph name="LtnDentalClick" format="2">
  <advance width="490"/>
  <unicode hex="01C0"/>
  <anchor x="245" y="-600" name="L"/>
  <anchor x="242" y="1690" name="U"/>
  <outline>
    <contour>
      <point x="311" y="-459"/>
      <point x="335" y="-438" type="curve"/>
      <point x="335" y="1518" type="line"/>
      <point x="289" y="1550" type="line"/>
      <point x="250" y="1540"/>
      <point x="192" y="1513"/>
      <point x="155" y="1491" type="curve"/>
      <point x="155" y="-467" type="line"/>
      <point x="200" y="-500" type="line"/>
      <point x="233" y="-489"/>
    </contour>
  </outline>
</glyph>
<glyph name="LtnAlveolarClick" format="2">
  <advance width="792"/>
  <unicode hex="01C2"/>
  <anchor x="395" y="-600" name="L"/>
  <anchor x="395" y="1690" name="U"/>
  <outline>
    <contour>
      <point x="349" y="-500" type="line"/>
      <point x="382" y="-489"/>
      <point x="460" y="-459"/>
      <point x="484" y="-438" type="curve"/>
      <point x="484" y="1518" type="line"/>
      <point x="438" y="1550" type="line"/>
      <point x="399" y="1540"/>
      <point x="341" y="1513"/>
      <point x="304" y="1491" type="curve"/>
      <point x="304" y="-467" type="line"/>
    </contour>
    <contour>
      <point x="55" y="349" type="line"/>
      <point x="729" y="349" type="line"/>
      <point x="739" y="371"/>
      <point x="764" y="426"/>
      <point x="772" y="455" type="curve"/>
      <point x="737" y="489" type="line"/>
      <point x="63" y="489" type="line"/>
      <point x="51" y="463"/>
      <point x="27" y="412"/>
      <point x="20" y="383" type="curve"/>
    </contour>
    <contour>
      <point x="55" y="619" type="line"/>
      <point x="729" y="619" type="line"/>
      <point x="739" y="641"/>
      <point x="764" y="696"/>
      <point x="772" y="725" type="curve"/>
      <point x="737" y="759" type="line"/>
      <point x="63" y="759" type="line"/>
      <point x="51" y="733"/>
      <point x="27" y="682"/>
      <point x="20" y="653" type="curve"/>
    </contour>
  </outline>
</glyph>
<glyph name="LtnSmGStrk" format="2">
  <advance width="1125"/>
  <unicode hex="01E5"/>
  <anchor x="530" y="-600" name="L"/>
  <anchor x="530" y="1050" name="U"/>
  <outline>
    <contour>
      <point x="1090" y="-279"/>
      <point x="1090" y="-100" type="curve" smooth="yes"/>
      <point x="1090" y="44"/>
      <point x="1003" y="108"/>
      <point x="682" y="150" type="curve" smooth="yes"/>
      <point x="474" y="177"/>
      <point x="466" y="194"/>
      <point x="466" y="216" type="curve" smooth="yes"/>
      <point x="466" y="227"/>
      <point x="474" y="270"/>
      <point x="584" y="350" type="curve"/>
      <point x="392" y="333" type="line"/>
      <point x="237" y="233"/>
      <point x="172" y="147"/>
      <point x="172" y="113" type="curve" smooth="yes"/>
      <point x="172" y="49"/>
      <point x="336" y="-9"/>
      <point x="598" y="-44" type="curve" smooth="yes"/>
      <point x="800" y="-71"/>
      <point x="840" y="-123"/>
      <point x="840" y="-177" type="curve" smooth="yes"/>
      <point x="840" y="-255"/>
      <point x="782" y="-345"/>
      <point x="622" y="-345" type="curve" smooth="yes"/>
      <point x="420" y="-345"/>
      <point x="290" y="-272"/>
      <point x="290" y="-180" type="curve" smooth="yes"/>
      <point x="290" y="-125"/>
      <point x="319" y="-82"/>
      <point x="494" y="30" type="curve"/>
      <point x="488" y="57"/>
      <point x="364" y="61"/>
      <point x="364" y="61" type="curve"/>
      <point x="103" y="-73"/>
      <point x="40" y="-146"/>
      <point x="40" y="-219" type="curve" smooth="yes"/>
      <point x="40" y="-413"/>
      <point x="331" y="-490"/>
      <point x="547" y="-490" type="curve" smooth="yes"/>
      <point x="812" y="-490"/>
    </contour>
    <contour>
      <point x="1103" y="893"/>
      <point x="1109" y="920" type="curve"/>
      <point x="1079" y="960" type="line"/>
      <point x="1017" y="937"/>
      <point x="881" y="891"/>
      <point x="755" y="881" type="curve"/>
      <point x="792" y="784" type="line"/>
      <point x="905" y="780"/>
      <point x="980" y="788"/>
      <point x="1052" y="800" type="curve"/>
      <point x="1073" y="833"/>
    </contour>
    <contour>
      <point x="950" y="437"/>
      <point x="950" y="641" type="curve" smooth="yes"/>
      <point x="950" y="814"/>
      <point x="790" y="960"/>
      <point x="565" y="960" type="curve" smooth="yes"/>
      <point x="321" y="960"/>
      <point x="110" y="798"/>
      <point x="110" y="602" type="curve" smooth="yes"/>
      <point x="110" y="416"/>
      <point x="292" y="295"/>
      <point x="529" y="295" type="curve" smooth="yes"/>
      <point x="759" y="295"/>
    </contour>
    <contour>
      <point x="690" y="732"/>
      <point x="690" y="600" type="curve" smooth="yes"/>
      <point x="690" y="477"/>
      <point x="632" y="420"/>
      <point x="554" y="420" type="curve" smooth="yes"/>
      <point x="426" y="420"/>
      <point x="370" y="527"/>
      <point x="370" y="659" type="curve" smooth="yes"/>
      <point x="370" y="781"/>
      <point x="440" y="840"/>
      <point x="506" y="840" type="curve" smooth="yes"/>
      <point x="626" y="840"/>
    </contour>
    <contour>
      <point x="1136" y="-238" type="line"/>
      <point x="1170" y="-145" type="line"/>
      <point x="1148" y="-120" type="line"/>
      <point x="-10" y="-120" type="line"/>
      <point x="-21" y="-141"/>
      <point x="-39" y="-195"/>
      <point x="-45" y="-216" type="curve"/>
      <point x="-22" y="-238" type="line"/>
    </contour>
  </outline>
</glyph>
<glyph name="LtnCapHwair" format="2">
  <advance width="1941"/>
  <unicode hex="01F6"/>
  <anchor x="920" y="-100" name="L"/>
  <anchor x="920" y="1370" name="U"/>
  <outline>
    <contour>
      <point x="945" y="424" type="line"/>
      <point x="1225" y="464" type="line"/>
      <point x="1225" y="1115" type="line" smooth="yes"/>
      <point x="1225" y="1134"/>
      <point x="1280" y="1158"/>
      <point x="1370" y="1177" type="curve"/>
      <point x="1370" y="1260" type="line"/>
      <point x="810" y="1260" type="line"/>
      <point x="810" y="1177" type="line"/>
      <point x="906" y="1158"/>
      <point x="945" y="1131"/>
      <point x="945" y="1115" type="curve" smooth="yes"/>
    </contour>
    <contour>
      <point x="427" y="595" type="line"/>
      <point x="965" y="595" type="line"/>
      <point x="965" y="725" type="line"/>
      <point x="427" y="725" type="line"/>
    </contour>
    <contour>
      <point x="40" y="0" type="line"/>
      <point x="590" y="0" type="line"/>
      <point x="590" y="83" type="line"/>
      <point x="493" y="101"/>
      <point x="455" y="128"/>
      <point x="455" y="144" type="curve" smooth="yes"/>
      <point x="455" y="1115" type="line" smooth="yes"/>
      <point x="455" y="1134"/>
      <point x="500" y="1158"/>
      <point x="590" y="1177" type="curve"/>
      <point x="590" y="1260" type="line"/>
      <point x="40" y="1260" type="line"/>
      <point x="40" y="1177" type="line"/>
      <point x="136" y="1158"/>
      <point x="175" y="1131"/>
      <point x="175" y="1115" type="curve" smooth="yes"/>
      <point x="175" y="144" type="line" smooth="yes"/>
      <point x="175" y="126"/>
      <point x="130" y="101"/>
      <point x="40" y="83" type="curve"/>
    </contour>
    <contour>
      <point x="1886" y="235"/>
      <point x="1886" y="544" type="curve" smooth="yes"/>
      <point x="1886" y="790"/>
      <point x="1769" y="918"/>
      <point x="1646" y="960" type="curve"/>
      <point x="1571" y="946"/>
      <point x="1414" y="897"/>
      <point x="1371" y="877" type="curve"/>
      <point x="1393" y="800" type="line"/>
      <point x="1564" y="787"/>
      <point x="1634" y="637"/>
      <point x="1634" y="451" type="curve" smooth="yes"/>
      <point x="1634" y="279"/>
      <point x="1554" y="130"/>
      <point x="1420" y="130" type="curve" smooth="yes"/>
      <point x="1282" y="130"/>
      <point x="1225" y="238"/>
      <point x="1225" y="412" type="curve" smooth="yes"/>
      <point x="1225" y="691" type="line"/>
      <point x="1163" y="694"/>
      <point x="945" y="648"/>
      <point x="945" y="521" type="curve" smooth="yes"/>
      <point x="945" y="329" type="line" smooth="yes"/>
      <point x="945" y="59"/>
      <point x="1111" y="-30"/>
      <point x="1333" y="-30" type="curve" smooth="yes"/>
      <point x="1656" y="-30"/>
    </contour>
  </outline>
</glyph>
<glyph name="LtnCapWynn" format="2">
  <advance width="1215"/>
  <unicode hex="01F7"/>
  <anchor x="603" y="-600" name="L"/>
  <anchor x="605" y="1370" name="U"/>
  <outline>
    <contour>
      <point x="1146" y="740"/>
      <point x="1146" y="992" type="curve" smooth="yes"/>
      <point x="1146" y="1228"/>
      <point x="1001" y="1290"/>
      <point x="859" y="1290" type="curve" smooth="yes"/>
      <point x="683" y="1290"/>
      <point x="573" y="1207"/>
      <point x="430" y="1087" type="curve"/>
      <point x="421" y="1245" type="line"/>
      <point x="376" y="1290" type="line"/>
      <point x="298" y="1253"/>
      <point x="128" y="1230"/>
      <point x="36" y="1210" type="curve"/>
      <point x="36" y="1130" type="line"/>
      <point x="163" y="1124"/>
      <point x="166" y="1101"/>
      <point x="166" y="1001" type="curve" smooth="yes"/>
      <point x="166" y="-335" type="line" smooth="yes"/>
      <point x="166" y="-358"/>
      <point x="114" y="-376"/>
      <point x="26" y="-397" type="curve"/>
      <point x="26" y="-480" type="line"/>
      <point x="605" y="-480" type="line"/>
      <point x="605" y="-397" type="line"/>
      <point x="480" y="-378"/>
      <point x="436" y="-356"/>
      <point x="436" y="-335" type="curve" smooth="yes"/>
      <point x="436" y="128" type="line"/>
      <point x="998" y="487"/>
    </contour>
    <contour>
      <point x="871" y="1079"/>
      <point x="871" y="926" type="curve" smooth="yes"/>
      <point x="871" y="695"/>
      <point x="775" y="554"/>
      <point x="436" y="283" type="curve"/>
      <point x="436" y="920" type="line"/>
      <point x="532" y="1032"/>
      <point x="626" y="1115"/>
      <point x="724" y="1115" type="curve" smooth="yes"/>
      <point x="793" y="1115"/>
    </contour>
  </outline>
</glyph>
<glyph name="LtnSmYogh" format="2">
  <advance width="945"/>
  <unicode hex="021D"/>
  <anchor x="431" y="-600" name="L"/>
  <anchor x="431" y="1050" name="U"/>
  <outline>
    <contour>
      <point x="831" y="532"/>
      <point x="831" y="714" type="curve" smooth="yes"/>
      <point x="831" y="908"/>
      <point x="651" y="960"/>
      <point x="458" y="960" type="curve" smooth="yes"/>
      <point x="327" y="960"/>
      <point x="190" y="916"/>
      <point x="51" y="836" type="curve" smooth="yes"/>
      <point x="26" y="822"/>
      <point x="82" y="694"/>
      <point x="126" y="608" type="curve"/>
      <point x="209" y="619" type="line"/>
      <point x="229" y="731"/>
      <point x="290" y="827"/>
      <point x="404" y="830" type="curve" smooth="yes"/>
      <point x="496" y="832"/>
      <point x="561" y="763"/>
      <point x="561" y="673" type="curve" smooth="yes"/>
      <point x="561" y="520"/>
      <point x="422" y="396"/>
      <point x="172" y="257" type="curve"/>
      <point x="180" y="231"/>
      <point x="208" y="172"/>
      <point x="213" y="157" type="curve"/>
      <point x="710" y="363"/>
    </contour>
    <contour>
      <point x="866" y="-53"/>
      <point x="866" y="125" type="curve" smooth="yes"/>
      <point x="866" y="299"/>
      <point x="737" y="380"/>
      <point x="458" y="369" type="curve"/>
      <point x="440" y="342"/>
      <point x="359" y="254"/>
      <point x="333" y="209" type="curve"/>
      <point x="361" y="217"/>
      <point x="392" y="220"/>
      <point x="423" y="220" type="curve" smooth="yes"/>
      <point x="512" y="220"/>
      <point x="579" y="166"/>
      <point x="579" y="62" type="curve" smooth="yes"/>
      <point x="579" y="-81"/>
      <point x="371" y="-278"/>
      <point x="85" y="-410" type="curve"/>
      <point x="95" y="-430"/>
      <point x="125" y="-484"/>
      <point x="144" y="-500" type="curve"/>
      <point x="750" y="-275"/>
    </contour>
  </outline>
</glyph>
<glyph name="LtnCapNLngRtLeg" format="2">
  <advance width="1364"/>
  <unicode hex="0220"/>
  <anchor x="446" y="-100" name="L"/>
  <anchor x="676" y="1370" name="U"/>
  <outline>
    <contour>
      <point x="809" y="-350" type="line"/>
      <point x="1360" y="-350" type="line"/>
      <point x="1360" y="-267" type="line"/>
      <point x="1263" y="-249"/>
      <point x="1225" y="-223"/>
      <point x="1225" y="-206" type="curve" smooth="yes"/>
      <point x="1225" y="981" type="line" smooth="yes"/>
      <point x="1225" y="1231"/>
      <point x="1079" y="1290"/>
      <point x="964" y="1290" type="curve" smooth="yes"/>
      <point x="821" y="1290"/>
      <point x="672" y="1238"/>
      <point x="455" y="1058" type="curve"/>
      <point x="455" y="1245" type="line"/>
      <point x="410" y="1290" type="line"/>
      <point x="329" y="1258"/>
      <point x="135" y="1217"/>
      <point x="45" y="1210" type="curve"/>
      <point x="45" y="1127" type="line"/>
      <point x="180" y="1113"/>
      <point x="175" y="1095"/>
      <point x="175" y="990" type="curve" smooth="yes"/>
      <point x="175" y="144" type="line" smooth="yes"/>
      <point x="175" y="126"/>
      <point x="129" y="101"/>
      <point x="39" y="83" type="curve"/>
      <point x="39" y="0" type="line"/>
      <point x="600" y="0" type="line"/>
      <point x="600" y="83" type="line"/>
      <point x="503" y="101"/>
      <point x="455" y="128"/>
      <point x="455" y="144" type="curve" smooth="yes"/>
      <point x="455" y="868" type="line"/>
      <point x="660" y="1063"/>
      <point x="770" y="1080"/>
      <point x="817" y="1080" type="curve" smooth="yes"/>
      <point x="924" y="1080"/>
      <point x="945" y="1040"/>
      <point x="945" y="872" type="curve" smooth="yes"/>
      <point x="945" y="-206" type="line" smooth="yes"/>
      <point x="945" y="-225"/>
      <point x="899" y="-249"/>
      <point x="809" y="-267" type="curve"/>
    </contour>
  </outline>
</glyph>
<glyph name="LtnSmDCurl" format="2">
  <advance width="1412"/>
  <unicode hex="0221"/>
  <anchor x="632" y="-100" name="L"/>
  <anchor x="423" y="1050" name="U"/>
  <outline>
    <contour>
      <point x="1015" y="160"/>
      <point x="1015" y="254" type="curve"/>
      <point x="1015" y="1510" type="line"/>
      <point x="974" y="1550" type="line"/>
      <point x="905" y="1528"/>
      <point x="719" y="1490"/>
      <point x="610" y="1485" type="curve"/>
      <point x="610" y="1406" type="line"/>
      <point x="751" y="1396"/>
      <point x="745" y="1381"/>
      <point x="745" y="1234" type="curve" smooth="yes"/>
      <point x="745" y="902" type="line"/>
      <point x="673" y="950"/>
      <point x="613" y="960"/>
      <point x="551" y="960" type="curve" smooth="yes"/>
      <point x="234" y="960"/>
      <point x="60" y="695"/>
      <point x="60" y="444" type="curve" smooth="yes"/>
      <point x="60" y="147"/>
      <point x="248" y="-30"/>
      <point x="436" y="-30" type="curve" smooth="yes"/>
      <point x="533" y="-30"/>
      <point x="665" y="29"/>
      <point x="754" y="139" type="curve"/>
      <point x="809" y="-19"/>
      <point x="963" y="-30"/>
      <point x="1040" y="-30" type="curve" smooth="yes"/>
      <point x="1242" y="-30"/>
      <point x="1392" y="96"/>
      <point x="1392" y="262" type="curve" smooth="yes"/>
      <point x="1392" y="369"/>
      <point x="1299" y="443"/>
      <point x="1183" y="443" type="curve" smooth="yes"/>
      <point x="947" y="443"/>
      <point x="793" y="121"/>
      <point x="734" y="-206" type="curve"/>
      <point x="839" y="-214" type="line"/>
      <point x="906" y="73"/>
      <point x="1001" y="272"/>
      <point x="1138" y="272" type="curve" smooth="yes"/>
      <point x="1196" y="272"/>
      <point x="1229" y="240"/>
      <point x="1229" y="191" type="curve" smooth="yes"/>
      <point x="1229" y="130"/>
      <point x="1189" y="82"/>
      <point x="1121" y="82" type="curve" smooth="yes"/>
      <point x="1043" y="82"/>
    </contour>
    <contour>
      <point x="745" y="695" type="curve"/>
      <point x="745" y="271" type="line"/>
      <point x="673" y="201"/>
      <point x="608" y="180"/>
      <point x="547" y="180" type="curve" smooth="yes"/>
      <point x="453" y="180"/>
      <point x="330" y="278"/>
      <point x="330" y="505" type="curve" smooth="yes"/>
      <point x="330" y="755"/>
      <point x="440" y="820"/>
      <point x="540" y="820" type="curve" smooth="yes"/>
      <point x="635" y="820"/>
      <point x="701" y="771"/>
    </contour>
  </outline>
</glyph>
